; OM File Header - Saved 2025/09/15 20:25:44
; (7.06 :patc (om-make-point 10 60) (om-make-point 543 50) (om-make-point 1016 900) "" 183 0 "2025/09/15 19:25:05" "2025/09/15 20:24:13")
; End File Header
(in-package :om)(load-lib-for (quote nil))(setf *om-current-persistent* (om-load-patch1 "music-algorithms-2-2" (quote ((let ((box (om-load-boxcomment "comment" (om-make-point 549 56) (quote "MUSC 686: Music and Algorithms (FA2025)$Session 2, Loops, Conditional Operators, Some Useful Common Lisp Functions$EXTRA: Some omloop examples") nil (om-make-point 78 46) nil (om-make-color 0 0 0) (om-make-font "Courier New" 12.0D0 :family "Courier New" :style (quote (:bold)) :mode (quote nil))))) (when (fboundp (quote set-active)) (set-active box nil)) box) (let ((box (om-load-boxcall (quote abstraction) "basic2" (om-load-patch-abs1 "basic2" (quote ((let ((box (om-load-boxcomment "comment" (om-make-point 249 63) (quote "for each of the notes, two notes are added so that they turn into major triads$") nil (om-make-point 116 143) nil (om-make-color 0 0 0) (om-make-font "Courier New" 12.0D0 :family "Courier New" :style (quote (:bold)) :mode (quote nil))))) (when (fboundp (quote set-active)) (set-active box nil)) box) (let ((box (om-load-editor-box1 "CHORD-SEQ" (quote chord-seq) (quote ((om-load-inputfun (quote input-funbox) "object" "self" nil) (om-load-inputfun (quote input-funbox) "pitches (mc): list or list of lists" "lmidic" (list 6000)) (om-load-inputfun (quote input-funbox) "onsets (ms): list" "lonset" (list 0 1000)) (om-load-inputfun (quote input-funbox) "durations (ms): list or list of lists" "ldur" (list 1000)) (om-load-inputfun (quote input-funbox) "velocities (0-127): list or list of lists" "lvel" (list 100)) (om-load-inputfun (quote input-funbox) "offsets (ms): list or list of lists" "loffset" (list 0)) (om-load-inputfun (quote input-funbox) "MIDI channels (1-16): list or list of lists" "lchan" (list 1)) (om-load-inputfun (quote input-funbox) "relative chords duration (0-100)" "legato" 0))) (om-make-point 50 225) (om-make-point 393 99) (let ((newobj (when (find-class (quote chord-seq) nil) (make-instance (quote chord-seq) :lmidic (quote ((6000 6400 6700) (6400 6800 7100) (7100 7500 7800) (6600 7000 7300) (7000 7400 7700) (6400 6800 7100) (6500 6900 7200))) :lonset (quote (0 1000 2000 3000 4000 5000 6000 7000)) :ldur (quote ((1000 1000 1000) (1000 1000 1000) (1000 1000 1000) (1000 1000 1000) (1000 1000 1000) (1000 1000 1000) (1000 1000 1000))) :lvel (quote ((100 100 100) (100 100 100) (100 100 100) (100 100 100) (100 100 100) (100 100 100) (100 100 100))) :loffset (quote ((0 0 0) (0 0 0) (0 0 0) (0 0 0) (0 0 0) (0 0 0) (0 0 0))) :lchan (quote ((1 1 1) (1 1 1) (1 1 1) (1 1 1) (1 1 1) (1 1 1) (1 1 1))) :legato 0)))) (load-port-info newobj (quote ((0 0 0) (0 0 0) (0 0 0) (0 0 0) (0 0 0) (0 0 0) (0 0 0)))) (init-mus-color newobj (quote nil)) (set-extra-pairs newobj (quote nil)) (set-patch-pairs newobj (quote ((nil (om-load-patch-abs1 "patch" (quote nil) (quote nil) 7.06 nil "" (om-make-point 200 200) (om-make-point 400 500)))))) (set-name newobj nil) (set-tonalite newobj nil) newobj) nil nil (pairlis (quote (measure onset scale show-stems cursor-mode obj-mode score-mode winpos winsize mode grillestep notechancolor? zoom player inport outport deltapict cmnpref staff fontsize approx)) (list 1 0 nil (quote t) (quote :normal) 1 0 (om-make-point 400 38) (om-make-point 370 280) 0 1000 nil 1 (quote :fluidsynth) nil nil (om-make-point 0 0) (let ((newobj (make-instance (quote edition-values)))) (setf (paper-size newobj) (om-make-point 600 800)) (setf (top-margin newobj) 2) (setf (left-margin newobj) 1) (setf (right-margin newobj) 1) (setf (bottom-margin newobj) 1) (setf (orientation newobj) nil) (setf (scale newobj) nil) (setf (system-space newobj) (quote (1))) (setf (system-color newobj) (quote nil)) (setf (line-space newobj) 1) (setf (title newobj) nil) (setf (show-title? newobj) nil) (setf (show-page? newobj) nil) (setf (sheet-id newobj) nil) (setf (page-mode newobj) nil) newobj) (quote g) 24 2)) t nil nil nil (quote nil)))) (when (fboundp (quote set-active)) (set-active box nil)) box) (let ((box (om-load-boxwithed1 (quote box-with-win) "OMLOOP" (quote omloop) (quote ((om-load-inputfun (quote input-funbox) "" "input0" nil))) (om-make-point 54 145) nil nil nil (list (let ((box (om-load-boxcall (quote bastype) "list" (quote list) (quote nil) (om-make-point 268 169) (om-make-point 66 30) (list 400 300) "(400 300)" nil))) (when (fboundp (quote set-active)) (set-active box nil)) box) (let ((box (om-load-boxcall (quote lispfun) "CAR" (quote car) (quote ((om-load-inputfun (quote input-funbox) "X" "X" nil))) (om-make-point 164 157) nil nil nil nil 1))) (when (fboundp (quote set-active)) (set-active box nil)) box) (let ((box (om-load-boxcall (quote genfun) "DX->X" (quote dx->x) (quote ((om-load-inputfun (quote input-funbox) "a number" "START" 0) (om-load-inputfun (quote input-funbox) "a list of numbers" "LIST" (list 1 1)))) (om-make-point 216 232) nil nil nil nil 1))) (when (fboundp (quote set-active)) (set-active box nil)) box) (let ((box (om-load-boxcall (quote genfun) "collect" (quote listing) (quote ((om-load-inputfun (quote input-funbox) "anything" "DATA" nil))) (om-make-point 237 315) nil nil nil nil 3))) (when (fboundp (quote set-active)) (set-active box nil)) box) (let ((box (om-load-boxcall (quote genfun) "inlist" (quote listloop) (quote ((om-load-inputfun (quote input-funbox) "list to iterate" "LIST" nil))) (om-make-point 121 90) nil nil nil nil 1))) (when (fboundp (quote set-active)) (set-active box nil)) box) (let ((box (om-load-boxin "input0" 0 (om-make-point 5 40) "" nil nil nil))) (when (fboundp (quote set-active)) (set-active box nil)) box) (let ((box (om-load-seqbox "finally" (quote finaldo) (quote ((om-load-inputfun (quote input-funbox) "value to return" "VAL" nil))) (om-make-point 294 393) nil nil nil 0))) (when (fboundp (quote set-active)) (set-active box nil)) box) (let ((box (om-load-seqbox "eachTime" (quote loopdo) (quote ((om-load-inputfun (quote input-funbox) "operations to do" "OP" nil))) (om-make-point 194 393) nil nil nil 0))) (when (fboundp (quote set-active)) (set-active box nil)) box)) (quote ((4 0 1 0 nil 0) (1 0 2 0 nil 0) (0 0 2 1 nil 0) (2 0 3 0 nil 0) (5 0 4 0 nil 0) (3 1 6 0 nil 0) (3 0 7 0 nil 0))) 1 nil nil))) (when (fboundp (quote set-active)) (set-active box nil)) box) (let ((box (om-load-editor-box1 "CHORD-SEQ" (quote chord-seq) (quote ((om-load-inputfun (quote input-funbox) "object" "self" nil) (om-load-inputfun (quote input-funbox) "pitches (mc): list or list of lists" "lmidic" (list 6000)) (om-load-inputfun (quote input-funbox) "onsets (ms): list" "lonset" (list 0 1000)) (om-load-inputfun (quote input-funbox) "durations (ms): list or list of lists" "ldur" (list 1000)) (om-load-inputfun (quote input-funbox) "velocities (0-127): list or list of lists" "lvel" (list 100)) (om-load-inputfun (quote input-funbox) "offsets (ms): list or list of lists" "loffset" (list 0)) (om-load-inputfun (quote input-funbox) "MIDI channels (1-16): list or list of lists" "lchan" (list 1)) (om-load-inputfun (quote input-funbox) "relative chords duration (0-100)" "legato" 0))) (om-make-point 41 44) (om-make-point 258 93) (let ((newobj (when (find-class (quote chord-seq) nil) (make-instance (quote chord-seq) :lmidic (quote ((6000) (6400) (7100) (6600) (7000) (6400) (6500))) :lonset (quote (0 597 1069 1486 2014 2556 3264 4264)) :ldur (quote ((1000) (1000) (1000) (1000) (1000) (1000) (1000))) :lvel (quote ((100) (100) (100) (100) (100) (100) (100))) :loffset (quote ((0) (0) (0) (0) (0) (0) (0))) :lchan (quote ((1) (1) (1) (1) (1) (1) (1))) :legato 0)))) (load-port-info newobj (quote ((0) (0) (0) (0) (0) (0) (0)))) (init-mus-color newobj (quote nil)) (set-extra-pairs newobj (quote nil)) (set-patch-pairs newobj (quote ((nil (om-load-patch-abs1 "patch" (quote nil) (quote nil) 7.06 nil "" (om-make-point 200 200) (om-make-point 400 500)))))) (set-name newobj nil) (set-tonalite newobj nil) newobj) "x" nil (pairlis (quote (measure onset scale show-stems cursor-mode obj-mode score-mode winpos winsize mode grillestep notechancolor? zoom player inport outport deltapict cmnpref staff fontsize approx)) (list 1 0 nil (quote t) (quote :normal) 1 0 (om-make-point 400 38) (om-make-point 370 280) 0 1000 nil 1 (quote :midi-player) nil nil (om-make-point 0 0) (let ((newobj (make-instance (quote edition-values)))) (setf (paper-size newobj) (om-make-point 600 800)) (setf (top-margin newobj) 2) (setf (left-margin newobj) 1) (setf (right-margin newobj) 1) (setf (bottom-margin newobj) 1) (setf (orientation newobj) nil) (setf (scale newobj) nil) (setf (system-space newobj) (quote (1))) (setf (system-color newobj) (quote nil)) (setf (line-space newobj) 1) (setf (title newobj) nil) (setf (show-title? newobj) nil) (setf (show-page? newobj) nil) (setf (sheet-id newobj) nil) (setf (page-mode newobj) nil) newobj) (quote g) 24 2)) t nil nil nil (quote nil)))) (when (fboundp (quote set-active)) (set-active box nil)) box))) (quote ((2 0 1 1 nil 0) (3 1 2 0 nil 0))) 7.06 nil "" (om-make-point 200 200) (om-make-point 497 393)) (quote nil) (om-make-point 248 134) nil nil nil "basic2"))) (when (fboundp (quote set-active)) (set-active box nil)) box) (let ((box (om-load-boxcall (quote abstraction) "basic1" (om-load-patch-abs1 "basic1" (quote ((let ((box (om-load-boxcall (quote bastype) "list" (quote list) (quote nil) (om-make-point 123 139) (om-make-point 70 30) (list 1 2 3 4 5) "(1 2 3 4 5)" nil))) (when (fboundp (quote set-active)) (set-active box nil)) box) (let ((box (om-load-boxwithed1 (quote box-with-win) "OMLOOP" (quote omloop) (quote ((om-load-inputfun (quote input-funbox) "" "input" nil))) (om-make-point 133 185) nil nil nil (list (let ((box (om-load-boxcomment "comment 4" (om-make-point 383 28) (quote "result is collected, and finally sent out as a list") "" (om-make-point 146 291) nil (om-make-color 0 0 0) (om-make-font "Courier New" 12.0D0 :family "Courier New" :style (quote (:bold)) :mode (quote nil))))) (when (fboundp (quote set-active)) (set-active box nil)) box) (let ((box (om-load-boxcomment "comment 2" (om-make-point 426 28) (quote ". . . from 0 you substract each of the number in the list") "" (om-make-point 142 216) nil (om-make-color 0 0 0) (om-make-font "Courier New" 12.0D0 :family "Courier New" :style (quote (:bold)) :mode (quote nil))))) (when (fboundp (quote set-active)) (set-active box nil)) box) (let ((box (om-load-boxcomment "comment" (om-make-point 399 62) (quote "each of the number in the list is passed through and taken one at a time to do the following operation") "" (om-make-point 169 120) nil (om-make-color 0 0 0) (om-make-font "Courier New" 12.0D0 :family "Courier New" :style (quote (:bold)) :mode (quote nil))))) (when (fboundp (quote set-active)) (set-active box nil)) box) (let ((box (om-load-boxcall (quote genfun) "collect" (quote listing) (quote ((om-load-inputfun (quote input-funbox) "anything" "DATA" nil))) (om-make-point 102 277) nil nil nil nil 3))) (when (fboundp (quote set-active)) (set-active box nil)) box) (let ((box (om-load-boxcall (quote bastype) "aux" (quote t) (quote nil) (om-make-point 94 178) (om-make-point 30 28) 0 "0" nil))) (when (fboundp (quote set-active)) (set-active box nil)) box) (let ((box (om-load-boxcall (quote genfun) "OM-" (quote om-) (quote ((om-load-inputfun (quote input-funbox) "number or list" "FIRST-ARG" 0) (om-load-inputfun (quote input-funbox) "number or list" "SECOND-ARG" 0))) (om-make-point 110 211) nil nil nil nil 1))) (when (fboundp (quote set-active)) (set-active box nil)) box) (let ((box (om-load-boxin "input" 0 (om-make-point 130 36) "" nil nil nil))) (when (fboundp (quote set-active)) (set-active box nil)) box) (let ((box (om-load-boxcall (quote genfun) "inlist" (quote listloop) (quote ((om-load-inputfun (quote input-funbox) "list to iterate" "LIST" nil))) (om-make-point 126 112) nil nil nil nil 1))) (when (fboundp (quote set-active)) (set-active box nil)) box) (let ((box (om-load-seqbox "finally" (quote finaldo) (quote ((om-load-inputfun (quote input-funbox) "value to return" "VAL" nil))) (om-make-point 164 342) nil nil nil 0))) (when (fboundp (quote set-active)) (set-active box nil)) box) (let ((box (om-load-seqbox "eachTime" (quote loopdo) (quote ((om-load-inputfun (quote input-funbox) "operations to do" "OP" nil))) (om-make-point 64 342) nil nil nil 0))) (when (fboundp (quote set-active)) (set-active box nil)) box)) (quote ((5 0 3 0 nil 0) (4 0 5 0 nil 0) (7 0 5 1 nil 0) (6 0 7 0 nil 0) (3 1 8 0 nil 0) (3 0 9 0 nil 0))) 1 "omloop" nil))) (when (fboundp (quote set-active)) (set-active box nil)) box))) (quote ((0 0 1 0 nil 0))) 7.06 nil "" (om-make-point 200 200) (om-make-point 400 500)) (quote nil) (om-make-point 105 133) nil nil nil nil))) (when (fboundp (quote set-active)) (set-active box nil)) box) (let ((box (om-load-boxcall (quote abstraction) "advanced - using forloop" (om-load-patch-abs1 "advanced - using forloop" (quote ((let ((box (om-load-boxcomment "comment 3" (om-make-point 248 148) (quote "this patch generates a random series of 50 notes in C Lydian-Mixolydian Mode, and it goes through each of the 50 notes, and groups one note and two notes ahead of the note to form a chord. (i.e. Chord 1 = Notes 1, 2, 3; Chord 2 = Notes 2, 3, 4; Chord 3 = Notes 3, 4, 5, etc.)") nil (om-make-point 43 549) nil (om-make-color 0 0 0) (om-make-font "Courier New" 12.0D0 :family "Courier New" :style (quote (:bold)) :mode (quote nil))))) (when (fboundp (quote set-active)) (set-active box nil)) box) (let ((box (om-load-boxcomment "comment 2" (om-make-point 245 78) (quote "nth is a lisp function that returns the nth value within a list, 0 being the first item of the list)") nil (om-make-point 110 211) nil (om-make-color 0 0 0) (om-make-font "Courier New" 12.0D0 :family "Courier New" :style (quote (:bold)) :mode (quote nil))))) (when (fboundp (quote set-active)) (set-active box nil)) box) (let ((box (om-load-boxcomment "comment" (om-make-point 288 62) (quote "length is a lisp function that returns the length of a list (how many items are there in this list?)") nil (om-make-point 95 46) nil (om-make-color 0 0 0) (om-make-font "Courier New" 12.0D0 :family "Courier New" :style (quote (:bold)) :mode (quote nil))))) (when (fboundp (quote set-active)) (set-active box nil)) box) (let ((box (om-load-editor-box1 "CHORD-SEQ" (quote chord-seq) (quote ((om-load-inputfun (quote input-funbox) "object" "self" nil) (om-load-inputfun (quote input-funbox) "pitches (mc): list or list of lists" "lmidic" (list 6000)) (om-load-inputfun (quote input-funbox) "onsets (ms): list" "lonset" (list 0 1000)) (om-load-inputfun (quote input-funbox) "durations (ms): list or list of lists" "ldur" (list 1000)) (om-load-inputfun (quote input-funbox) "velocities (0-127): list or list of lists" "lvel" (list 100)) (om-load-inputfun (quote input-funbox) "offsets (ms): list or list of lists" "loffset" (list 0)) (om-load-inputfun (quote input-funbox) "MIDI channels (1-16): list or list of lists" "lchan" (list 1)) (om-load-inputfun (quote input-funbox) "relative chords duration (0-100)" "legato" 0))) (om-make-point 377 544) (om-make-point 130 70) (let ((newobj (when (find-class (quote chord-seq) nil) (make-instance (quote chord-seq) :lmidic (quote ((6600 6000 6700) (6000 6700 6900) (6700 6900 6400) (6900 6400 7000) (6400 7000 6400) (7000 6400 6600) (6400 6600 6700) (6600 6700 6200) (6700 6200 6600) (6200 6600 6000))) :lonset (quote (0 1000 2000 3000 4000 5000 6000 7000 8000 9000 10000)) :ldur (quote ((1000 1000 1000) (1000 1000 1000) (1000 1000 1000) (1000 1000 1000) (1000 1000 1000) (1000 1000 1000) (1000 1000 1000) (1000 1000 1000) (1000 1000 1000) (1000 1000 1000))) :lvel (quote ((100 100 100) (100 100 100) (100 100 100) (100 100 100) (100 100 100) (100 100 100) (100 100 100) (100 100 100) (100 100 100) (100 100 100))) :loffset (quote ((0 0 0) (0 0 0) (0 0 0) (0 0 0) (0 0 0) (0 0 0) (0 0 0) (0 0 0) (0 0 0) (0 0 0))) :lchan (quote ((1 1 1) (1 1 1) (1 1 1) (1 1 1) (1 1 1) (1 1 1) (1 1 1) (1 1 1) (1 1 1) (1 1 1))) :legato 0)))) (load-port-info newobj (quote ((0 0 0) (0 0 0) (0 0 0) (0 0 0) (0 0 0) (0 0 0) (0 0 0) (0 0 0) (0 0 0) (0 0 0)))) (init-mus-color newobj (quote nil)) (set-extra-pairs newobj (quote nil)) (set-patch-pairs newobj (quote ((nil (om-load-patch-abs1 "patch" (quote nil) (quote nil) 7.06 nil "" (om-make-point 200 200) (om-make-point 400 500)))))) (set-name newobj nil) (set-tonalite newobj nil) newobj) nil nil (pairlis (quote (measure onset scale show-stems cursor-mode obj-mode score-mode winpos winsize mode grillestep notechancolor? zoom player inport outport deltapict cmnpref staff fontsize approx)) (list 1 0 nil (quote t) (quote :normal) 1 0 (om-make-point 400 38) (om-make-point 727 284) 0 1000 nil 1 (quote :fluidsynth) nil nil (om-make-point 0 0) (let ((newobj (make-instance (quote edition-values)))) (setf (paper-size newobj) (om-make-point 600 800)) (setf (top-margin newobj) 2) (setf (left-margin newobj) 1) (setf (right-margin newobj) 1) (setf (bottom-margin newobj) 1) (setf (orientation newobj) nil) (setf (scale newobj) nil) (setf (system-space newobj) (quote (1))) (setf (system-color newobj) (quote nil)) (setf (line-space newobj) 1) (setf (title newobj) nil) (setf (show-title? newobj) nil) (setf (show-page? newobj) nil) (setf (sheet-id newobj) nil) (setf (page-mode newobj) nil) newobj) (quote g) 24 2)) nil nil nil nil (quote nil)))) (when (fboundp (quote set-active)) (set-active box nil)) box) (let ((box (om-load-editor-box1 "CHORD-SEQ" (quote chord-seq) (quote ((om-load-inputfun (quote input-funbox) "object" "self" nil) (om-load-inputfun (quote input-funbox) "pitches (mc): list or list of lists" "lmidic" (list 6000)) (om-load-inputfun (quote input-funbox) "onsets (ms): list" "lonset" (list 0 1000)) (om-load-inputfun (quote input-funbox) "durations (ms): list or list of lists" "ldur" (list 1000)) (om-load-inputfun (quote input-funbox) "velocities (0-127): list or list of lists" "lvel" (list 100)) (om-load-inputfun (quote input-funbox) "offsets (ms): list or list of lists" "loffset" (list 0)) (om-load-inputfun (quote input-funbox) "MIDI channels (1-16): list or list of lists" "lchan" (list 1)) (om-load-inputfun (quote input-funbox) "relative chords duration (0-100)" "legato" 0))) (om-make-point 378 356) (om-make-point 130 70) (let ((newobj (when (find-class (quote chord-seq) nil) (make-instance (quote chord-seq) :lmidic (quote ((6600) (6000) (6700) (6900) (6400) (7000) (6400) (6600) (6700) (6200))) :lonset (quote (0 1000 2000 3000 4000 5000 6000 7000 8000 9000 10000)) :ldur (quote ((1000) (1000) (1000) (1000) (1000) (1000) (1000) (1000) (1000) (1000))) :lvel (quote ((100) (100) (100) (100) (100) (100) (100) (100) (100) (100))) :loffset (quote ((0) (0) (0) (0) (0) (0) (0) (0) (0) (0))) :lchan (quote ((1) (1) (1) (1) (1) (1) (1) (1) (1) (1))) :legato 0)))) (load-port-info newobj (quote ((0) (0) (0) (0) (0) (0) (0) (0) (0) (0)))) (init-mus-color newobj (quote nil)) (set-extra-pairs newobj (quote nil)) (set-patch-pairs newobj (quote ((nil (om-load-patch-abs1 "patch" (quote nil) (quote nil) 7.06 nil "" (om-make-point 200 200) (om-make-point 400 500)))))) (set-name newobj nil) (set-tonalite newobj nil) newobj) "x" nil (pairlis (quote (measure onset scale show-stems cursor-mode obj-mode score-mode winpos winsize mode grillestep notechancolor? zoom player inport outport deltapict cmnpref staff fontsize approx)) (list 1 0 nil (quote t) (quote :normal) 1 0 (om-make-point 170 340) (om-make-point 612 386) 0 1000 nil 1 (quote :midi-player) nil nil (om-make-point 0 0) (let ((newobj (make-instance (quote edition-values)))) (setf (paper-size newobj) (om-make-point 600 800)) (setf (top-margin newobj) 2) (setf (left-margin newobj) 1) (setf (right-margin newobj) 1) (setf (bottom-margin newobj) 1) (setf (orientation newobj) nil) (setf (scale newobj) nil) (setf (system-space newobj) (quote (1))) (setf (system-color newobj) (quote nil)) (setf (line-space newobj) 1) (setf (title newobj) nil) (setf (show-title? newobj) nil) (setf (show-page? newobj) nil) (setf (sheet-id newobj) nil) (setf (page-mode newobj) nil) newobj) (quote g) 24 2)) nil nil nil nil (quote nil)))) (when (fboundp (quote set-active)) (set-active box nil)) box) (let ((box (om-load-boxcall (quote lispfun) "NTH" (quote nth) (quote ((om-load-inputfun (quote input-funbox) "ORIG-N" "ORIG-N" nil) (om-load-inputfun (quote input-funbox) "ORIG-LIST" "ORIG-LIST" nil))) (om-make-point 380 211) nil nil nil nil 1))) (when (fboundp (quote set-active)) (set-active box nil)) box) (let ((box (om-load-boxcall (quote bastype) "aux 2" (quote t) (quote nil) (om-make-point 443 87) (om-make-point 27 30) 1 "1" nil))) (when (fboundp (quote set-active)) (set-active box nil)) box) (let ((box (om-load-boxcall (quote genfun) "OM-" (quote om-) (quote ((om-load-inputfun (quote input-funbox) "number or list" "FIRST-ARG" 1) (om-load-inputfun (quote input-funbox) "number or list" "SECOND-ARG" 0))) (om-make-point 417 119) nil nil nil nil 1))) (when (fboundp (quote set-active)) (set-active box nil)) box) (let ((box (om-load-boxcall (quote lispfun) "LENGTH" (quote length) (quote ((om-load-inputfun (quote input-funbox) "SEQUENCE" "SEQUENCE" nil))) (om-make-point 390 70) nil nil nil nil 1))) (when (fboundp (quote set-active)) (set-active box nil)) box) (let ((box (om-load-editor-box1 "CHORD-SEQ 2" (quote chord-seq) (quote ((om-load-inputfun (quote input-funbox) "object" "self" nil) (om-load-inputfun (quote input-funbox) "pitches (mc): list or list of lists" "lmidic" (list 6000)) (om-load-inputfun (quote input-funbox) "onsets (ms): list" "lonset" (list 0 1000)) (om-load-inputfun (quote input-funbox) "durations (ms): list or list of lists" "ldur" (list 1000)) (om-load-inputfun (quote input-funbox) "velocities (0-127): list or list of lists" "lvel" (list 100)) (om-load-inputfun (quote input-funbox) "offsets (ms): list or list of lists" "loffset" (list 0)) (om-load-inputfun (quote input-funbox) "MIDI channels (1-16): list or list of lists" "lchan" (list 1)) (om-load-inputfun (quote input-funbox) "relative chords duration (0-100)" "legato" 0))) (om-make-point 493 0) (om-make-point 130 70) (let ((newobj (when (find-class (quote chord-seq) nil) (make-instance (quote chord-seq) :lmidic (quote ((6000) (6200) (6400) (6600) (6700) (6900) (7000) (7200))) :lonset (quote (0 431 875 1347 1681 2097 2542 2917 3917)) :ldur (quote ((1000) (1000) (1000) (1000) (1000) (1000) (1000) (1000))) :lvel (quote ((100) (100) (100) (100) (100) (100) (100) (100))) :loffset (quote ((0) (0) (0) (0) (0) (0) (0) (0))) :lchan (quote ((1) (1) (1) (1) (1) (1) (1) (1))) :legato 0)))) (load-port-info newobj (quote ((0) (0) (0) (0) (0) (0) (0) (0)))) (init-mus-color newobj (quote nil)) (set-extra-pairs newobj (quote nil)) (set-patch-pairs newobj (quote ((nil (om-load-patch-abs1 "patch" (quote nil) (quote nil) 7.06 nil "" (om-make-point 200 200) (om-make-point 400 500)))))) (set-name newobj nil) (set-tonalite newobj nil) newobj) "x" nil (pairlis (quote (measure onset scale show-stems cursor-mode obj-mode score-mode winpos winsize mode grillestep notechancolor? zoom player inport outport deltapict cmnpref staff fontsize approx)) (list 1 0 nil (quote t) (quote :normal) 1 0 (om-make-point 400 38) (om-make-point 370 280) 0 1000 nil 1 (quote :midi-player) nil nil (om-make-point 0 0) (let ((newobj (make-instance (quote edition-values)))) (setf (paper-size newobj) (om-make-point 600 800)) (setf (top-margin newobj) 2) (setf (left-margin newobj) 1) (setf (right-margin newobj) 1) (setf (bottom-margin newobj) 1) (setf (orientation newobj) nil) (setf (scale newobj) nil) (setf (system-space newobj) (quote (1))) (setf (system-color newobj) (quote nil)) (setf (line-space newobj) 1) (setf (title newobj) nil) (setf (show-title? newobj) nil) (setf (show-page? newobj) nil) (setf (sheet-id newobj) nil) (setf (page-mode newobj) nil) newobj) (quote g) 24 2)) nil nil nil nil (quote nil)))) (when (fboundp (quote set-active)) (set-active box nil)) box) (let ((box (om-load-boxcall (quote genfun) "OM-RANDOM" (quote om-random) (quote ((om-load-inputfun (quote input-funbox) "min" "LOW" 0) (om-load-inputfun (quote input-funbox) "max" "HIGH" 1))) (om-make-point 346 151) nil nil nil nil 1))) (when (fboundp (quote set-active)) (set-active box nil)) box) (let ((box (om-load-boxcall (quote bastype) "aux 4" (quote t) (quote nil) (om-make-point 350 115) (om-make-point 27 30) 0 "0" nil))) (when (fboundp (quote set-active)) (set-active box nil)) box) (let ((box (om-load-boxcall (quote bastype) "aux" (quote t) (quote nil) (om-make-point 442 242) (om-make-point 34 30) 50 "50" nil))) (when (fboundp (quote set-active)) (set-active box nil)) box) (let ((box (om-load-boxcall (quote genfun) "REPEAT-N" (quote repeat-n) (quote ((om-load-inputfun (quote input-funbox) "something" "SELF" nil) (om-load-inputfun (quote input-funbox) "times" "N" 0))) (om-make-point 377 283) nil nil nil nil 1))) (when (fboundp (quote set-active)) (set-active box nil)) box) (let ((box (om-load-boxwithed1 (quote box-with-win) "omloop" (quote omloop) (quote ((om-load-inputfun (quote input-funbox) "" "input0" nil) (om-load-inputfun (quote input-funbox) "" "input" nil))) (om-make-point 384 456) nil nil nil (list (let ((box (om-load-boxcomment "comment 2" (om-make-point 236 179) (quote "these index+1 and index+2 subpatches are there so that the index number would not exceed the overall length of the list of chords. If it exceeds, the number goes back to the beginning of the list. see inside the subpatch to see how I accomplished it.") nil (om-make-point 560 210) nil (om-make-color 0 0 0) (om-make-font "Courier New" 12.0D0 :family "Courier New" :style (quote (:bold)) :mode (quote nil))))) (when (fboundp (quote set-active)) (set-active box nil)) box) (let ((box (om-load-boxcomment "comment" (om-make-point 255 91) (quote "forloop produces numbers ranging from the number specified into the left inlet up or down to the number into the right inlet.") nil (om-make-point 1 368) nil (om-make-color 0 0 0) (om-make-font "Courier New" 12.0D0 :family "Courier New" :style (quote (:bold)) :mode (quote nil))))) (when (fboundp (quote set-active)) (set-active box nil)) box) (let ((box (om-load-boxcall (quote abstraction) "index+1" (om-load-patch-abs1 "index+1" (quote ((let ((box (om-load-boxcall (quote bastype) "aux" (quote t) (quote nil) (om-make-point 304 110) (om-make-point 27 30) 1 "1" nil))) (when (fboundp (quote set-active)) (set-active box nil)) box) (let ((box (om-load-boxcall (quote genfun) "OM+ 2" (quote om+) (quote ((om-load-inputfun (quote input-funbox) "number or list" "SELF" 0) (om-load-inputfun (quote input-funbox) "number or list" "NUM" 0))) (om-make-point 289 142) (om-make-point 30 35) nil nil nil 1))) (when (fboundp (quote set-active)) (set-active box nil)) box) (let ((box (om-load-boxout "output" 0 (om-make-point 251 331) (quote ((om-load-inputfun (quote input-funbox) "" "out" nil))) nil nil))) (when (fboundp (quote set-active)) (set-active box nil)) box) (let ((box (om-load-boxin "input 2" 1 (om-make-point 208 53) "" nil nil nil))) (when (fboundp (quote set-active)) (set-active box nil)) box) (let ((box (om-load-boxin "input" 0 (om-make-point 124 54) "" nil nil nil))) (when (fboundp (quote set-active)) (set-active box nil)) box) (let ((box (om-load-boxcall (quote genfun) "OMIF" (quote omif) (quote ((om-load-inputfun (quote input-funbox) "IF" "TEST" nil) (om-load-inputfun (quote input-funbox) "THEN" "ACTION" nil) (om-load-inputfun (quote input-funbox) "ELSE" "ELSE" nil))) (om-make-point 128 268) (om-make-point 304 57) nil nil nil 1))) (when (fboundp (quote set-active)) (set-active box nil)) box) (let ((box (om-load-boxcall (quote genfun) "OM- 2" (quote om-) (quote ((om-load-inputfun (quote input-funbox) "number or list" "FIRST-ARG" 0) (om-load-inputfun (quote input-funbox) "number or list" "SECOND-ARG" 0))) (om-make-point 261 197) (om-make-point 42 35) nil nil nil 1))) (when (fboundp (quote set-active)) (set-active box nil)) box) (let ((box (om-load-boxcall (quote genfun) "OM>" (quote om>) (quote ((om-load-inputfun (quote input-funbox) "a number" "NUM1" 0) (om-load-inputfun (quote input-funbox) "a number" "NUM2" 1))) (om-make-point 186 226) (om-make-point 37 35) nil nil nil 1))) (when (fboundp (quote set-active)) (set-active box nil)) box) (let ((box (om-load-boxcall (quote genfun) "OM+" (quote om+) (quote ((om-load-inputfun (quote input-funbox) "number or list" "SELF" 0) (om-load-inputfun (quote input-funbox) "number or list" "NUM" 0))) (om-make-point 178 158) (om-make-point 39 35) nil nil nil 1))) (when (fboundp (quote set-active)) (set-active box nil)) box) (let ((box (om-load-boxcall (quote bastype) "aux 2" (quote t) (quote nil) (om-make-point 187 120) (om-make-point 27 30) 1 "1" nil))) (when (fboundp (quote set-active)) (set-active box nil)) box))) (quote ((3 0 1 0 nil 0) (0 0 1 1 nil 0) (5 0 2 0 nil 0) (7 0 5 0 nil 0) (6 0 5 1 nil 0) (8 0 5 2 nil 0) (8 0 6 0 nil 0) (1 0 6 1 nil 0) (8 0 7 0 nil 0) (3 0 7 1 nil 0) (4 0 8 0 nil 0) (9 0 8 1 nil 0))) 7.06 nil "" (om-make-point 524 188) (om-make-point 500 400)) (quote ((om-load-inputfun (quote input-funbox) "" "input" nil) (om-load-inputfun (quote input-funbox) "" "input 2" nil))) (om-make-point 387 1721/5) nil nil nil "index+1"))) (when (fboundp (quote set-active)) (set-active box nil)) box) (let ((box (om-load-boxcall (quote abstraction) "index+2" (om-load-patch-abs1 "index+2" (quote ((let ((box (om-load-boxcall (quote genfun) "OM+ 2" (quote om+) (quote ((om-load-inputfun (quote input-funbox) "number or list" "SELF" 0) (om-load-inputfun (quote input-funbox) "number or list" "NUM" 0))) (om-make-point 292 154) (om-make-point 30 35) nil nil nil 1))) (when (fboundp (quote set-active)) (set-active box nil)) box) (let ((box (om-load-boxcall (quote bastype) "aux" (quote t) (quote nil) (om-make-point 307 122) (om-make-point 27 30) 1 "1" nil))) (when (fboundp (quote set-active)) (set-active box nil)) box) (let ((box (om-load-boxout "output" 0 (om-make-point 251 331) (quote ((om-load-inputfun (quote input-funbox) "" "out" nil))) nil nil))) (when (fboundp (quote set-active)) (set-active box nil)) box) (let ((box (om-load-boxin "input 2" 1 (om-make-point 208 53) "" nil nil nil))) (when (fboundp (quote set-active)) (set-active box nil)) box) (let ((box (om-load-boxin "input" 0 (om-make-point 124 54) "" nil nil nil))) (when (fboundp (quote set-active)) (set-active box nil)) box) (let ((box (om-load-boxcall (quote genfun) "OMIF" (quote omif) (quote ((om-load-inputfun (quote input-funbox) "IF" "TEST" nil) (om-load-inputfun (quote input-funbox) "THEN" "ACTION" nil) (om-load-inputfun (quote input-funbox) "ELSE" "ELSE" nil))) (om-make-point 128 268) (om-make-point 304 57) nil nil nil 1))) (when (fboundp (quote set-active)) (set-active box nil)) box) (let ((box (om-load-boxcall (quote genfun) "OM- 2" (quote om-) (quote ((om-load-inputfun (quote input-funbox) "number or list" "FIRST-ARG" 0) (om-load-inputfun (quote input-funbox) "number or list" "SECOND-ARG" 0))) (om-make-point 261 197) (om-make-point 42 35) nil nil nil 1))) (when (fboundp (quote set-active)) (set-active box nil)) box) (let ((box (om-load-boxcall (quote genfun) "OM>" (quote om>) (quote ((om-load-inputfun (quote input-funbox) "a number" "NUM1" 0) (om-load-inputfun (quote input-funbox) "a number" "NUM2" 1))) (om-make-point 186 226) (om-make-point 37 35) nil nil nil 1))) (when (fboundp (quote set-active)) (set-active box nil)) box) (let ((box (om-load-boxcall (quote genfun) "OM+" (quote om+) (quote ((om-load-inputfun (quote input-funbox) "number or list" "SELF" 0) (om-load-inputfun (quote input-funbox) "number or list" "NUM" 0))) (om-make-point 178 159) (om-make-point 39 35) nil nil nil 1))) (when (fboundp (quote set-active)) (set-active box nil)) box) (let ((box (om-load-boxcall (quote bastype) "aux 2" (quote t) (quote nil) (om-make-point 190 120) (om-make-point 27 30) 2 "2" nil))) (when (fboundp (quote set-active)) (set-active box nil)) box))) (quote ((3 0 0 0 nil 0) (1 0 0 1 nil 0) (5 0 2 0 nil 0) (7 0 5 0 nil 0) (6 0 5 1 nil 0) (8 0 5 2 nil 0) (8 0 6 0 nil 0) (0 0 6 1 nil 0) (8 0 7 0 nil 0) (3 0 7 1 nil 0) (4 0 8 0 nil 0) (9 0 8 1 nil 0))) 7.06 nil "" (om-make-point 200 200) (om-make-point 500 400)) (quote ((om-load-inputfun (quote input-funbox) "" "input" nil) (om-load-inputfun (quote input-funbox) "" "input 2" nil))) (om-make-point 472 1706/5) nil nil nil "index+2"))) (when (fboundp (quote set-active)) (set-active box nil)) box) (let ((box (om-load-boxcall (quote bastype) "aux 5" (quote t) (quote nil) (om-make-point 460 140) (om-make-point 27 30) 1 "1" nil))) (when (fboundp (quote set-active)) (set-active box nil)) box) (let ((box (om-load-boxcall (quote genfun) "OM- 3" (quote om-) (quote ((om-load-inputfun (quote input-funbox) "number or list" "FIRST-ARG" 0) (om-load-inputfun (quote input-funbox) "number or list" "SECOND-ARG" 0))) (om-make-point 440 200) (om-make-point 35 35) nil nil nil 1))) (when (fboundp (quote set-active)) (set-active box nil)) box) (let ((box (om-load-boxcall (quote bastype) "aux 4" (quote t) (quote nil) (om-make-point 65 149) (om-make-point 27 30) 0 "0" nil))) (when (fboundp (quote set-active)) (set-active box nil)) box) (let ((box (om-load-boxcall (quote bastype) "aux 3" (quote t) (quote nil) (om-make-point 153 106) (om-make-point 27 30) 1 "1" nil))) (when (fboundp (quote set-active)) (set-active box nil)) box) (let ((box (om-load-boxcall (quote genfun) "OM-" (quote om-) (quote ((om-load-inputfun (quote input-funbox) "number or list" "FIRST-ARG" 0) (om-load-inputfun (quote input-funbox) "number or list" "SECOND-ARG" 0))) (om-make-point 134 143) nil nil nil nil 1))) (when (fboundp (quote set-active)) (set-active box nil)) box) (let ((box (om-load-boxcall (quote lispfun) "LENGTH 2" (quote length) (quote ((om-load-inputfun (quote input-funbox) "SEQUENCE" "SEQUENCE" nil))) (om-make-point 420 140) nil nil nil nil 1))) (when (fboundp (quote set-active)) (set-active box nil)) box) (let ((box (om-load-boxcall (quote genfun) "collect" (quote listing) (quote ((om-load-inputfun (quote input-funbox) "anything" "DATA" nil))) (om-make-point 432 558) nil nil nil nil 3))) (when (fboundp (quote set-active)) (set-active box nil)) box) (let ((box (om-load-boxcall (quote lispfun) "NTH 3" (quote nth) (quote ((om-load-inputfun (quote input-funbox) "ORIG-N" "ORIG-N" nil) (om-load-inputfun (quote input-funbox) "ORIG-LIST" "ORIG-LIST" nil))) (om-make-point 320 440) nil nil nil nil 1))) (when (fboundp (quote set-active)) (set-active box nil)) box) (let ((box (om-load-boxcall (quote lispfun) "NTH 2" (quote nth) (quote ((om-load-inputfun (quote input-funbox) "ORIG-N" "ORIG-N" nil) (om-load-inputfun (quote input-funbox) "ORIG-LIST" "ORIG-LIST" nil))) (om-make-point 580 440) nil nil nil nil 1))) (when (fboundp (quote set-active)) (set-active box nil)) box) (let ((box (om-load-boxcall (quote lispfun) "NTH" (quote nth) (quote ((om-load-inputfun (quote input-funbox) "ORIG-N" "ORIG-N" nil) (om-load-inputfun (quote input-funbox) "ORIG-LIST" "ORIG-LIST" nil))) (om-make-point 440 440) nil nil nil nil 1))) (when (fboundp (quote set-active)) (set-active box nil)) box) (let ((box (om-load-boxcall (quote genfun) "X-APPEND" (quote x-append) (quote ((om-load-inputfun (quote input-funbox) "first element" "L1?" nil) (om-load-inputfun (quote input-funbox) "second element" "L2?" nil) (om-load-inputfun (quote input-funbox) "additional elements" "LST?" nil))) (om-make-point 221 489) (om-make-point 465 59) nil nil nil 1))) (when (fboundp (quote set-active)) (set-active box nil)) box) (let ((box (om-load-boxin "input" 1 (om-make-point 306 47) "" nil nil nil))) (when (fboundp (quote set-active)) (set-active box nil)) box) (let ((box (om-load-boxcall (quote lispfun) "LENGTH" (quote length) (quote ((om-load-inputfun (quote input-funbox) "SEQUENCE" "SEQUENCE" nil))) (om-make-point 100 101) nil nil nil nil 1))) (when (fboundp (quote set-active)) (set-active box nil)) box) (let ((box (om-load-boxcall (quote genfun) "for" (quote forloop) (quote ((om-load-inputfun (quote input-funbox) "low value" "FROM" 0) (om-load-inputfun (quote input-funbox) "high value" "TO" 10))) (om-make-point 92 179) nil nil nil nil 1))) (when (fboundp (quote set-active)) (set-active box nil)) box) (let ((box (om-load-boxin "input0" 0 (om-make-point 111 38) "" nil nil nil))) (when (fboundp (quote set-active)) (set-active box nil)) box) (let ((box (om-load-seqbox "finally" (quote finaldo) (quote ((om-load-inputfun (quote input-funbox) "value to return" "VAL" nil))) (om-make-point 494 665) nil nil nil 0))) (when (fboundp (quote set-active)) (set-active box nil)) box) (let ((box (om-load-seqbox "eachTime" (quote loopdo) (quote ((om-load-inputfun (quote input-funbox) "operations to do" "OP" nil))) (om-make-point 372 666) nil nil nil 0))) (when (fboundp (quote set-active)) (set-active box nil)) box)) (quote ((17 0 2 0 nil 0) (5 0 2 1 nil 0) (17 0 3 0 nil 0) (5 0 3 1 nil 0) (9 0 5 0 nil 0) (4 0 5 1 nil 0) (16 0 8 0 nil 0) (7 0 8 1 nil 0) (15 0 9 0 nil 0) (14 0 10 0 nil 0) (17 0 11 0 nil 0) (15 0 11 1 nil 0) (3 0 12 0 nil 0) (15 0 12 1 nil 0) (2 0 13 0 nil 0) (15 0 13 1 nil 0) (11 0 14 0 nil 0) (13 0 14 1 nil 0) (12 0 14 2 nil 0) (18 0 16 0 nil 0) (6 0 17 0 nil 0) (8 0 17 1 nil 0) (10 1 19 0 nil 0) (10 0 20 0 nil 0))) 1 "omloop" nil))) (when (fboundp (quote set-active)) (set-active box nil)) box))) (quote ((14 0 3 1 nil 0) (13 0 4 1 nil 0) (10 0 5 0 nil 0) (9 1 5 1 nil 0) (8 0 7 0 nil 0) (6 0 7 1 nil 0) (9 1 8 0 nil 0) (11 0 10 0 nil 0) (7 0 10 1 nil 0) (5 0 13 0 nil 0) (12 0 13 1 nil 0) (4 1 14 0 nil 0) (4 1 14 1 nil 0))) 7.06 nil "" (om-make-point 841 201) (om-make-point 782 809)) (quote nil) (om-make-point 51 276) nil nil nil "advanced - using forloop"))) (when (fboundp (quote set-active)) (set-active box nil)) box))) (quote nil) nil 7.06))
