; OM File Header - Saved 2025/06/13 22:54:46
; (7.06 :patc (om-make-point 2381/4 1439/6) (om-make-point 50 50) (om-make-point 1286 981) "" 183 0 nil "2025/06/13 22:54:46")
; End File Header
(in-package :om)(load-lib-for (quote nil))(setf *om-current-persistent* (om-load-patch1 "Final-Version-bpc-realization" (quote ((let ((box (om-load-boxcall (quote bastype) "aux" (quote t) (quote nil) (om-make-point 930 175) (om-make-point 88 30) (list (quote a) (quote b) (quote c) (quote a) (quote b) (quote c)) "(a b c a b c)" nil))) (when (fboundp (quote set-active)) (set-active box nil)) box) (let ((box (om-load-boxcall (quote lispfun) "REMOVE-DUPLICATES" (quote remove-duplicates) (quote ((om-load-inputfun (quote input-funbox) "SEQUENCE" "SEQUENCE" nil))) (om-make-point 879 205) nil nil nil nil 1))) (when (fboundp (quote set-active)) (set-active box nil)) box) (let ((box (om-load-boxwithed1 (quote box-with-win) "x-y-divider" (quote omloop) (quote ((om-load-inputfun (quote input-funbox) "" "input" nil))) (om-make-point 617 286) nil nil nil (list (let ((box (om-load-boxcall (quote genfun) "collect 2" (quote listing) (quote ((om-load-inputfun (quote input-funbox) "anything" "DATA" nil))) (om-make-point 220 229) nil nil nil nil 3))) (when (fboundp (quote set-active)) (set-active box nil)) box) (let ((box (om-load-boxcall (quote lispfun) "SECOND" (quote second) (quote ((om-load-inputfun (quote input-funbox) "LIST" "LIST" nil))) (om-make-point 224 155) nil nil nil nil 1))) (when (fboundp (quote set-active)) (set-active box nil)) box) (let ((box (om-load-boxcall (quote lispfun) "FIRST" (quote first) (quote ((om-load-inputfun (quote input-funbox) "LIST" "LIST" nil))) (om-make-point 153 154) nil nil nil nil 1))) (when (fboundp (quote set-active)) (set-active box nil)) box) (let ((box (om-load-boxcall (quote genfun) "inlist" (quote listloop) (quote ((om-load-inputfun (quote input-funbox) "list to iterate" "LIST" nil))) (om-make-point 176 82) nil nil nil nil 1))) (when (fboundp (quote set-active)) (set-active box nil)) box) (let ((box (om-load-boxcall (quote genfun) "collect" (quote listing) (quote ((om-load-inputfun (quote input-funbox) "anything" "DATA" nil))) (om-make-point 128 224) nil nil nil nil 3))) (when (fboundp (quote set-active)) (set-active box nil)) box) (let ((box (om-load-boxin "input" 0 (om-make-point 49 45) "" nil nil nil))) (when (fboundp (quote set-active)) (set-active box nil)) box) (let ((box (om-load-seqbox "finally" (quote finaldo) (quote ((om-load-inputfun (quote input-funbox) "value to return" "VAL" nil) (om-load-inputfun (quote input-funbox) "other values" "MORE" nil))) (om-make-point 214 312) nil nil nil 0))) (when (fboundp (quote set-active)) (set-active box nil)) box) (let ((box (om-load-seqbox "eachTime" (quote loopdo) (quote ((om-load-inputfun (quote input-funbox) "operations to do" "OP" nil) (om-load-inputfun (quote input-funbox) "other oprations" "MORE" nil))) (om-make-point 112 317) nil nil nil 0))) (when (fboundp (quote set-active)) (set-active box nil)) box)) (quote ((1 0 0 0 nil 0) (3 0 1 0 nil 0) (3 0 2 0 nil 0) (5 0 3 0 nil 0) (2 0 4 0 nil 0) (4 1 6 0 nil 0) (0 1 6 1 nil 0) (4 0 7 0 nil 0) (0 0 7 1 nil 0))) 2 "x-y-divider" nil))) (when (fboundp (quote set-active)) (set-active box nil)) box) (let ((box (om-load-boxwithed1 (quote box-with-win) "logistic-equation-bpc" (quote omloop) (quote ((om-load-inputfun (quote input-funbox) "" "input" nil) (om-load-inputfun (quote input-funbox) "" "input 2" nil))) (om-make-point 594 217) nil nil nil (list (let ((box (om-load-boxcall (quote bastype) "aux" (quote t) (quote nil) (om-make-point 563 405) (om-make-point 27 30) 1 "1" nil))) (when (fboundp (quote set-active)) (set-active box nil)) box) (let ((box (om-load-boxcall (quote genfun) "FLAT" (quote flat) (quote ((om-load-inputfun (quote input-funbox) "a list" "LST" nil) (om-load-inputfun (quote input-funbox) "level of parenthesis" "LEVEL" nil))) (om-make-point 495 454) nil nil nil nil 1))) (when (fboundp (quote set-active)) (set-active box nil)) box) (let ((box (om-load-boxcall (quote genfun) "X-APPEND" (quote x-append) (quote ((om-load-inputfun (quote input-funbox) "first element" "L1?" nil) (om-load-inputfun (quote input-funbox) "second element" "L2?" nil))) (om-make-point 301 286) nil nil nil nil 1))) (when (fboundp (quote set-active)) (set-active box nil)) box) (let ((box (om-load-boxcall (quote genfun) "inlist 2" (quote listloop) (quote ((om-load-inputfun (quote input-funbox) "list to iterate" "LIST" nil))) (om-make-point 322 120) nil nil nil nil 1))) (when (fboundp (quote set-active)) (set-active box nil)) box) (let ((box (om-load-boxcall (quote genfun) "inlist" (quote listloop) (quote ((om-load-inputfun (quote input-funbox) "list to iterate" "LIST" nil))) (om-make-point 178 164) nil nil nil nil 1))) (when (fboundp (quote set-active)) (set-active box nil)) box) (let ((box (om-load-boxwithed1 (quote box-with-win) "OMLOOP" (quote omloop) (quote ((om-load-inputfun (quote input-funbox) "" "input0" nil) (om-load-inputfun (quote input-funbox) "" "input" nil))) (om-make-point 391 278) nil nil nil (list (let ((box (om-load-boxin "input" 1 (om-make-point 55 45) "" nil nil nil))) (when (fboundp (quote set-active)) (set-active box nil)) box) (let ((box (om-load-boxcall (quote genfun) "X-APPEND" (quote x-append) (quote ((om-load-inputfun (quote input-funbox) "first element" "L1?" nil) (om-load-inputfun (quote input-funbox) "second element" "L2?" nil))) (om-make-point 215 158) nil nil nil nil 1))) (when (fboundp (quote set-active)) (set-active box nil)) box) (let ((box (om-load-boxcall (quote genfun) "inlist" (quote listloop) (quote ((om-load-inputfun (quote input-funbox) "list to iterate" "LIST" nil))) (om-make-point 250 84) nil nil nil nil 1))) (when (fboundp (quote set-active)) (set-active box nil)) box) (let ((box (om-load-boxcall (quote genfun) "collect" (quote listing) (quote ((om-load-inputfun (quote input-funbox) "anything" "DATA" nil))) (om-make-point 241 227) nil nil nil nil 3))) (when (fboundp (quote set-active)) (set-active box nil)) box) (let ((box (om-load-boxin "input0" 0 (om-make-point 5 40) "" nil nil nil))) (when (fboundp (quote set-active)) (set-active box nil)) box) (let ((box (om-load-seqbox "finally" (quote finaldo) (quote ((om-load-inputfun (quote input-funbox) "value to return" "VAL" nil))) (om-make-point 295 309) nil nil nil 0))) (when (fboundp (quote set-active)) (set-active box nil)) box) (let ((box (om-load-seqbox "eachTime" (quote loopdo) (quote ((om-load-inputfun (quote input-funbox) "operations to do" "OP" nil))) (om-make-point 195 309) nil nil nil 0))) (when (fboundp (quote set-active)) (set-active box nil)) box)) (quote ((0 0 1 0 nil 0) (2 0 1 1 nil 0) (4 0 2 0 nil 0) (1 0 3 0 nil 0) (3 1 5 0 nil 0) (3 0 6 0 nil 0))) 1 "omloop" nil))) (when (fboundp (quote set-active)) (set-active box nil)) box) (let ((box (om-load-boxcall (quote genfun) "collect" (quote listing) (quote ((om-load-inputfun (quote input-funbox) "anything" "DATA" nil))) (om-make-point 328 430) nil nil nil nil 3))) (when (fboundp (quote set-active)) (set-active box nil)) box) (let ((box (om-load-boxin "input 2" 1 (om-make-point 407 68) "" nil nil nil))) (when (fboundp (quote set-active)) (set-active box nil)) box) (let ((box (om-load-boxin "input" 0 (om-make-point 142 70) "" nil nil nil))) (when (fboundp (quote set-active)) (set-active box nil)) box) (let ((box (om-load-boxcall (quote lispfun) "ATOM" (quote atom) (quote ((om-load-inputfun (quote input-funbox) "OBJECT" "OBJECT" nil))) (om-make-point 200 277) nil nil nil nil 1))) (when (fboundp (quote set-active)) (set-active box nil)) box) (let ((box (om-load-boxcall (quote genfun) "OMIF" (quote omif) (quote ((om-load-inputfun (quote input-funbox) "IF" "TEST" nil) (om-load-inputfun (quote input-funbox) "THEN" "ACTION" nil) (om-load-inputfun (quote input-funbox) "ELSE" "ELSE" nil))) (om-make-point 278 352) (om-make-point 113 57) nil nil nil 1))) (when (fboundp (quote set-active)) (set-active box nil)) box) (let ((box (om-load-seqbox "finally" (quote finaldo) (quote ((om-load-inputfun (quote input-funbox) "value to return" "VAL" nil))) (om-make-point 421 512) nil nil nil 0))) (when (fboundp (quote set-active)) (set-active box nil)) box) (let ((box (om-load-seqbox "eachTime" (quote loopdo) (quote ((om-load-inputfun (quote input-funbox) "operations to do" "OP" nil))) (om-make-point 286 500) nil nil nil 0))) (when (fboundp (quote set-active)) (set-active box nil)) box)) (quote ((6 1 1 0 nil 0) (0 0 1 1 nil 0) (3 0 2 0 nil 0) (4 0 2 1 nil 0) (7 0 3 0 nil 0) (8 0 4 0 nil 0) (4 0 5 0 nil 0) (3 0 5 1 nil 0) (10 0 6 0 nil 0) (4 0 9 0 nil 0) (9 0 10 0 nil 0) (2 0 10 1 nil 0) (5 0 10 2 nil 0) (1 0 11 0 nil 0) (6 0 12 0 nil 0))) 1 "logistic-equation-bpc" nil))) (when (fboundp (quote set-active)) (set-active box nil)) box) (let ((box (om-load-editor-box1 "BPC" (quote bpc) (quote ((om-load-inputfun (quote input-funbox) "object" "self" nil) (om-load-inputfun (quote input-funbox) "X coordinates (list)" "x-points" (list 0 100)) (om-load-inputfun (quote input-funbox) "Y coordinates (list)" "y-points" (list 0 100)) (om-load-inputfun (quote input-funbox) "precision (integer) [0 - 10]" "decimals" 0))) (om-make-point 548 365) (om-make-point 240 135) (let ((newobj (when (find-class (quote bpc) nil) (let ((newbpf (simple-bpf-from-list (quote nil) (quote nil) (quote bpc) 0))) (setf (bpfcolor newbpf) (om-make-color 0 0 0)) (set-name newbpf "BPC") newbpf)))) (when newobj) newobj) nil nil (pairlis (quote (picture winpos winsize)) (list nil (om-make-point 883 491) (om-make-point 1280 730))) nil nil nil nil (quote nil)))) (when (fboundp (quote set-active)) (set-active box nil)) box) (let ((box (om-load-boxwithed1 (quote box-with-win) "population-equation-x-voices" (quote omloop) (quote ((om-load-inputfun (quote input-funbox) "" "x-value" nil) (om-load-inputfun (quote input-funbox) "" "list-of-r-values-smaller-than-4" nil) (om-load-inputfun (quote input-funbox) "" "initializing-value" nil) (om-load-inputfun (quote input-funbox) "" "multiplicator-for-pitches" nil) (om-load-inputfun (quote input-funbox) "" "how-many-voices" nil))) (om-make-point 65 219) nil nil nil (list (let ((box (om-load-boxcall (quote genfun) "collect" (quote listing) (quote ((om-load-inputfun (quote input-funbox) "anything" "DATA" nil))) (om-make-point 185 339) nil nil nil nil 3))) (when (fboundp (quote set-active)) (set-active box nil)) box) (let ((box (om-load-boxwithed1 (quote box-with-win) "plotter" (quote omloop) (quote ((om-load-inputfun (quote input-funbox) "" "initialized-x-value" nil) (om-load-inputfun (quote input-funbox) "" "how-many-voices" nil) (om-load-inputfun (quote input-funbox) "" "r-value-less-than-4" nil))) (om-make-point 93 267) (om-make-point 128 59) nil nil (list (let ((box (om-load-boxcall (quote genfun) "inlist 2" (quote listloop) (quote ((om-load-inputfun (quote input-funbox) "list to iterate" "LIST" nil))) (om-make-point 177 183) nil nil nil nil 1))) (when (fboundp (quote set-active)) (set-active box nil)) box) (let ((box (om-load-boxcall (quote genfun) "collect" (quote listing) (quote ((om-load-inputfun (quote input-funbox) "anything" "DATA" nil))) (om-make-point 225 345) nil nil nil nil 3))) (when (fboundp (quote set-active)) (set-active box nil)) box) (let ((box (om-load-boxcall (quote genfun) "CREATE-LIST" (quote create-list) (quote ((om-load-inputfun (quote input-funbox) "number of elements" "COUNT" 10) (om-load-inputfun (quote input-funbox) "initial element" "ELEM" nil))) (om-make-point 169 119) nil nil nil nil 1))) (when (fboundp (quote set-active)) (set-active box nil)) box) (let ((box (om-load-boxin "r-value-less-than-4" 2 (om-make-point 289 28) "" "r-value-less-than-4" nil nil))) (when (fboundp (quote set-active)) (set-active box nil)) box) (let ((box (om-load-boxin "how-many-voices" 1 (om-make-point 140 29) "" "how-many-voices" nil nil))) (when (fboundp (quote set-active)) (set-active box nil)) box) (let ((box (om-load-boxin "initialized-x-value" 0 (om-make-point 19 25) "" "initialized-x-value" nil nil))) (when (fboundp (quote set-active)) (set-active box nil)) box) (let ((box (om-load-boxcall (quote genfun) "accum" (quote accumulator) (quote ((om-load-inputfun (quote input-funbox) "items to collect" "DATA" nil) (om-load-inputfun (quote input-funbox) "initial value" "INIT" nil) (om-load-inputfun (quote input-funbox) "accumulation function" "FUN" nil))) (om-make-point 238 276) nil nil nil nil 3))) (when (fboundp (quote set-active)) (set-active box nil)) box) (let ((box (om-load-boxcall (quote abstraction) "logistic-equation" (om-load-patch-abs1 "logistic-equation" (quote ((let ((box (om-load-boxout "output" 0 (om-make-point 217 257) (quote ((om-load-inputfun (quote input-funbox) "" "out" nil))) nil nil))) (when (fboundp (quote set-active)) (set-active box nil)) box) (let ((box (om-load-boxin "R-value" 1 (om-make-point 184 50) "" "R-value" nil nil))) (when (fboundp (quote set-active)) (set-active box nil)) box) (let ((box (om-load-boxin "X-value" 0 (om-make-point 50 50) "" "X-value" nil nil))) (when (fboundp (quote set-active)) (set-active box nil)) box) (let ((box (om-load-boxcall (quote genfun) "OM*" (quote om*) (quote ((om-load-inputfun (quote input-funbox) "number or list" "SELF" 0) (om-load-inputfun (quote input-funbox) "number or list" "NUM" 0))) (om-make-point 112 174) nil nil nil nil 1))) (when (fboundp (quote set-active)) (set-active box nil)) box) (let ((box (om-load-boxcall (quote genfun) "OM-" (quote om-) (quote ((om-load-inputfun (quote input-funbox) "number or list" "FIRST-ARG" 0) (om-load-inputfun (quote input-funbox) "number or list" "SECOND-ARG" 0))) (om-make-point 183 192) nil nil nil nil 1))) (when (fboundp (quote set-active)) (set-active box nil)) box) (let ((box (om-load-boxcall (quote bastype) "aux 3" (quote t) (quote nil) (om-make-point 144 162) (om-make-point 38 30) 1.0 "1.0" nil))) (when (fboundp (quote set-active)) (set-active box nil)) box) (let ((box (om-load-boxcall (quote genfun) "OM* 2" (quote om*) (quote ((om-load-inputfun (quote input-funbox) "number or list" "SELF" 0) (om-load-inputfun (quote input-funbox) "number or list" "NUM" 0))) (om-make-point 133 234) nil nil nil nil 1))) (when (fboundp (quote set-active)) (set-active box nil)) box))) (quote ((6 0 0 0 nil 0) (2 0 3 0 nil 0) (1 0 3 1 nil 0) (5 0 4 0 nil 0) (2 0 4 1 nil 0) (3 0 6 0 nil 0) (4 0 6 1 nil 0))) 7.06 nil "" (om-make-point 200 200) (om-make-point 500 400)) (quote ((om-load-inputfun (quote input-funbox) "" "input" nil) (om-load-inputfun (quote input-funbox) "" "input 2" nil))) (om-make-point 318 359/2) nil (list nil) "l" "logistic-equation"))) (when (fboundp (quote set-active)) (set-active box nil)) box) (let ((box (om-load-seqbox "finally" (quote finaldo) (quote ((om-load-inputfun (quote input-funbox) "value to return" "VAL" nil))) (om-make-point 302 448) nil nil nil 0))) (when (fboundp (quote set-active)) (set-active box nil)) box) (let ((box (om-load-seqbox "eachTime" (quote loopdo) (quote ((om-load-inputfun (quote input-funbox) "operations to do" "OP" nil))) (om-make-point 202 448) nil nil nil 0))) (when (fboundp (quote set-active)) (set-active box nil)) box)) (quote ((2 0 0 0 nil 0) (6 0 1 0 nil 0) (4 0 2 0 nil 0) (3 0 2 1 nil 0) (0 0 6 0 nil 0) (5 0 6 1 nil 0) (7 0 6 2 nil 0) (1 1 8 0 nil 0) (1 0 9 0 nil 0))) 1 "plotter" nil))) (when (fboundp (quote set-active)) (set-active box nil)) box) (let ((box (om-load-boxin "how-many-voices" 4 (om-make-point 489 100) "" "how-many-voices" nil nil))) (when (fboundp (quote set-active)) (set-active box nil)) box) (let ((box (om-load-boxcomment "comment" (om-make-point 139 92) (quote "^^ how many times the initial recursion will take place (100 at least, but more recommended though it'll slow down things considerably)$") "" (om-make-point 331 109) nil (om-make-color 0 0 0) (om-make-font "Verdana" 9.0D0 :family "Verdana" :style (quote (:plain)) :mode (quote nil))))) (when (fboundp (quote set-active)) (set-active box nil)) box) (let ((box (om-load-boxcall (quote genfun) "OM*" (quote om*) (quote ((om-load-inputfun (quote input-funbox) "number or list" "SELF" 0) (om-load-inputfun (quote input-funbox) "number or list" "NUM" 0))) (om-make-point 274 489) (om-make-point 83 35) nil nil nil 1))) (when (fboundp (quote set-active)) (set-active box nil)) box) (let ((box (om-load-boxin "multiplicator-for-pitches" 3 (om-make-point 359 209) "" "multiplicator-for-pitches" nil nil))) (when (fboundp (quote set-active)) (set-active box nil)) box) (let ((box (om-load-boxin "initializing-value" 2 (om-make-point 310 35) "" "initializing-value" nil (om-make-point 98 59)))) (when (fboundp (quote set-active)) (set-active box nil)) box) (let ((box (om-load-boxwithed1 (quote box-with-win) "initializer" (quote omloop) (quote ((om-load-inputfun (quote input-funbox) "" "x-value" nil) (om-load-inputfun (quote input-funbox) "" "init-value" nil) (om-load-inputfun (quote input-funbox) "" "list-of-r-values" nil))) (om-make-point 70 185) nil nil nil (list (let ((box (om-load-boxin "list-of-r-values" 2 (om-make-point 299 41) "" "list-of-r-values" nil nil))) (when (fboundp (quote set-active)) (set-active box nil)) box) (let ((box (om-load-boxin "init-value" 1 (om-make-point 224 41) "" "init-value" nil nil))) (when (fboundp (quote set-active)) (set-active box nil)) box) (let ((box (om-load-boxcall (quote genfun) "inlist" (quote listloop) (quote ((om-load-inputfun (quote input-funbox) "list to iterate" "LIST" nil))) (om-make-point 237 191) nil nil nil nil 1))) (when (fboundp (quote set-active)) (set-active box nil)) box) (let ((box (om-load-boxcall (quote genfun) "CREATE-LIST" (quote create-list) (quote ((om-load-inputfun (quote input-funbox) "number of elements" "COUNT" 1000) (om-load-inputfun (quote input-funbox) "initial element" "ELEM" nil))) (om-make-point 231 116) nil nil nil nil 1))) (when (fboundp (quote set-active)) (set-active box nil)) box) (let ((box (om-load-boxcall (quote genfun) "accum" (quote accumulator) (quote ((om-load-inputfun (quote input-funbox) "items to collect" "DATA" nil) (om-load-inputfun (quote input-funbox) "initial value" "INIT" nil) (om-load-inputfun (quote input-funbox) "accumulation function" "FUN" nil))) (om-make-point 289 267) nil nil nil nil 3))) (when (fboundp (quote set-active)) (set-active box nil)) box) (let ((box (om-load-boxin "x-value" 0 (om-make-point 151 43) "" "x-value" nil (om-make-point 36 59)))) (when (fboundp (quote set-active)) (set-active box nil)) box) (let ((box (om-load-boxcall (quote abstraction) "logistic-equation" (om-load-patch-abs1 "logistic-equation" (quote ((let ((box (om-load-boxout "output" 0 (om-make-point 217 257) (quote ((om-load-inputfun (quote input-funbox) "" "out" nil))) nil nil))) (when (fboundp (quote set-active)) (set-active box nil)) box) (let ((box (om-load-boxin "input 2" 1 (om-make-point 184 50) "" nil nil nil))) (when (fboundp (quote set-active)) (set-active box nil)) box) (let ((box (om-load-boxin "input" 0 (om-make-point 50 50) "" nil nil nil))) (when (fboundp (quote set-active)) (set-active box nil)) box) (let ((box (om-load-boxcall (quote genfun) "OM*" (quote om*) (quote ((om-load-inputfun (quote input-funbox) "number or list" "SELF" 0) (om-load-inputfun (quote input-funbox) "number or list" "NUM" 0))) (om-make-point 112 174) nil nil nil nil 1))) (when (fboundp (quote set-active)) (set-active box nil)) box) (let ((box (om-load-boxcall (quote genfun) "OM-" (quote om-) (quote ((om-load-inputfun (quote input-funbox) "number or list" "FIRST-ARG" 0) (om-load-inputfun (quote input-funbox) "number or list" "SECOND-ARG" 0))) (om-make-point 183 192) nil nil nil nil 1))) (when (fboundp (quote set-active)) (set-active box nil)) box) (let ((box (om-load-boxcall (quote bastype) "aux 3" (quote t) (quote nil) (om-make-point 144 162) (om-make-point 38 30) 1.0 "1.0" nil))) (when (fboundp (quote set-active)) (set-active box nil)) box) (let ((box (om-load-boxcall (quote genfun) "OM* 2" (quote om*) (quote ((om-load-inputfun (quote input-funbox) "number or list" "SELF" 0) (om-load-inputfun (quote input-funbox) "number or list" "NUM" 0))) (om-make-point 133 234) nil nil nil nil 1))) (when (fboundp (quote set-active)) (set-active box nil)) box))) (quote ((6 0 0 0 nil 0) (2 0 3 0 nil 0) (1 0 3 1 nil 0) (5 0 4 0 nil 0) (2 0 4 1 nil 0) (3 0 6 0 nil 0) (4 0 6 1 nil 0))) 7.06 nil "" (om-make-point 200 200) (om-make-point 500 400)) (quote ((om-load-inputfun (quote input-funbox) "" "input" nil) (om-load-inputfun (quote input-funbox) "" "input 2" nil))) (om-make-point 355 379/2) nil (list nil) "l" "logistic-equation"))) (when (fboundp (quote set-active)) (set-active box nil)) box) (let ((box (om-load-seqbox "finally" (quote finaldo) (quote ((om-load-inputfun (quote input-funbox) "value to return" "VAL" nil))) (om-make-point 315 349) nil nil nil 0))) (when (fboundp (quote set-active)) (set-active box nil)) box) (let ((box (om-load-seqbox "eachTime" (quote loopdo) (quote ((om-load-inputfun (quote input-funbox) "operations to do" "OP" nil))) (om-make-point 210 349) nil nil nil 0))) (when (fboundp (quote set-active)) (set-active box nil)) box)) (quote ((3 0 2 0 nil 0) (1 0 3 0 nil 0) (0 0 3 1 nil 0) (2 0 4 0 nil 0) (5 0 4 1 nil 0) (6 0 4 2 nil 0) (4 1 7 0 nil 0) (4 0 8 0 nil 0))) 1 "initializer" nil))) (when (fboundp (quote set-active)) (set-active box nil)) box) (let ((box (om-load-boxcall (quote bastype) "aux" (quote t) (quote nil) (om-make-point 266 372) (om-make-point 27 30) 2 "2" nil))) (when (fboundp (quote set-active)) (set-active box nil)) box) (let ((box (om-load-boxcall (quote genfun) "inlist" (quote listloop) (quote ((om-load-inputfun (quote input-funbox) "list to iterate" "LIST" nil))) (om-make-point 182 118) nil nil nil nil 1))) (when (fboundp (quote set-active)) (set-active box nil)) box) (let ((box (om-load-boxcall (quote genfun) "REMOVE-DUP" (quote remove-dup) (quote ((om-load-inputfun (quote input-funbox) "list" "LIST" (list 1 2 3 4)) (om-load-inputfun (quote input-funbox) "equality test (function or function name)" "TEST" (quote eq)) (om-load-inputfun (quote input-funbox) "an integer" "DEPTH" 1))) (om-make-point 214 422) nil nil nil nil 1))) (when (fboundp (quote set-active)) (set-active box nil)) box) (let ((box (om-load-boxin "list-of-r-values-smaller-than-4" 1 (om-make-point 120 32) "" "list-of-r-values-smaller-than-4" nil nil))) (when (fboundp (quote set-active)) (set-active box nil)) box) (let ((box (om-load-boxin "x-value" 0 (om-make-point 62 35) "" "x-value" nil nil))) (when (fboundp (quote set-active)) (set-active box nil)) box) (let ((box (om-load-seqbox "finally" (quote finaldo) (quote ((om-load-inputfun (quote input-funbox) "value to return" "VAL" nil))) (om-make-point 301 532) nil nil nil 0))) (when (fboundp (quote set-active)) (set-active box nil)) box) (let ((box (om-load-seqbox "eachTime" (quote loopdo) (quote ((om-load-inputfun (quote input-funbox) "operations to do" "OP" nil))) (om-make-point 106 533) nil nil nil 0))) (when (fboundp (quote set-active)) (set-active box nil)) box)) (quote ((1 0 0 0 nil 0) (7 0 1 0 nil 0) (2 0 1 1 nil 0) (9 0 1 2 nil 0) (10 0 4 0 nil 0) (5 0 4 1 nil 0) (12 0 7 0 nil 0) (6 0 7 1 ((om-make-point 357 92) (om-make-point 357 111) (om-make-point 98 112) (om-make-point 98 185)) 0) (9 0 7 2 nil 0) (11 0 9 0 nil 0) (0 1 10 0 nil 0) (8 0 10 2 nil 0) (4 0 13 0 nil 0) (0 0 14 0 nil 0))) 1 "population-equation-x-voices" nil))) (when (fboundp (quote set-active)) (set-active box nil)) box) (let ((box (om-load-boxcall (quote bastype) "aux 25" (quote t) (quote nil) (om-make-point 299 178) (om-make-point 34 30) 15 "15" nil))) (when (fboundp (quote set-active)) (set-active box nil)) box) (let ((box (om-load-boxcall (quote bastype) "aux 24" (quote t) (quote nil) (om-make-point 76 156) (om-make-point 38 30) 0.5 "0.5" nil))) (when (fboundp (quote set-active)) (set-active box nil)) box) (let ((box (om-load-boxcall (quote genfun) "ARITHM-SER 3" (quote arithm-ser) (quote ((om-load-inputfun (quote input-funbox) "begin" "BEGIN" 0) (om-load-inputfun (quote input-funbox) "end " "END" 10) (om-load-inputfun (quote input-funbox) "step" "STEP" 1))) (om-make-point 113 105) nil nil nil nil 1))) (when (fboundp (quote set-active)) (set-active box nil)) box) (let ((box (om-load-boxcall (quote bastype) "aux 23" (quote t) (quote nil) (om-make-point 107 50) (om-make-point 45 30) 2.75 "2.75" nil))) (when (fboundp (quote set-active)) (set-active box nil)) box) (let ((box (om-load-boxcall (quote bastype) "aux 22" (quote t) (quote nil) (om-make-point 138 51) (om-make-point 59 30) 3.9999 "3.9999" nil))) (when (fboundp (quote set-active)) (set-active box nil)) box) (let ((box (om-load-boxcall (quote bastype) "aux 21" (quote t) (quote nil) (om-make-point 194 75) (om-make-point 59 30) 5.0E-4 "0.0005" nil))) (when (fboundp (quote set-active)) (set-active box nil)) box) (let ((box (om-load-boxcall (quote bastype) "aux 20" (quote t) (quote nil) (om-make-point 233 169) (om-make-point 55 30) 10000 "10000" nil))) (when (fboundp (quote set-active)) (set-active box nil)) box) (let ((box (om-load-editor-box1 "CHORD-SEQ 3" (quote chord-seq) (quote ((om-load-inputfun (quote input-funbox) "object" "self" nil) (om-load-inputfun (quote input-funbox) "pitches (mc): list or list of lists" "lmidic" (list 6000)) (om-load-inputfun (quote input-funbox) "onsets (ms): list" "lonset" (list 0 1000)) (om-load-inputfun (quote input-funbox) "durations (ms): list or list of lists" "ldur" (list 1000)) (om-load-inputfun (quote input-funbox) "velocities (0-127): list or list of lists" "lvel" (list 100)) (om-load-inputfun (quote input-funbox) "offsets (ms): list or list of lists" "loffset" (list 0)) (om-load-inputfun (quote input-funbox) "MIDI channels (1-16): list or list of lists" "lchan" (list 1)) (om-load-inputfun (quote input-funbox) "relative chords duration (0-100)" "legato" 0))) (om-make-point 50 365) (om-make-point 438 141) (let ((newobj (when (find-class (quote chord-seq) nil) (make-instance (quote chord-seq) :lmidic (quote ((5000) (5025) (5050) (5074) (5098) (5122) (5146) (5169) (5192) (5215) (5238) (5261) (5283) (5305 5305) (5327) (5349) (5370) (5392) (5413 5413) (5434) (5455) (5475) (5495) (5516) (5536 5536) (5556 5556) (5575 5575) (5595) (5614) (5633) (5652 5652) (5671) (5690) (5708) (5726 5726) (5745) (5763) (5781) (5798) (5816 5816) (5833 5833) (5851) (5868 5868) (5885 5885) (5902 5902) (5918) (5935 5935) (5951 5951) (5968 5968) (5984 5984) (6000 6000) (6016) (6032 6032) (6047 6047) (6063) (6078 6078) (6094 6094) (6109 6109) (6124 6124) (6139 6139) (6154 6154) (6169) (6183 6183) (6198 6198) (6212) (6226) (6241) (6255 6255) (6269 6269) (6283 6283) (6296 6296) (6310 6310) (6324 6324) (6337 6337) (6350 6350) (6364) (6377 6377) (6390 6390) (6403) (6416 6416) (6429 6429) (6441 6441) (6454 6454) (6466 6466) (6479 6479) (6491 6491) (6503 6503) (6516 6516) (6528 6528) (6540 6540 6540 6540 6540 6540 6540) (6552 6552 6552 6552 6552 6552 6552) (6564 6564 6564 6564 6564 6564 6564) (6575 6575 6575 6575 6575 6575 6575) (6587 6587 6587 6587 6587 6587 6587) (6600 6598 6600 6598 6600 6598 6599) (6613 6607 6613 6607 6613 6608 6613) (6630 6613 6630 6614 6629 6615 6628) (6655 6611 6654 6613 6653 6614 6651) (6698 6591 6696 6593 6694 6595 6692) (6772 6536 6770 6538 6767 6541 6765) (6884 6435 6882 6437 6880 6439 6878) (7011 6307 7011 6308 7010 6309 7009) (7127 6183 7127 6184 7127 6184 7127) (7224 6076 7224 6076 7224 6076 7224) (7306 5984 7306 5984 7306 5984 7306) (5902 7377) (5828 7440) (5759 7498) (5696 7551) (5636 7600) (5580 7646) (5527 7689) (5476 7729) (5427 7768) (5380 7805) (5335 7840) (5291 7873) (5249 7905) (5208 7936) (5169 7966) (5130 7995) (5093 8022) (5057 8049) (5021 8075) (4986 8100) (4953 8124) (4920 8148) (4887 8171) (4856 8193) (4825 8215) (4794 8236) (4765 8257 4765 8257) (4735 8277) (4707 8296) (4679 8315) (4651 8334) (4624 8352 4624 8352 4624 8352) (4597 8370 4597 8370) (4571 8388 4571 8388) (4545 8405) (4520 8422 4520 8422) (8438 4495 8438 4495 8438 4495 8438) (8454 4470 8454 4470 8454 4470 8454) (8470 4444 8469 4447 8470 4445 8469) (8492 4404 8478 4439 8492 4406 8479) (8547 4285 8449 4522 8546 4287 8450) (8613 4132 8389 4675 8613 4132 8389) (4786 8659 4029 8348) (4872 8694 3951 8317) (8724 3885 8291 4944 8724 3885 8291) (5009 8750 3828 8269) (5067 8773 3777 8250) (5121 8795 3731 8233) (8815 3688 8217 5171 8815 3688 8217) (8832 3652 8207 5210 8834 3645 8200) (8817 3703 8278 5060 8874 3548 8127) (8808 3738 8333 4945 8899 3488 8086) (8785 3809 8419 4752 8903 3487 8107) (8852 3638 8286 5085 8947 3372 8001) (8968 3323 7965 5818 8735 3968 8592) (8917 3475 8163 5398 8943 3403 8082) (7833 6128 8565 4436 8910 3506 8219) (8829 3744 8479 4670 9010 3228 7913) (8324 5063 9074 3051 7697 6435 8327) (9100 2983 7618 6604 8163 5458 9024) (8355 5016 9125 2915 7538 6775 7976) (9065 3101 7830 6218 8607 4388 9013) (8558 4529 9094 3025 7743 6414 8442) (8916 3557 8434 4861 9193 2731 7305) (8620 4390 9088 3060 7836 6257 8642) (8269 5296 9218 2668 7239 7396 7126) (2792 7467 7018 7764 6440 8506 4716) (4056 8968 3442 8397 5008 9300 2422) (7631 6742 8193 5523 9223 2673 7304) (6572 8425 4962 9349 2275) (7971 6064 8950 3524 8558 4629 9323) (5412 9336 2330 6720 8287 5337 9357) (3247 8266 5403 9364 2246 6567 8500) (7122 7747 6597 8486 4858 9442 1990) (6253 8880 3769 8901 3707 8842 3881) (9380 2211 6545 8593 4595 9438 2017) (5722 9326 2393 6936 8096 5872 9235) (5597 9414 2108 6356 8848 3894 9083) (5047 9574 1562) (1494 4881 9595 1494 4880 9594 1494) (1495 4895 9621 1405 4649 9578 1558) (1562 5086 9647 1314 4406 9514 1786) (4363 9518 1775 5651 9511 1800 5711) (6594 8714 4349 9536 1718 5522 9594) (4014 9347 2376 7046 8097 5993 9341) (9621 1422 4757 9727 1036 3621 9008) (8388 5287 9743 980 3456 8843 4000) (5315 9761 914 3257 8609 4694 9763) (1559 5172 9813 720 2625 7608 7152) (7179 7979 6354 9127 3138 8484 5069) (5425 9804 761 2776 7922 6503 8982) (9664 1285 4435 9774 876 3164 8565) (6332 9221 2852 8094 6125 9422 2161) (3672 9248 2766 7964 6453 9110 3227) (4611 9915 338 1303 4523 9884 457))) :lonset (quote (0 150 300 450 600 750 900 1050 1200 1350 1500 1650 1800 1950 2100 2250 2400 2550 2700 2850 3000 3150 3300 3450 3600 3750 3900 4050 4200 4350 4500 4650 4800 4950 5100 5250 5400 5550 5700 5850 6000 6150 6300 6450 6600 6750 6900 7050 7200 7350 7500 7650 7800 7950 8100 8250 8400 8550 8700 8850 9000 9150 9300 9450 9600 9750 9900 10050 10200 10350 10500 10650 10800 10950 11100 11250 11400 11550 11700 11850 12000 12150 12300 12450 12600 12750 12900 13050 13200 13350 13500 13650 13800 13950 14100 14250 14400 14550 14700 14850 15000 15150 15300 15450 15600 15750 15900 16050 16200 16350 16500 16650 16800 16950 17100 17250 17400 17550 17700 17850 18000 18150 18300 18450 18600 18750 18900 19050 19200 19350 19500 19650 19800 19950 20100 20250 20400 20550 20700 20850 21000 21150 21300 21450 21600 21750 21900 22050 22200 22350 22500 22650 22800 22950 23100 23250 23400 23550 23700 23850 24000 24150 24300 24450 24600 24750 24900 25050 25200 25350 25500 25650 25800 25950 26100 26250 26400 26550 26700 26850 27000 27150 27300 27450 27600 27750 27900 28050 28200 28350 28500 28650 28800 28950 29100 29250 29400 29550 29700 29850 29950)) :ldur (quote ((100) (100) (100) (100) (100) (100) (100) (100) (100) (100) (100) (100) (100) (100 100) (100) (100) (100) (100) (100 100) (100) (100) (100) (100) (100) (100 100) (100 100) (100 100) (100) (100) (100) (100 100) (100) (100) (100) (100 100) (100) (100) (100) (100) (100 100) (100 100) (100) (100 100) (100 100) (100 100) (100) (100 100) (100 100) (100 100) (100 100) (100 100) (100) (100 100) (100 100) (100) (100 100) (100 100) (100 100) (100 100) (100 100) (100 100) (100) (100 100) (100 100) (100) (100) (100) (100 100) (100 100) (100 100) (100 100) (100 100) (100 100) (100 100) (100 100) (100) (100 100) (100 100) (100) (100 100) (100 100) (100 100) (100 100) (100 100) (100 100) (100 100) (100 100) (100 100) (100 100) (100 100 100 100 100 100 100) (100 100 100 100 100 100 100) (100 100 100 100 100 100 100) (100 100 100 100 100 100 100) (100 100 100 100 100 100 100) (100 100 100 100 100 100 100) (100 100 100 100 100 100 100) (100 100 100 100 100 100 100) (100 100 100 100 100 100 100) (100 100 100 100 100 100 100) (100 100 100 100 100 100 100) (100 100 100 100 100 100 100) (100 100 100 100 100 100 100) (100 100 100 100 100 100 100) (100 100 100 100 100 100 100) (100 100 100 100 100 100 100) (100 100) (100 100) (100 100) (100 100) (100 100) (100 100) (100 100) (100 100) (100 100) (100 100) (100 100) (100 100) (100 100) (100 100) (100 100) (100 100) (100 100) (100 100) (100 100) (100 100) (100 100) (100 100) (100 100) (100 100) (100 100) (100 100) (100 100 100 100) (100 100) (100 100) (100 100) (100 100) (100 100 100 100 100 100) (100 100 100 100) (100 100 100 100) (100 100) (100 100 100 100) (100 100 100 100 100 100 100) (100 100 100 100 100 100 100) (100 100 100 100 100 100 100) (100 100 100 100 100 100 100) (100 100 100 100 100 100 100) (100 100 100 100 100 100 100) (100 100 100 100) (100 100 100 100) (100 100 100 100 100 100 100) (100 100 100 100) (100 100 100 100) (100 100 100 100) (100 100 100 100 100 100 100) (100 100 100 100 100 100 100) (100 100 100 100 100 100 100) (100 100 100 100 100 100 100) (100 100 100 100 100 100 100) (100 100 100 100 100 100 100) (100 100 100 100 100 100 100) (100 100 100 100 100 100 100) (100 100 100 100 100 100 100) (100 100 100 100 100 100 100) (100 100 100 100 100 100 100) (100 100 100 100 100 100 100) (100 100 100 100 100 100 100) (100 100 100 100 100 100 100) (100 100 100 100 100 100 100) (100 100 100 100 100 100 100) (100 100 100 100 100 100 100) (100 100 100 100 100 100 100) (100 100 100 100 100 100 100) (100 100 100 100 100 100 100) (100 100 100 100 100 100 100) (100 100 100 100 100) (100 100 100 100 100 100 100) (100 100 100 100 100 100 100) (100 100 100 100 100 100 100) (100 100 100 100 100 100 100) (100 100 100 100 100 100 100) (100 100 100 100 100 100 100) (100 100 100 100 100 100 100) (100 100 100 100 100 100 100) (100 100 100) (100 100 100 100 100 100 100) (100 100 100 100 100 100 100) (100 100 100 100 100 100 100) (100 100 100 100 100 100 100) (100 100 100 100 100 100 100) (100 100 100 100 100 100 100) (100 100 100 100 100 100 100) (100 100 100 100 100 100 100) (100 100 100 100 100 100 100) (100 100 100 100 100 100 100) (100 100 100 100 100 100 100) (100 100 100 100 100 100 100) (100 100 100 100 100 100 100) (100 100 100 100 100 100 100) (100 100 100 100 100 100 100) (100 100 100 100 100 100 100))) :lvel (quote ((100) (100) (100) (100) (100) (100) (100) (100) (100) (100) (100) (100) (100) (100 100) (100) (100) (100) (100) (100 100) (100) (100) (100) (100) (100) (100 100) (100 100) (100 100) (100) (100) (100) (100 100) (100) (100) (100) (100 100) (100) (100) (100) (100) (100 100) (100 100) (100) (100 100) (100 100) (100 100) (100) (100 100) (100 100) (100 100) (100 100) (100 100) (100) (100 100) (100 100) (100) (100 100) (100 100) (100 100) (100 100) (100 100) (100 100) (100) (100 100) (100 100) (100) (100) (100) (100 100) (100 100) (100 100) (100 100) (100 100) (100 100) (100 100) (100 100) (100) (100 100) (100 100) (100) (100 100) (100 100) (100 100) (100 100) (100 100) (100 100) (100 100) (100 100) (100 100) (100 100) (100 100 100 100 100 100 100) (100 100 100 100 100 100 100) (100 100 100 100 100 100 100) (100 100 100 100 100 100 100) (100 100 100 100 100 100 100) (100 100 100 100 100 100 100) (100 100 100 100 100 100 100) (100 100 100 100 100 100 100) (100 100 100 100 100 100 100) (100 100 100 100 100 100 100) (100 100 100 100 100 100 100) (100 100 100 100 100 100 100) (100 100 100 100 100 100 100) (100 100 100 100 100 100 100) (100 100 100 100 100 100 100) (100 100 100 100 100 100 100) (100 100) (100 100) (100 100) (100 100) (100 100) (100 100) (100 100) (100 100) (100 100) (100 100) (100 100) (100 100) (100 100) (100 100) (100 100) (100 100) (100 100) (100 100) (100 100) (100 100) (100 100) (100 100) (100 100) (100 100) (100 100) (100 100) (100 100 100 100) (100 100) (100 100) (100 100) (100 100) (100 100 100 100 100 100) (100 100 100 100) (100 100 100 100) (100 100) (100 100 100 100) (100 100 100 100 100 100 100) (100 100 100 100 100 100 100) (100 100 100 100 100 100 100) (100 100 100 100 100 100 100) (100 100 100 100 100 100 100) (100 100 100 100 100 100 100) (100 100 100 100) (100 100 100 100) (100 100 100 100 100 100 100) (100 100 100 100) (100 100 100 100) (100 100 100 100) (100 100 100 100 100 100 100) (100 100 100 100 100 100 100) (100 100 100 100 100 100 100) (100 100 100 100 100 100 100) (100 100 100 100 100 100 100) (100 100 100 100 100 100 100) (100 100 100 100 100 100 100) (100 100 100 100 100 100 100) (100 100 100 100 100 100 100) (100 100 100 100 100 100 100) (100 100 100 100 100 100 100) (100 100 100 100 100 100 100) (100 100 100 100 100 100 100) (100 100 100 100 100 100 100) (100 100 100 100 100 100 100) (100 100 100 100 100 100 100) (100 100 100 100 100 100 100) (100 100 100 100 100 100 100) (100 100 100 100 100 100 100) (100 100 100 100 100 100 100) (100 100 100 100 100 100 100) (100 100 100 100 100) (100 100 100 100 100 100 100) (100 100 100 100 100 100 100) (100 100 100 100 100 100 100) (100 100 100 100 100 100 100) (100 100 100 100 100 100 100) (100 100 100 100 100 100 100) (100 100 100 100 100 100 100) (100 100 100 100 100 100 100) (100 100 100) (100 100 100 100 100 100 100) (100 100 100 100 100 100 100) (100 100 100 100 100 100 100) (100 100 100 100 100 100 100) (100 100 100 100 100 100 100) (100 100 100 100 100 100 100) (100 100 100 100 100 100 100) (100 100 100 100 100 100 100) (100 100 100 100 100 100 100) (100 100 100 100 100 100 100) (100 100 100 100 100 100 100) (100 100 100 100 100 100 100) (100 100 100 100 100 100 100) (100 100 100 100 100 100 100) (100 100 100 100 100 100 100) (100 100 100 100 100 100 100))) :loffset (quote ((0) (0) (0) (0) (0) (0) (0) (0) (0) (0) (0) (0) (0) (0 0) (0) (0) (0) (0) (0 0) (0) (0) (0) (0) (0) (0 0) (0 0) (0 0) (0) (0) (0) (0 0) (0) (0) (0) (0 0) (0) (0) (0) (0) (0 0) (0 0) (0) (0 0) (0 0) (0 0) (0) (0 0) (0 0) (0 0) (0 0) (0 0) (0) (0 0) (0 0) (0) (0 0) (0 0) (0 0) (0 0) (0 0) (0 0) (0) (0 0) (0 0) (0) (0) (0) (0 0) (0 0) (0 0) (0 0) (0 0) (0 0) (0 0) (0 0) (0) (0 0) (0 0) (0) (0 0) (0 0) (0 0) (0 0) (0 0) (0 0) (0 0) (0 0) (0 0) (0 0) (0 0 0 0 0 0 0) (0 0 0 0 0 0 0) (0 0 0 0 0 0 0) (0 0 0 0 0 0 0) (0 0 0 0 0 0 0) (0 0 0 0 0 0 0) (0 0 0 0 0 0 0) (0 0 0 0 0 0 0) (0 0 0 0 0 0 0) (0 0 0 0 0 0 0) (0 0 0 0 0 0 0) (0 0 0 0 0 0 0) (0 0 0 0 0 0 0) (0 0 0 0 0 0 0) (0 0 0 0 0 0 0) (0 0 0 0 0 0 0) (0 0) (0 0) (0 0) (0 0) (0 0) (0 0) (0 0) (0 0) (0 0) (0 0) (0 0) (0 0) (0 0) (0 0) (0 0) (0 0) (0 0) (0 0) (0 0) (0 0) (0 0) (0 0) (0 0) (0 0) (0 0) (0 0) (0 0 0 0) (0 0) (0 0) (0 0) (0 0) (0 0 0 0 0 0) (0 0 0 0) (0 0 0 0) (0 0) (0 0 0 0) (0 0 0 0 0 0 0) (0 0 0 0 0 0 0) (0 0 0 0 0 0 0) (0 0 0 0 0 0 0) (0 0 0 0 0 0 0) (0 0 0 0 0 0 0) (0 0 0 0) (0 0 0 0) (0 0 0 0 0 0 0) (0 0 0 0) (0 0 0 0) (0 0 0 0) (0 0 0 0 0 0 0) (0 0 0 0 0 0 0) (0 0 0 0 0 0 0) (0 0 0 0 0 0 0) (0 0 0 0 0 0 0) (0 0 0 0 0 0 0) (0 0 0 0 0 0 0) (0 0 0 0 0 0 0) (0 0 0 0 0 0 0) (0 0 0 0 0 0 0) (0 0 0 0 0 0 0) (0 0 0 0 0 0 0) (0 0 0 0 0 0 0) (0 0 0 0 0 0 0) (0 0 0 0 0 0 0) (0 0 0 0 0 0 0) (0 0 0 0 0 0 0) (0 0 0 0 0 0 0) (0 0 0 0 0 0 0) (0 0 0 0 0 0 0) (0 0 0 0 0 0 0) (0 0 0 0 0) (0 0 0 0 0 0 0) (0 0 0 0 0 0 0) (0 0 0 0 0 0 0) (0 0 0 0 0 0 0) (0 0 0 0 0 0 0) (0 0 0 0 0 0 0) (0 0 0 0 0 0 0) (0 0 0 0 0 0 0) (0 0 0) (0 0 0 0 0 0 0) (0 0 0 0 0 0 0) (0 0 0 0 0 0 0) (0 0 0 0 0 0 0) (0 0 0 0 0 0 0) (0 0 0 0 0 0 0) (0 0 0 0 0 0 0) (0 0 0 0 0 0 0) (0 0 0 0 0 0 0) (0 0 0 0 0 0 0) (0 0 0 0 0 0 0) (0 0 0 0 0 0 0) (0 0 0 0 0 0 0) (0 0 0 0 0 0 0) (0 0 0 0 0 0 0) (0 0 0 0 0 0 0))) :lchan (quote ((1) (1) (1) (1) (1) (1) (1) (1) (1) (1) (1) (1) (1) (1 1) (1) (1) (1) (1) (1 1) (1) (1) (1) (1) (1) (1 1) (1 1) (1 1) (1) (1) (1) (1 1) (1) (1) (1) (1 1) (1) (1) (1) (1) (1 1) (1 1) (1) (1 1) (1 1) (1 1) (1) (1 1) (1 1) (1 1) (1 1) (1 1) (1) (1 1) (1 1) (1) (1 1) (1 1) (1 1) (1 1) (1 1) (1 1) (1) (1 1) (1 1) (1) (1) (1) (1 1) (1 1) (1 1) (1 1) (1 1) (1 1) (1 1) (1 1) (1) (1 1) (1 1) (1) (1 1) (1 1) (1 1) (1 1) (1 1) (1 1) (1 1) (1 1) (1 1) (1 1) (1 1 1 1 1 1 1) (1 1 1 1 1 1 1) (1 1 1 1 1 1 1) (1 1 1 1 1 1 1) (1 1 1 1 1 1 1) (1 1 1 1 1 1 1) (1 1 1 1 1 1 1) (1 1 1 1 1 1 1) (1 1 1 1 1 1 1) (1 1 1 1 1 1 1) (1 1 1 1 1 1 1) (1 1 1 1 1 1 1) (1 1 1 1 1 1 1) (1 1 1 1 1 1 1) (1 1 1 1 1 1 1) (1 1 1 1 1 1 1) (1 1) (1 1) (1 1) (1 1) (1 1) (1 1) (1 1) (1 1) (1 1) (1 1) (1 1) (1 1) (1 1) (1 1) (1 1) (1 1) (1 1) (1 1) (1 1) (1 1) (1 1) (1 1) (1 1) (1 1) (1 1) (1 1) (1 1 1 1) (1 1) (1 1) (1 1) (1 1) (1 1 1 1 1 1) (1 1 1 1) (1 1 1 1) (1 1) (1 1 1 1) (1 1 1 1 1 1 1) (1 1 1 1 1 1 1) (1 1 1 1 1 1 1) (1 1 1 1 1 1 1) (1 1 1 1 1 1 1) (1 1 1 1 1 1 1) (1 1 1 1) (1 1 1 1) (1 1 1 1 1 1 1) (1 1 1 1) (1 1 1 1) (1 1 1 1) (1 1 1 1 1 1 1) (1 1 1 1 1 1 1) (1 1 1 1 1 1 1) (1 1 1 1 1 1 1) (1 1 1 1 1 1 1) (1 1 1 1 1 1 1) (1 1 1 1 1 1 1) (1 1 1 1 1 1 1) (1 1 1 1 1 1 1) (1 1 1 1 1 1 1) (1 1 1 1 1 1 1) (1 1 1 1 1 1 1) (1 1 1 1 1 1 1) (1 1 1 1 1 1 1) (1 1 1 1 1 1 1) (1 1 1 1 1 1 1) (1 1 1 1 1 1 1) (1 1 1 1 1 1 1) (1 1 1 1 1 1 1) (1 1 1 1 1 1 1) (1 1 1 1 1 1 1) (1 1 1 1 1) (1 1 1 1 1 1 1) (1 1 1 1 1 1 1) (1 1 1 1 1 1 1) (1 1 1 1 1 1 1) (1 1 1 1 1 1 1) (1 1 1 1 1 1 1) (1 1 1 1 1 1 1) (1 1 1 1 1 1 1) (1 1 1) (1 1 1 1 1 1 1) (1 1 1 1 1 1 1) (1 1 1 1 1 1 1) (1 1 1 1 1 1 1) (1 1 1 1 1 1 1) (1 1 1 1 1 1 1) (1 1 1 1 1 1 1) (1 1 1 1 1 1 1) (1 1 1 1 1 1 1) (1 1 1 1 1 1 1) (1 1 1 1 1 1 1) (1 1 1 1 1 1 1) (1 1 1 1 1 1 1) (1 1 1 1 1 1 1) (1 1 1 1 1 1 1) (1 1 1 1 1 1 1))) :legato 0)))) (load-port-info newobj (quote ((0) (0) (0) (0) (0) (0) (0) (0) (0) (0) (0) (0) (0) (0 0) (0) (0) (0) (0) (0 0) (0) (0) (0) (0) (0) (0 0) (0 0) (0 0) (0) (0) (0) (0 0) (0) (0) (0) (0 0) (0) (0) (0) (0) (0 0) (0 0) (0) (0 0) (0 0) (0 0) (0) (0 0) (0 0) (0 0) (0 0) (0 0) (0) (0 0) (0 0) (0) (0 0) (0 0) (0 0) (0 0) (0 0) (0 0) (0) (0 0) (0 0) (0) (0) (0) (0 0) (0 0) (0 0) (0 0) (0 0) (0 0) (0 0) (0 0) (0) (0 0) (0 0) (0) (0 0) (0 0) (0 0) (0 0) (0 0) (0 0) (0 0) (0 0) (0 0) (0 0) (0 0 0 0 0 0 0) (0 0 0 0 0 0 0) (0 0 0 0 0 0 0) (0 0 0 0 0 0 0) (0 0 0 0 0 0 0) (0 0 0 0 0 0 0) (0 0 0 0 0 0 0) (0 0 0 0 0 0 0) (0 0 0 0 0 0 0) (0 0 0 0 0 0 0) (0 0 0 0 0 0 0) (0 0 0 0 0 0 0) (0 0 0 0 0 0 0) (0 0 0 0 0 0 0) (0 0 0 0 0 0 0) (0 0 0 0 0 0 0) (0 0) (0 0) (0 0) (0 0) (0 0) (0 0) (0 0) (0 0) (0 0) (0 0) (0 0) (0 0) (0 0) (0 0) (0 0) (0 0) (0 0) (0 0) (0 0) (0 0) (0 0) (0 0) (0 0) (0 0) (0 0) (0 0) (0 0 0 0) (0 0) (0 0) (0 0) (0 0) (0 0 0 0 0 0) (0 0 0 0) (0 0 0 0) (0 0) (0 0 0 0) (0 0 0 0 0 0 0) (0 0 0 0 0 0 0) (0 0 0 0 0 0 0) (0 0 0 0 0 0 0) (0 0 0 0 0 0 0) (0 0 0 0 0 0 0) (0 0 0 0) (0 0 0 0) (0 0 0 0 0 0 0) (0 0 0 0) (0 0 0 0) (0 0 0 0) (0 0 0 0 0 0 0) (0 0 0 0 0 0 0) (0 0 0 0 0 0 0) (0 0 0 0 0 0 0) (0 0 0 0 0 0 0) (0 0 0 0 0 0 0) (0 0 0 0 0 0 0) (0 0 0 0 0 0 0) (0 0 0 0 0 0 0) (0 0 0 0 0 0 0) (0 0 0 0 0 0 0) (0 0 0 0 0 0 0) (0 0 0 0 0 0 0) (0 0 0 0 0 0 0) (0 0 0 0 0 0 0) (0 0 0 0 0 0 0) (0 0 0 0 0 0 0) (0 0 0 0 0 0 0) (0 0 0 0 0 0 0) (0 0 0 0 0 0 0) (0 0 0 0 0 0 0) (0 0 0 0 0) (0 0 0 0 0 0 0) (0 0 0 0 0 0 0) (0 0 0 0 0 0 0) (0 0 0 0 0 0 0) (0 0 0 0 0 0 0) (0 0 0 0 0 0 0) (0 0 0 0 0 0 0) (0 0 0 0 0 0 0) (0 0 0) (0 0 0 0 0 0 0) (0 0 0 0 0 0 0) (0 0 0 0 0 0 0) (0 0 0 0 0 0 0) (0 0 0 0 0 0 0) (0 0 0 0 0 0 0) (0 0 0 0 0 0 0) (0 0 0 0 0 0 0) (0 0 0 0 0 0 0) (0 0 0 0 0 0 0) (0 0 0 0 0 0 0) (0 0 0 0 0 0 0) (0 0 0 0 0 0 0) (0 0 0 0 0 0 0) (0 0 0 0 0 0 0) (0 0 0 0 0 0 0)))) (init-mus-color newobj (quote nil)) (set-extra-pairs newobj (quote nil)) (set-patch-pairs newobj (quote ((nil (om-load-patch-abs1 "patch" (quote nil) (quote nil) 7.06 nil "" (om-make-point 200 200) (om-make-point 400 500)))))) (set-name newobj nil) (set-tonalite newobj nil) newobj) nil nil (pairlis (quote (measure onset scale show-stems cursor-mode obj-mode score-mode winpos winsize mode grillestep notechancolor? zoom player inport outport deltapict cmnpref staff fontsize approx)) (list nil nil nil (quote t) (quote :normal) 1 1 (om-make-point 221 163) (om-make-point 737 415) 0 1000 nil 31/50 (quote :fluidsynth) nil nil (om-make-point 0 0) (let ((newobj (make-instance (quote edition-values)))) (setf (paper-size newobj) (om-make-point 600 800)) (setf (top-margin newobj) 2) (setf (left-margin newobj) 1) (setf (right-margin newobj) 1) (setf (bottom-margin newobj) 1) (setf (orientation newobj) nil) (setf (scale newobj) nil) (setf (system-space newobj) (quote (1))) (setf (system-color newobj) (quote nil)) (setf (line-space newobj) 1) (setf (title newobj) nil) (setf (show-title? newobj) nil) (setf (show-page? newobj) nil) (setf (sheet-id newobj) nil) (setf (page-mode newobj) nil) newobj) (quote ggff) 12 16)) t nil nil nil (quote nil)))) (when (fboundp (quote set-active)) (set-active box nil)) box) (let ((box (om-load-boxcall (quote bastype) "aux 19" (quote t) (quote nil) (om-make-point 168 294) (om-make-point 62 30) (list 0 150) "(0 150)" nil))) (when (fboundp (quote set-active)) (set-active box nil)) box) (let ((box (om-load-boxcall (quote bastype) "aux 18" (quote t) (quote nil) (om-make-point 222 328) (om-make-point 51 30) (list 100) "(100)" nil))) (when (fboundp (quote set-active)) (set-active box nil)) box) (let ((box (om-load-boxcall (quote bastype) "aux 17" (quote t) (quote nil) (om-make-point 174 156) (om-make-point 41 30) 100 "100" nil))) (when (fboundp (quote set-active)) (set-active box nil)) box))) (quote ((0 0 1 0 nil 0) (3 0 2 0 nil 0) (5 0 3 0 nil 0) (2 0 4 1 nil 0) (2 1 4 2 nil 0) (7 0 5 0 nil 0) (8 0 5 1 nil 0) (16 0 5 2 nil 0) (12 0 5 3 nil 0) (6 0 5 4 nil 0) (9 0 8 0 nil 0) (10 0 8 1 nil 0) (11 0 8 2 nil 0) (5 0 13 1 nil 0) (14 0 13 2 nil 0) (15 0 13 3 nil 0))) nil 7.06))