; OM File Header - Saved 2025/06/13 22:54:46
; (7.06 :patc (om-make-point 481/4 1899/8) (om-make-point 50 50) (om-make-point 500 400) "" 183 0 nil "2025/06/13 22:54:46")
; End File Header
(in-package :om)(load-lib-for (quote nil))(setf *om-current-persistent* (om-load-patch1 "test-2" (quote ((let ((box (om-load-boxcall (quote bastype) "aux 4" (quote t) (quote nil) (om-make-point 207 50) (om-make-point 52 30) 2.161 "2.161" nil))) (when (fboundp (quote set-active)) (set-active box nil)) box) (let ((box (om-load-boxcall (quote lispfun) "FUNCALL 5" (quote funcall) (quote ((om-load-inputfun (quote input-funbox) "FUNCTION" "FUNCTION" nil) (om-load-inputfun (quote input-funbox) "add-input" "add-input" nil))) (om-make-point 49 815/2) nil nil nil nil 1))) (when (fboundp (quote set-active)) (set-active box nil)) box) (let ((box (om-load-boxcall (quote lispfun) "FUNCALL 4" (quote funcall) (quote ((om-load-inputfun (quote input-funbox) "FUNCTION" "FUNCTION" nil) (om-load-inputfun (quote input-funbox) "add-input" "add-input" nil))) (om-make-point 90 705/2) nil nil nil nil 1))) (when (fboundp (quote set-active)) (set-active box nil)) box) (let ((box (om-load-boxcall (quote lispfun) "FUNCALL 3" (quote funcall) (quote ((om-load-inputfun (quote input-funbox) "FUNCTION" "FUNCTION" nil) (om-load-inputfun (quote input-funbox) "add-input" "add-input" nil))) (om-make-point 121 603/2) nil nil nil nil 1))) (when (fboundp (quote set-active)) (set-active box nil)) box) (let ((box (om-load-boxcall (quote abstraction) "mypatch 4" (om-load-patch-abs1 "mypatch" (quote ((let ((box (om-load-boxout "output" 0 (om-make-point 217 257) (quote ((om-load-inputfun (quote input-funbox) "" "out" nil))) nil nil))) (when (fboundp (quote set-active)) (set-active box nil)) box) (let ((box (om-load-boxin "input 2" 1 (om-make-point 184 50) "" nil nil nil))) (when (fboundp (quote set-active)) (set-active box nil)) box) (let ((box (om-load-boxin "input" 0 (om-make-point 50 50) "" nil nil nil))) (when (fboundp (quote set-active)) (set-active box nil)) box) (let ((box (om-load-boxcall (quote genfun) "OM*" (quote om*) (quote ((om-load-inputfun (quote input-funbox) "number or list" "SELF" 0) (om-load-inputfun (quote input-funbox) "number or list" "NUM" 0))) (om-make-point 112 174) nil nil nil nil 1))) (when (fboundp (quote set-active)) (set-active box nil)) box) (let ((box (om-load-boxcall (quote genfun) "OM-" (quote om-) (quote ((om-load-inputfun (quote input-funbox) "number or list" "FIRST-ARG" 0) (om-load-inputfun (quote input-funbox) "number or list" "SECOND-ARG" 0))) (om-make-point 183 192) nil nil nil nil 1))) (when (fboundp (quote set-active)) (set-active box nil)) box) (let ((box (om-load-boxcall (quote bastype) "aux 3" (quote t) (quote nil) (om-make-point 144 162) (om-make-point 38 30) 1.0 "1.0" nil))) (when (fboundp (quote set-active)) (set-active box nil)) box) (let ((box (om-load-boxcall (quote genfun) "OM* 2" (quote om*) (quote ((om-load-inputfun (quote input-funbox) "number or list" "SELF" 0) (om-load-inputfun (quote input-funbox) "number or list" "NUM" 0))) (om-make-point 133 234) nil nil nil nil 1))) (when (fboundp (quote set-active)) (set-active box nil)) box))) (quote ((6 0 0 0 nil 0) (2 0 3 0 nil 0) (1 0 3 1 nil 0) (5 0 4 0 nil 0) (2 0 4 1 nil 0) (3 0 6 0 nil 0) (4 0 6 1 nil 0))) 7.06 nil "" (om-make-point 200 200) (om-make-point 500 400)) (quote ((om-load-inputfun (quote input-funbox) "" "input" nil) (om-load-inputfun (quote input-funbox) "" "input 2" nil))) (om-make-point 203 150) nil (list 0.54025) nil nil))) (when (fboundp (quote set-active)) (set-active box nil)) box) (let ((box (om-load-boxcall (quote lispfun) "FUNCALL 2" (quote funcall) (quote ((om-load-inputfun (quote input-funbox) "FUNCTION" "FUNCTION" nil) (om-load-inputfun (quote input-funbox) "add-input" "add-input" nil))) (om-make-point 139 465/2) nil nil nil nil 1))) (when (fboundp (quote set-active)) (set-active box nil)) box) (let ((box (om-load-boxcall (quote abstraction) "mypatch 3" (om-load-patch-abs1 "mypatch" (quote ((let ((box (om-load-boxout "output" 0 (om-make-point 217 257) (quote ((om-load-inputfun (quote input-funbox) "" "out" nil))) nil nil))) (when (fboundp (quote set-active)) (set-active box nil)) box) (let ((box (om-load-boxin "input 2" 1 (om-make-point 184 50) "" nil nil nil))) (when (fboundp (quote set-active)) (set-active box nil)) box) (let ((box (om-load-boxin "input" 0 (om-make-point 50 50) "" nil nil nil))) (when (fboundp (quote set-active)) (set-active box nil)) box) (let ((box (om-load-boxcall (quote genfun) "OM*" (quote om*) (quote ((om-load-inputfun (quote input-funbox) "number or list" "SELF" 0) (om-load-inputfun (quote input-funbox) "number or list" "NUM" 0))) (om-make-point 112 174) nil nil nil nil 1))) (when (fboundp (quote set-active)) (set-active box nil)) box) (let ((box (om-load-boxcall (quote genfun) "OM-" (quote om-) (quote ((om-load-inputfun (quote input-funbox) "number or list" "FIRST-ARG" 0) (om-load-inputfun (quote input-funbox) "number or list" "SECOND-ARG" 0))) (om-make-point 183 192) nil nil nil nil 1))) (when (fboundp (quote set-active)) (set-active box nil)) box) (let ((box (om-load-boxcall (quote bastype) "aux 3" (quote t) (quote nil) (om-make-point 144 162) (om-make-point 38 30) 1.0 "1.0" nil))) (when (fboundp (quote set-active)) (set-active box nil)) box) (let ((box (om-load-boxcall (quote genfun) "OM* 2" (quote om*) (quote ((om-load-inputfun (quote input-funbox) "number or list" "SELF" 0) (om-load-inputfun (quote input-funbox) "number or list" "NUM" 0))) (om-make-point 133 234) nil nil nil nil 1))) (when (fboundp (quote set-active)) (set-active box nil)) box))) (quote ((6 0 0 0 nil 0) (2 0 3 0 nil 0) (1 0 3 1 nil 0) (5 0 4 0 nil 0) (2 0 4 1 nil 0) (3 0 6 0 nil 0) (4 0 6 1 nil 0))) 7.06 nil "" (om-make-point 200 200) (om-make-point 500 400)) (quote ((om-load-inputfun (quote input-funbox) "" "input" nil) (om-load-inputfun (quote input-funbox) "" "input 2" nil))) (om-make-point 98 147) nil (list nil) "l" nil))) (when (fboundp (quote set-active)) (set-active box nil)) box) (let ((box (om-load-boxcall (quote bastype) "aux 6" (quote t) (quote nil) (om-make-point 134 70) (om-make-point 38 30) 0.5 "0.5" nil))) (when (fboundp (quote set-active)) (set-active box nil)) box))) (quote ((6 0 1 0 nil 0) (2 0 1 1 nil 0) (6 0 2 0 nil 0) (3 0 2 1 nil 0) (6 0 3 0 nil 0) (5 0 3 1 nil 0) (7 0 4 0 nil 0) (0 0 4 1 nil 0) (6 0 5 0 nil 0) (4 0 5 1 nil 0) (0 0 6 1 nil 0))) nil 7.06))