; OM File Header - Saved 2025/06/13 22:54:46
; (7.06 :patc (om-make-point 2969/11 2611/11) (om-make-point 50 50) (om-make-point 500 400) "" 183 0 nil "2025/06/13 22:54:46")
; End File Header
(in-package :om)(load-lib-for (quote nil))(setf *om-current-persistent* (om-load-patch1 "using-funcall" (quote ((let ((box (om-load-boxcall (quote bastype) "aux 7" (quote t) (quote nil) (om-make-point 362 62) (om-make-point 45 30) 1.24 "1.24" nil))) (when (fboundp (quote set-active)) (set-active box nil)) box) (let ((box (om-load-boxwithed1 (quote box-with-win) "population-equation-4-voices" (quote omloop) (quote ((om-load-inputfun (quote input-funbox) "" "x-value" nil) (om-load-inputfun (quote input-funbox) "" "r-value-less-than-4" nil) (om-load-inputfun (quote input-funbox) "" "initializing-value" nil) (om-load-inputfun (quote input-funbox) "" "input3" nil))) (om-make-point 50 221) nil nil nil (list (let ((box (om-load-boxcomment "comment" (om-make-point 134 173) (quote "how many times the initial recursion will take place (100 at least, but more recommended though it'll slow down things considerably)$") "" (om-make-point 238 110) nil (om-make-color 0 0 0) (om-make-font "Verdana" 12 :family "Verdana" :style (quote (:plain)) :mode (quote nil))))) (when (fboundp (quote set-active)) (set-active box nil)) box) (let ((box (om-load-boxcall (quote genfun) "OM*" (quote om*) (quote ((om-load-inputfun (quote input-funbox) "number or list" "SELF" 0) (om-load-inputfun (quote input-funbox) "number or list" "NUM" 0))) (om-make-point 324 622) nil nil nil nil 1))) (when (fboundp (quote set-active)) (set-active box nil)) box) (let ((box (om-load-boxin "input3" 3 (om-make-point 380 41) "" nil nil nil))) (when (fboundp (quote set-active)) (set-active box nil)) box) (let ((box (om-load-boxin "initializing-value" 2 (om-make-point 250 39) "" "initializing-value" nil (om-make-point 98 59)))) (when (fboundp (quote set-active)) (set-active box nil)) box) (let ((box (om-load-boxwithed1 (quote box-with-win) "initializer" (quote omloop) (quote ((om-load-inputfun (quote input-funbox) "" "input" nil) (om-load-inputfun (quote input-funbox) "" "input 2" nil) (om-load-inputfun (quote input-funbox) "" "input 3" nil))) (om-make-point 70 122) nil nil nil (list (let ((box (om-load-boxin "input 3" 2 (om-make-point 274 41) "" nil nil nil))) (when (fboundp (quote set-active)) (set-active box nil)) box) (let ((box (om-load-boxin "input 2" 1 (om-make-point 224 41) "" nil nil nil))) (when (fboundp (quote set-active)) (set-active box nil)) box) (let ((box (om-load-boxcall (quote genfun) "inlist" (quote listloop) (quote ((om-load-inputfun (quote input-funbox) "list to iterate" "LIST" nil))) (om-make-point 237 191) nil nil nil nil 1))) (when (fboundp (quote set-active)) (set-active box nil)) box) (let ((box (om-load-boxcall (quote genfun) "CREATE-LIST" (quote create-list) (quote ((om-load-inputfun (quote input-funbox) "number of elements" "COUNT" 1000) (om-load-inputfun (quote input-funbox) "initial element" "ELEM" nil))) (om-make-point 231 116) nil nil nil nil 1))) (when (fboundp (quote set-active)) (set-active box nil)) box) (let ((box (om-load-boxcall (quote genfun) "accum" (quote accumulator) (quote ((om-load-inputfun (quote input-funbox) "items to collect" "DATA" nil) (om-load-inputfun (quote input-funbox) "initial value" "INIT" nil) (om-load-inputfun (quote input-funbox) "accumulation function" "FUN" nil))) (om-make-point 289 267) nil nil nil nil 3))) (when (fboundp (quote set-active)) (set-active box nil)) box) (let ((box (om-load-boxin "input" 0 (om-make-point 177 46) "" nil nil (om-make-point 36 59)))) (when (fboundp (quote set-active)) (set-active box nil)) box) (let ((box (om-load-boxcall (quote abstraction) "mypatch" (om-load-patch-abs1 "mypatch" (quote ((let ((box (om-load-boxout "output" 0 (om-make-point 217 257) (quote ((om-load-inputfun (quote input-funbox) "" "out" nil))) nil nil))) (when (fboundp (quote set-active)) (set-active box nil)) box) (let ((box (om-load-boxin "input 2" 1 (om-make-point 184 50) "" nil nil nil))) (when (fboundp (quote set-active)) (set-active box nil)) box) (let ((box (om-load-boxin "input" 0 (om-make-point 50 50) "" nil nil nil))) (when (fboundp (quote set-active)) (set-active box nil)) box) (let ((box (om-load-boxcall (quote genfun) "OM*" (quote om*) (quote ((om-load-inputfun (quote input-funbox) "number or list" "SELF" 0) (om-load-inputfun (quote input-funbox) "number or list" "NUM" 0))) (om-make-point 112 174) nil nil nil nil 1))) (when (fboundp (quote set-active)) (set-active box nil)) box) (let ((box (om-load-boxcall (quote genfun) "OM-" (quote om-) (quote ((om-load-inputfun (quote input-funbox) "number or list" "FIRST-ARG" 0) (om-load-inputfun (quote input-funbox) "number or list" "SECOND-ARG" 0))) (om-make-point 183 192) nil nil nil nil 1))) (when (fboundp (quote set-active)) (set-active box nil)) box) (let ((box (om-load-boxcall (quote bastype) "aux 3" (quote t) (quote nil) (om-make-point 144 162) (om-make-point 38 30) 1.0 "1.0" nil))) (when (fboundp (quote set-active)) (set-active box nil)) box) (let ((box (om-load-boxcall (quote genfun) "OM* 2" (quote om*) (quote ((om-load-inputfun (quote input-funbox) "number or list" "SELF" 0) (om-load-inputfun (quote input-funbox) "number or list" "NUM" 0))) (om-make-point 133 234) nil nil nil nil 1))) (when (fboundp (quote set-active)) (set-active box nil)) box))) (quote ((6 0 0 0 nil 0) (2 0 3 0 nil 0) (1 0 3 1 nil 0) (5 0 4 0 nil 0) (2 0 4 1 nil 0) (3 0 6 0 nil 0) (4 0 6 1 nil 0))) 7.06 nil "" (om-make-point 200 200) (om-make-point 500 400)) (quote ((om-load-inputfun (quote input-funbox) "" "input" nil) (om-load-inputfun (quote input-funbox) "" "input 2" nil))) (om-make-point 355 379/2) nil (list nil) "l" nil))) (when (fboundp (quote set-active)) (set-active box nil)) box) (let ((box (om-load-seqbox "finally" (quote finaldo) (quote ((om-load-inputfun (quote input-funbox) "value to return" "VAL" nil))) (om-make-point 315 420) nil nil nil 0))) (when (fboundp (quote set-active)) (set-active box nil)) box) (let ((box (om-load-seqbox "eachTime" (quote loopdo) (quote ((om-load-inputfun (quote input-funbox) "operations to do" "OP" nil))) (om-make-point 160 389) nil nil nil 0))) (when (fboundp (quote set-active)) (set-active box nil)) box)) (quote ((3 0 2 0 nil 0) (1 0 3 0 nil 0) (0 0 3 1 nil 0) (2 0 4 0 nil 0) (5 0 4 1 nil 0) (6 0 4 2 nil 0) (4 1 7 0 nil 0) (4 0 8 0 nil 0))) 1 "initializer" nil))) (when (fboundp (quote set-active)) (set-active box nil)) box) (let ((box (om-load-boxcall (quote bastype) "aux" (quote t) (quote nil) (om-make-point 302 509) (om-make-point 27 30) 2 "2" nil))) (when (fboundp (quote set-active)) (set-active box nil)) box) (let ((box (om-load-boxcall (quote genfun) "inlist" (quote listloop) (quote ((om-load-inputfun (quote input-funbox) "list to iterate" "LIST" nil))) (om-make-point 164 118) nil nil nil nil 1))) (when (fboundp (quote set-active)) (set-active box nil)) box) (let ((box (om-load-boxcall (quote genfun) "REMOVE-DUP" (quote remove-dup) (quote ((om-load-inputfun (quote input-funbox) "list" "LIST" (list 1 2 3 4)) (om-load-inputfun (quote input-funbox) "equality test (function or function name)" "TEST" (quote eq)) (om-load-inputfun (quote input-funbox) "an integer" "DEPTH" 1))) (om-make-point 258 550) nil nil nil nil 1))) (when (fboundp (quote set-active)) (set-active box nil)) box) (let ((box (om-load-boxcall (quote genfun) "X-APPEND" (quote x-append) (quote ((om-load-inputfun (quote input-funbox) "first element" "L1?" nil) (om-load-inputfun (quote input-funbox) "second element" "L2?" nil) (om-load-inputfun (quote input-funbox) "additional elements" "LST?" nil) (om-load-inputfun (quote input-funbox) "additional elements" "LST?" nil))) (om-make-point 73 457) (om-make-point 263 59) nil nil nil 1))) (when (fboundp (quote set-active)) (set-active box nil)) box) (let ((box (om-load-boxcall (quote genfun) "collect" (quote listing) (quote ((om-load-inputfun (quote input-funbox) "anything" "DATA" nil))) (om-make-point 182 516) nil nil nil nil 3))) (when (fboundp (quote set-active)) (set-active box nil)) box) (let ((box (om-load-boxcall (quote lispfun) "FUNCALL 3" (quote funcall) (quote ((om-load-inputfun (quote input-funbox) "FUNCTION" "FUNCTION" nil) (om-load-inputfun (quote input-funbox) "add-input" "add-input" nil))) (om-make-point 265 416) nil nil nil nil 1))) (when (fboundp (quote set-active)) (set-active box nil)) box) (let ((box (om-load-boxcall (quote lispfun) "FUNCALL 2" (quote funcall) (quote ((om-load-inputfun (quote input-funbox) "FUNCTION" "FUNCTION" nil) (om-load-inputfun (quote input-funbox) "add-input" "add-input" nil))) (om-make-point 212 366) nil nil nil nil 1))) (when (fboundp (quote set-active)) (set-active box nil)) box) (let ((box (om-load-boxcall (quote abstraction) "mypatch 2" (om-load-patch-abs1 "mypatch" (quote ((let ((box (om-load-boxout "output" 0 (om-make-point 217 257) (quote ((om-load-inputfun (quote input-funbox) "" "out" nil))) nil nil))) (when (fboundp (quote set-active)) (set-active box nil)) box) (let ((box (om-load-boxin "R-value" 1 (om-make-point 184 50) "" "R-value" nil nil))) (when (fboundp (quote set-active)) (set-active box nil)) box) (let ((box (om-load-boxin "X-value" 0 (om-make-point 50 50) "" "X-value" nil nil))) (when (fboundp (quote set-active)) (set-active box nil)) box) (let ((box (om-load-boxcall (quote genfun) "OM*" (quote om*) (quote ((om-load-inputfun (quote input-funbox) "number or list" "SELF" 0) (om-load-inputfun (quote input-funbox) "number or list" "NUM" 0))) (om-make-point 112 174) nil nil nil nil 1))) (when (fboundp (quote set-active)) (set-active box nil)) box) (let ((box (om-load-boxcall (quote genfun) "OM-" (quote om-) (quote ((om-load-inputfun (quote input-funbox) "number or list" "FIRST-ARG" 0) (om-load-inputfun (quote input-funbox) "number or list" "SECOND-ARG" 0))) (om-make-point 183 192) nil nil nil nil 1))) (when (fboundp (quote set-active)) (set-active box nil)) box) (let ((box (om-load-boxcall (quote bastype) "aux 3" (quote t) (quote nil) (om-make-point 144 162) (om-make-point 38 30) 1.0 "1.0" nil))) (when (fboundp (quote set-active)) (set-active box nil)) box) (let ((box (om-load-boxcall (quote genfun) "OM* 2" (quote om*) (quote ((om-load-inputfun (quote input-funbox) "number or list" "SELF" 0) (om-load-inputfun (quote input-funbox) "number or list" "NUM" 0))) (om-make-point 133 234) nil nil nil nil 1))) (when (fboundp (quote set-active)) (set-active box nil)) box))) (quote ((6 0 0 0 nil 0) (2 0 3 0 nil 0) (1 0 3 1 nil 0) (5 0 4 0 nil 0) (2 0 4 1 nil 0) (3 0 6 0 nil 0) (4 0 6 1 nil 0))) 7.06 nil "" (om-make-point 200 200) (om-make-point 500 400)) (quote ((om-load-inputfun (quote input-funbox) "" "input" nil) (om-load-inputfun (quote input-funbox) "" "input 2" nil))) (om-make-point 100 433/2) nil (list 0.5) nil nil))) (when (fboundp (quote set-active)) (set-active box nil)) box) (let ((box (om-load-boxcall (quote lispfun) "FUNCALL" (quote funcall) (quote ((om-load-inputfun (quote input-funbox) "FUNCTION" "FUNCTION" nil) (om-load-inputfun (quote input-funbox) "add-input" "add-input" nil))) (om-make-point 159 306) nil nil nil nil 1))) (when (fboundp (quote set-active)) (set-active box nil)) box) (let ((box (om-load-boxcall (quote abstraction) "mypatch" (om-load-patch-abs1 "mypatch" (quote ((let ((box (om-load-boxout "output" 0 (om-make-point 217 257) (quote ((om-load-inputfun (quote input-funbox) "" "out" nil))) nil nil))) (when (fboundp (quote set-active)) (set-active box nil)) box) (let ((box (om-load-boxin "R-value" 1 (om-make-point 184 50) "" "R-value" nil nil))) (when (fboundp (quote set-active)) (set-active box nil)) box) (let ((box (om-load-boxin "X-value" 0 (om-make-point 50 50) "" "X-value" nil nil))) (when (fboundp (quote set-active)) (set-active box nil)) box) (let ((box (om-load-boxcall (quote genfun) "OM*" (quote om*) (quote ((om-load-inputfun (quote input-funbox) "number or list" "SELF" 0) (om-load-inputfun (quote input-funbox) "number or list" "NUM" 0))) (om-make-point 112 174) nil nil nil nil 1))) (when (fboundp (quote set-active)) (set-active box nil)) box) (let ((box (om-load-boxcall (quote genfun) "OM-" (quote om-) (quote ((om-load-inputfun (quote input-funbox) "number or list" "FIRST-ARG" 0) (om-load-inputfun (quote input-funbox) "number or list" "SECOND-ARG" 0))) (om-make-point 183 192) nil nil nil nil 1))) (when (fboundp (quote set-active)) (set-active box nil)) box) (let ((box (om-load-boxcall (quote bastype) "aux 3" (quote t) (quote nil) (om-make-point 144 162) (om-make-point 38 30) 1.0 "1.0" nil))) (when (fboundp (quote set-active)) (set-active box nil)) box) (let ((box (om-load-boxcall (quote genfun) "OM* 2" (quote om*) (quote ((om-load-inputfun (quote input-funbox) "number or list" "SELF" 0) (om-load-inputfun (quote input-funbox) "number or list" "NUM" 0))) (om-make-point 133 234) nil nil nil nil 1))) (when (fboundp (quote set-active)) (set-active box nil)) box))) (quote ((6 0 0 0 nil 0) (2 0 3 0 nil 0) (1 0 3 1 nil 0) (5 0 4 0 nil 0) (2 0 4 1 nil 0) (3 0 6 0 nil 0) (4 0 6 1 nil 0))) 7.06 nil "" (om-make-point 200 200) (om-make-point 500 400)) (quote ((om-load-inputfun (quote input-funbox) "" "input" nil) (om-load-inputfun (quote input-funbox) "" "input 2" nil))) (om-make-point 25 433/2) nil (list nil) "l" nil))) (when (fboundp (quote set-active)) (set-active box nil)) box) (let ((box (om-load-boxin "r-value-less-than-4" 1 (om-make-point 132 39) "" "r-value-less-than-4" nil nil))) (when (fboundp (quote set-active)) (set-active box nil)) box) (let ((box (om-load-boxin "x-value" 0 (om-make-point 59 45) "" "x-value" nil nil))) (when (fboundp (quote set-active)) (set-active box nil)) box) (let ((box (om-load-seqbox "finally" (quote finaldo) (quote ((om-load-inputfun (quote input-funbox) "value to return" "VAL" nil))) (om-make-point 273 648) nil nil nil 0))) (when (fboundp (quote set-active)) (set-active box nil)) box) (let ((box (om-load-seqbox "eachTime" (quote loopdo) (quote ((om-load-inputfun (quote input-funbox) "operations to do" "OP" nil))) (om-make-point 101 594) nil nil nil 0))) (when (fboundp (quote set-active)) (set-active box nil)) box)) (quote ((7 0 1 0 nil 0) (2 0 1 1 nil 0) (16 0 4 0 nil 0) (3 0 4 1 nil 0) (6 0 4 2 nil 0) (15 0 6 0 nil 0) (9 1 7 0 nil 0) (5 0 7 2 nil 0) (12 0 8 0 nil 0) (13 0 8 1 nil 0) (11 0 8 2 nil 0) (10 0 8 3 nil 0) (8 0 9 0 nil 0) (14 0 10 0 ((om-make-point 51 563/2) (om-make-point 51 711/2) (om-make-point 83 851/2) (om-make-point 280 416)) 0) (11 0 10 1 nil 0) (14 0 11 0 ((om-make-point 51 563/2) (om-make-point 51 661/2) (om-make-point 85 753/2) (om-make-point 227 366)) 0) (13 0 11 1 nil 0) (4 0 12 0 nil 0) (6 0 12 1 ((om-make-point 186 175) (om-make-point 186 189) (om-make-point 138 206) (om-make-point 138 433/2)) 0) (14 0 13 0 ((om-make-point 51 563/2) (om-make-point 51 591/2) (om-make-point 83 613/2) (om-make-point 174 306)) 0) (12 0 13 1 nil 0) (6 0 14 1 ((om-make-point 186 175) (om-make-point 186 189) (om-make-point 63 207) (om-make-point 63 433/2)) 0) (1 0 17 0 nil 0) (9 0 18 0 nil 0))) 1 "population-equation-4-voices" nil))) (when (fboundp (quote set-active)) (set-active box nil)) box) (let ((box (om-load-boxcall (quote bastype) "aux 5" (quote t) (quote nil) (om-make-point 64 164) (om-make-point 38 30) 0.5 "0.5" nil))) (when (fboundp (quote set-active)) (set-active box nil)) box) (let ((box (om-load-boxcall (quote genfun) "ARITHM-SER" (quote arithm-ser) (quote ((om-load-inputfun (quote input-funbox) "begin" "BEGIN" 0) (om-load-inputfun (quote input-funbox) "end " "END" 10) (om-load-inputfun (quote input-funbox) "step" "STEP" 1))) (om-make-point 105 107) nil nil nil nil 1))) (when (fboundp (quote set-active)) (set-active box nil)) box) (let ((box (om-load-boxcall (quote bastype) "aux" (quote t) (quote nil) (om-make-point 92 52) (om-make-point 27 30) 2 "2" nil))) (when (fboundp (quote set-active)) (set-active box nil)) box) (let ((box (om-load-boxcall (quote bastype) "aux 2" (quote t) (quote nil) (om-make-point 121 50) (om-make-point 59 30) 3.9999 "3.9999" nil))) (when (fboundp (quote set-active)) (set-active box nil)) box) (let ((box (om-load-boxcall (quote bastype) "aux 3" (quote t) (quote nil) (om-make-point 176 77) (om-make-point 45 30) 0.01 "0.01" nil))) (when (fboundp (quote set-active)) (set-active box nil)) box) (let ((box (om-load-boxcall (quote bastype) "aux 4" (quote t) (quote nil) (om-make-point 230 176) (om-make-point 55 30) 10000 "10000" nil))) (when (fboundp (quote set-active)) (set-active box nil)) box) (let ((box (om-load-editor-box1 "CHORD-SEQ" (quote chord-seq) (quote ((om-load-inputfun (quote input-funbox) "object" "self" nil) (om-load-inputfun (quote input-funbox) "pitches (mc): list or list of lists" "lmidic" (list 6000)) (om-load-inputfun (quote input-funbox) "onsets (ms): list" "lonset" (list 0 1000)) (om-load-inputfun (quote input-funbox) "durations (ms): list or list of lists" "ldur" (list 1000)) (om-load-inputfun (quote input-funbox) "velocities (0-127): list or list of lists" "lvel" (list 100)) (om-load-inputfun (quote input-funbox) "offsets (ms): list or list of lists" "loffset" (list 0)) (om-load-inputfun (quote input-funbox) "MIDI channels (1-16): list or list of lists" "lchan" (list 1)) (om-load-inputfun (quote input-funbox) "relative chords duration (0-100)" "legato" 0))) (om-make-point 101 392) (om-make-point 130 70) (let ((newobj (when (find-class (quote chord-seq) nil) (make-instance (quote chord-seq) :lmidic (quote ((5000) (5025) (5050) (5074) (5098) (5122) (5146) (5169) (5192) (5215) (5238) (5261) (5283) (5305 5305) (5327) (5349) (5370) (5392) (5413 5413) (5434) (5455) (5475) (5495) (5516) (5536 5536) (5556 5556) (5575 5575) (5595) (5614) (5633) (5652 5652) (5671) (5690) (5708) (5726 5726) (5745) (5763) (5781) (5798) (5816 5816) (5833 5833) (5851) (5868 5868) (5885 5885) (5902 5902) (5918) (5935 5935) (5951 5951) (5968 5968) (5984 5984) (6000 6000) (6016) (6032 6032) (6047 6047) (6063) (6078 6078) (6094 6094) (6109 6109) (6124 6124) (6139 6139) (6154 6154) (6169) (6183 6183) (6198 6198) (6212) (6226) (6241) (6255 6255) (6269 6269) (6283 6283) (6296 6296) (6310 6310) (6324 6324) (6337 6337) (6350 6350) (6364) (6377 6377) (6390 6390) (6403) (6416 6416) (6429 6429) (6441 6441) (6454 6454) (6466 6466) (6479 6479) (6491 6491) (6503 6503) (6516 6516) (6528 6528) (6540 6540 6540 6540) (6552 6552 6552 6552) (6564 6564 6564 6564) (6575 6575 6575 6575) (6587 6587 6587 6587) (6600 6598 6600 6598) (6613 6607 6613 6607) (6630 6613 6630 6614) (6655 6611 6654 6613) (6698 6591 6696 6593) (6772 6536 6770 6538) (6884 6435 6882 6437) (7011 6307 7011 6308) (7127 6183 7127 6184) (7224 6076 7224 6076) (7306 5984 7306 5984) (7377 5902) (7440 5828) (7498 5759) (7551 5696) (7600 5636) (7646 5580) (7689 5527) (7729 5476) (7768 5427) (7805 5380) (7840 5335) (7873 5291) (7905 5249) (7936 5208) (7966 5169) (7995 5130) (8022 5093) (8049 5057) (8075 5021) (8100 4986) (8124 4953) (8148 4920) (8171 4887) (8193 4856) (8215 4825) (8236 4794) (8257 4765 8257 4765) (8277 4735) (8296 4707) (8315 4679) (8334 4651) (8352 4624 8352 4624) (8370 4597 8370 4597) (8388 4571 8388 4571) (8405 4545) (8422 4520 8422 4520) (8438 4495 8438 4495) (8454 4470 8454 4470) (8470 4444 8469 4447) (8492 4404 8478 4439) (8547 4285 8449 4522) (8613 4132 8389 4675) (8659 4029 8348 4786) (8694 3951 8317 4872) (8724 3885 8291 4944) (8750 3828 8269 5009) (8773 3777 8250 5067) (8795 3731 8233 5121) (8815 3688 8217 5171) (8832 3652 8207 5210) (8817 3703 8278 5060) (8808 3738 8333 4945) (8785 3809 8419 4752) (8852 3638 8286 5085) (8968 3323 7965 5818) (8917 3475 8163 5398) (7833 6128 8565 4436) (8829 3744 8479 4670) (8324 5063 9074 3051) (9100 2983 7618 6604) (8355 5016 9125 2915) (9065 3101 7830 6218) (8558 4529 9094 3025) (8916 3557 8434 4861) (8620 4390 9088 3060) (8269 5296 9218 2668) (2792 7467 7018 7764) (4056 8968 3442 8397) (7631 6742 8193 5523) (9349 2275 6572 8425) (7971 6064 8950 3524) (5412 9336 2330 6720) (3247 8266 5403 9364) (7122 7747 6597 8486) (6253 8880 3769 8901) (9380 2211 6545 8593) (5722 9326 2393 6936) (5597 9414 2108 6356) (5047 9574 1562) (1494 4881 9595 1494) (1495 4895 9621 1405) (1562 5086 9647 1314) (4363 9518 1775 5651) (6594 8714 4349 9536) (4014 9347 2376 7046) (9621 1422 4757 9727) (8388 5287 9743 980) (5315 9761 914 3257) (1559 5172 9813 720) (7179 7979 6354 9127) (5425 9804 761 2776) (9664 1285 4435 9774) (6332 9221 2852 8094) (3672 9248 2766 7964) (4611 9915 338 1303))) :lonset (quote (0 150 300 450 600 750 900 1050 1200 1350 1500 1650 1800 1950 2100 2250 2400 2550 2700 2850 3000 3150 3300 3450 3600 3750 3900 4050 4200 4350 4500 4650 4800 4950 5100 5250 5400 5550 5700 5850 6000 6150 6300 6450 6600 6750 6900 7050 7200 7350 7500 7650 7800 7950 8100 8250 8400 8550 8700 8850 9000 9150 9300 9450 9600 9750 9900 10050 10200 10350 10500 10650 10800 10950 11100 11250 11400 11550 11700 11850 12000 12150 12300 12450 12600 12750 12900 13050 13200 13350 13500 13650 13800 13950 14100 14250 14400 14550 14700 14850 15000 15150 15300 15450 15600 15750 15900 16050 16200 16350 16500 16650 16800 16950 17100 17250 17400 17550 17700 17850 18000 18150 18300 18450 18600 18750 18900 19050 19200 19350 19500 19650 19800 19950 20100 20250 20400 20550 20700 20850 21000 21150 21300 21450 21600 21750 21900 22050 22200 22350 22500 22650 22800 22950 23100 23250 23400 23550 23700 23850 24000 24150 24300 24450 24600 24750 24900 25050 25200 25350 25500 25650 25800 25950 26100 26250 26400 26550 26700 26850 27000 27150 27300 27450 27600 27750 27900 28050 28200 28350 28500 28650 28800 28950 29100 29250 29400 29550 29700 29850 29950)) :ldur (quote ((100) (100) (100) (100) (100) (100) (100) (100) (100) (100) (100) (100) (100) (100 100) (100) (100) (100) (100) (100 100) (100) (100) (100) (100) (100) (100 100) (100 100) (100 100) (100) (100) (100) (100 100) (100) (100) (100) (100 100) (100) (100) (100) (100) (100 100) (100 100) (100) (100 100) (100 100) (100 100) (100) (100 100) (100 100) (100 100) (100 100) (100 100) (100) (100 100) (100 100) (100) (100 100) (100 100) (100 100) (100 100) (100 100) (100 100) (100) (100 100) (100 100) (100) (100) (100) (100 100) (100 100) (100 100) (100 100) (100 100) (100 100) (100 100) (100 100) (100) (100 100) (100 100) (100) (100 100) (100 100) (100 100) (100 100) (100 100) (100 100) (100 100) (100 100) (100 100) (100 100) (100 100 100 100) (100 100 100 100) (100 100 100 100) (100 100 100 100) (100 100 100 100) (100 100 100 100) (100 100 100 100) (100 100 100 100) (100 100 100 100) (100 100 100 100) (100 100 100 100) (100 100 100 100) (100 100 100 100) (100 100 100 100) (100 100 100 100) (100 100 100 100) (100 100) (100 100) (100 100) (100 100) (100 100) (100 100) (100 100) (100 100) (100 100) (100 100) (100 100) (100 100) (100 100) (100 100) (100 100) (100 100) (100 100) (100 100) (100 100) (100 100) (100 100) (100 100) (100 100) (100 100) (100 100) (100 100) (100 100 100 100) (100 100) (100 100) (100 100) (100 100) (100 100 100 100) (100 100 100 100) (100 100 100 100) (100 100) (100 100 100 100) (100 100 100 100) (100 100 100 100) (100 100 100 100) (100 100 100 100) (100 100 100 100) (100 100 100 100) (100 100 100 100) (100 100 100 100) (100 100 100 100) (100 100 100 100) (100 100 100 100) (100 100 100 100) (100 100 100 100) (100 100 100 100) (100 100 100 100) (100 100 100 100) (100 100 100 100) (100 100 100 100) (100 100 100 100) (100 100 100 100) (100 100 100 100) (100 100 100 100) (100 100 100 100) (100 100 100 100) (100 100 100 100) (100 100 100 100) (100 100 100 100) (100 100 100 100) (100 100 100 100) (100 100 100 100) (100 100 100 100) (100 100 100 100) (100 100 100 100) (100 100 100 100) (100 100 100 100) (100 100 100 100) (100 100 100 100) (100 100 100 100) (100 100 100 100) (100 100 100 100) (100 100 100 100) (100 100 100 100) (100 100 100) (100 100 100 100) (100 100 100 100) (100 100 100 100) (100 100 100 100) (100 100 100 100) (100 100 100 100) (100 100 100 100) (100 100 100 100) (100 100 100 100) (100 100 100 100) (100 100 100 100) (100 100 100 100) (100 100 100 100) (100 100 100 100) (100 100 100 100) (100 100 100 100))) :lvel (quote ((100) (100) (100) (100) (100) (100) (100) (100) (100) (100) (100) (100) (100) (100 100) (100) (100) (100) (100) (100 100) (100) (100) (100) (100) (100) (100 100) (100 100) (100 100) (100) (100) (100) (100 100) (100) (100) (100) (100 100) (100) (100) (100) (100) (100 100) (100 100) (100) (100 100) (100 100) (100 100) (100) (100 100) (100 100) (100 100) (100 100) (100 100) (100) (100 100) (100 100) (100) (100 100) (100 100) (100 100) (100 100) (100 100) (100 100) (100) (100 100) (100 100) (100) (100) (100) (100 100) (100 100) (100 100) (100 100) (100 100) (100 100) (100 100) (100 100) (100) (100 100) (100 100) (100) (100 100) (100 100) (100 100) (100 100) (100 100) (100 100) (100 100) (100 100) (100 100) (100 100) (100 100 100 100) (100 100 100 100) (100 100 100 100) (100 100 100 100) (100 100 100 100) (100 100 100 100) (100 100 100 100) (100 100 100 100) (100 100 100 100) (100 100 100 100) (100 100 100 100) (100 100 100 100) (100 100 100 100) (100 100 100 100) (100 100 100 100) (100 100 100 100) (100 100) (100 100) (100 100) (100 100) (100 100) (100 100) (100 100) (100 100) (100 100) (100 100) (100 100) (100 100) (100 100) (100 100) (100 100) (100 100) (100 100) (100 100) (100 100) (100 100) (100 100) (100 100) (100 100) (100 100) (100 100) (100 100) (100 100 100 100) (100 100) (100 100) (100 100) (100 100) (100 100 100 100) (100 100 100 100) (100 100 100 100) (100 100) (100 100 100 100) (100 100 100 100) (100 100 100 100) (100 100 100 100) (100 100 100 100) (100 100 100 100) (100 100 100 100) (100 100 100 100) (100 100 100 100) (100 100 100 100) (100 100 100 100) (100 100 100 100) (100 100 100 100) (100 100 100 100) (100 100 100 100) (100 100 100 100) (100 100 100 100) (100 100 100 100) (100 100 100 100) (100 100 100 100) (100 100 100 100) (100 100 100 100) (100 100 100 100) (100 100 100 100) (100 100 100 100) (100 100 100 100) (100 100 100 100) (100 100 100 100) (100 100 100 100) (100 100 100 100) (100 100 100 100) (100 100 100 100) (100 100 100 100) (100 100 100 100) (100 100 100 100) (100 100 100 100) (100 100 100 100) (100 100 100 100) (100 100 100 100) (100 100 100 100) (100 100 100 100) (100 100 100 100) (100 100 100 100) (100 100 100) (100 100 100 100) (100 100 100 100) (100 100 100 100) (100 100 100 100) (100 100 100 100) (100 100 100 100) (100 100 100 100) (100 100 100 100) (100 100 100 100) (100 100 100 100) (100 100 100 100) (100 100 100 100) (100 100 100 100) (100 100 100 100) (100 100 100 100) (100 100 100 100))) :loffset (quote ((0) (0) (0) (0) (0) (0) (0) (0) (0) (0) (0) (0) (0) (0 0) (0) (0) (0) (0) (0 0) (0) (0) (0) (0) (0) (0 0) (0 0) (0 0) (0) (0) (0) (0 0) (0) (0) (0) (0 0) (0) (0) (0) (0) (0 0) (0 0) (0) (0 0) (0 0) (0 0) (0) (0 0) (0 0) (0 0) (0 0) (0 0) (0) (0 0) (0 0) (0) (0 0) (0 0) (0 0) (0 0) (0 0) (0 0) (0) (0 0) (0 0) (0) (0) (0) (0 0) (0 0) (0 0) (0 0) (0 0) (0 0) (0 0) (0 0) (0) (0 0) (0 0) (0) (0 0) (0 0) (0 0) (0 0) (0 0) (0 0) (0 0) (0 0) (0 0) (0 0) (0 0 0 0) (0 0 0 0) (0 0 0 0) (0 0 0 0) (0 0 0 0) (0 0 0 0) (0 0 0 0) (0 0 0 0) (0 0 0 0) (0 0 0 0) (0 0 0 0) (0 0 0 0) (0 0 0 0) (0 0 0 0) (0 0 0 0) (0 0 0 0) (0 0) (0 0) (0 0) (0 0) (0 0) (0 0) (0 0) (0 0) (0 0) (0 0) (0 0) (0 0) (0 0) (0 0) (0 0) (0 0) (0 0) (0 0) (0 0) (0 0) (0 0) (0 0) (0 0) (0 0) (0 0) (0 0) (0 0 0 0) (0 0) (0 0) (0 0) (0 0) (0 0 0 0) (0 0 0 0) (0 0 0 0) (0 0) (0 0 0 0) (0 0 0 0) (0 0 0 0) (0 0 0 0) (0 0 0 0) (0 0 0 0) (0 0 0 0) (0 0 0 0) (0 0 0 0) (0 0 0 0) (0 0 0 0) (0 0 0 0) (0 0 0 0) (0 0 0 0) (0 0 0 0) (0 0 0 0) (0 0 0 0) (0 0 0 0) (0 0 0 0) (0 0 0 0) (0 0 0 0) (0 0 0 0) (0 0 0 0) (0 0 0 0) (0 0 0 0) (0 0 0 0) (0 0 0 0) (0 0 0 0) (0 0 0 0) (0 0 0 0) (0 0 0 0) (0 0 0 0) (0 0 0 0) (0 0 0 0) (0 0 0 0) (0 0 0 0) (0 0 0 0) (0 0 0 0) (0 0 0 0) (0 0 0 0) (0 0 0 0) (0 0 0 0) (0 0 0 0) (0 0 0) (0 0 0 0) (0 0 0 0) (0 0 0 0) (0 0 0 0) (0 0 0 0) (0 0 0 0) (0 0 0 0) (0 0 0 0) (0 0 0 0) (0 0 0 0) (0 0 0 0) (0 0 0 0) (0 0 0 0) (0 0 0 0) (0 0 0 0) (0 0 0 0))) :lchan (quote ((1) (1) (1) (1) (1) (1) (1) (1) (1) (1) (1) (1) (1) (1 1) (1) (1) (1) (1) (1 1) (1) (1) (1) (1) (1) (1 1) (1 1) (1 1) (1) (1) (1) (1 1) (1) (1) (1) (1 1) (1) (1) (1) (1) (1 1) (1 1) (1) (1 1) (1 1) (1 1) (1) (1 1) (1 1) (1 1) (1 1) (1 1) (1) (1 1) (1 1) (1) (1 1) (1 1) (1 1) (1 1) (1 1) (1 1) (1) (1 1) (1 1) (1) (1) (1) (1 1) (1 1) (1 1) (1 1) (1 1) (1 1) (1 1) (1 1) (1) (1 1) (1 1) (1) (1 1) (1 1) (1 1) (1 1) (1 1) (1 1) (1 1) (1 1) (1 1) (1 1) (1 1 1 1) (1 1 1 1) (1 1 1 1) (1 1 1 1) (1 1 1 1) (1 1 1 1) (1 1 1 1) (1 1 1 1) (1 1 1 1) (1 1 1 1) (1 1 1 1) (1 1 1 1) (1 1 1 1) (1 1 1 1) (1 1 1 1) (1 1 1 1) (1 1) (1 1) (1 1) (1 1) (1 1) (1 1) (1 1) (1 1) (1 1) (1 1) (1 1) (1 1) (1 1) (1 1) (1 1) (1 1) (1 1) (1 1) (1 1) (1 1) (1 1) (1 1) (1 1) (1 1) (1 1) (1 1) (1 1 1 1) (1 1) (1 1) (1 1) (1 1) (1 1 1 1) (1 1 1 1) (1 1 1 1) (1 1) (1 1 1 1) (1 1 1 1) (1 1 1 1) (1 1 1 1) (1 1 1 1) (1 1 1 1) (1 1 1 1) (1 1 1 1) (1 1 1 1) (1 1 1 1) (1 1 1 1) (1 1 1 1) (1 1 1 1) (1 1 1 1) (1 1 1 1) (1 1 1 1) (1 1 1 1) (1 1 1 1) (1 1 1 1) (1 1 1 1) (1 1 1 1) (1 1 1 1) (1 1 1 1) (1 1 1 1) (1 1 1 1) (1 1 1 1) (1 1 1 1) (1 1 1 1) (1 1 1 1) (1 1 1 1) (1 1 1 1) (1 1 1 1) (1 1 1 1) (1 1 1 1) (1 1 1 1) (1 1 1 1) (1 1 1 1) (1 1 1 1) (1 1 1 1) (1 1 1 1) (1 1 1 1) (1 1 1 1) (1 1 1 1) (1 1 1) (1 1 1 1) (1 1 1 1) (1 1 1 1) (1 1 1 1) (1 1 1 1) (1 1 1 1) (1 1 1 1) (1 1 1 1) (1 1 1 1) (1 1 1 1) (1 1 1 1) (1 1 1 1) (1 1 1 1) (1 1 1 1) (1 1 1 1) (1 1 1 1))) :legato 0)))) (load-port-info newobj (quote ((0) (0) (0) (0) (0) (0) (0) (0) (0) (0) (0) (0) (0) (0 0) (0) (0) (0) (0) (0 0) (0) (0) (0) (0) (0) (0 0) (0 0) (0 0) (0) (0) (0) (0 0) (0) (0) (0) (0 0) (0) (0) (0) (0) (0 0) (0 0) (0) (0 0) (0 0) (0 0) (0) (0 0) (0 0) (0 0) (0 0) (0 0) (0) (0 0) (0 0) (0) (0 0) (0 0) (0 0) (0 0) (0 0) (0 0) (0) (0 0) (0 0) (0) (0) (0) (0 0) (0 0) (0 0) (0 0) (0 0) (0 0) (0 0) (0 0) (0) (0 0) (0 0) (0) (0 0) (0 0) (0 0) (0 0) (0 0) (0 0) (0 0) (0 0) (0 0) (0 0) (0 0 0 0) (0 0 0 0) (0 0 0 0) (0 0 0 0) (0 0 0 0) (0 0 0 0) (0 0 0 0) (0 0 0 0) (0 0 0 0) (0 0 0 0) (0 0 0 0) (0 0 0 0) (0 0 0 0) (0 0 0 0) (0 0 0 0) (0 0 0 0) (0 0) (0 0) (0 0) (0 0) (0 0) (0 0) (0 0) (0 0) (0 0) (0 0) (0 0) (0 0) (0 0) (0 0) (0 0) (0 0) (0 0) (0 0) (0 0) (0 0) (0 0) (0 0) (0 0) (0 0) (0 0) (0 0) (0 0 0 0) (0 0) (0 0) (0 0) (0 0) (0 0 0 0) (0 0 0 0) (0 0 0 0) (0 0) (0 0 0 0) (0 0 0 0) (0 0 0 0) (0 0 0 0) (0 0 0 0) (0 0 0 0) (0 0 0 0) (0 0 0 0) (0 0 0 0) (0 0 0 0) (0 0 0 0) (0 0 0 0) (0 0 0 0) (0 0 0 0) (0 0 0 0) (0 0 0 0) (0 0 0 0) (0 0 0 0) (0 0 0 0) (0 0 0 0) (0 0 0 0) (0 0 0 0) (0 0 0 0) (0 0 0 0) (0 0 0 0) (0 0 0 0) (0 0 0 0) (0 0 0 0) (0 0 0 0) (0 0 0 0) (0 0 0 0) (0 0 0 0) (0 0 0 0) (0 0 0 0) (0 0 0 0) (0 0 0 0) (0 0 0 0) (0 0 0 0) (0 0 0 0) (0 0 0 0) (0 0 0 0) (0 0 0 0) (0 0 0 0) (0 0 0) (0 0 0 0) (0 0 0 0) (0 0 0 0) (0 0 0 0) (0 0 0 0) (0 0 0 0) (0 0 0 0) (0 0 0 0) (0 0 0 0) (0 0 0 0) (0 0 0 0) (0 0 0 0) (0 0 0 0) (0 0 0 0) (0 0 0 0) (0 0 0 0)))) (init-mus-color newobj (quote nil)) (set-extra-pairs newobj (quote nil)) (set-patch-pairs newobj (quote ((nil (om-load-patch-abs1 "patch" (quote nil) (quote nil) 7.06 nil "" (om-make-point 200 200) (om-make-point 400 500)))))) (set-name newobj nil) (set-tonalite newobj nil) newobj) nil nil (pairlis (quote (approx fontsize staff cmnpref deltapict outport inport player zoom notechancolor? grillestep mode winsize winpos score-mode obj-mode cursor-mode show-stems scale onset measure)) (list 16 24 (quote ggff) (let ((newobj (make-instance (quote edition-values)))) (setf (paper-size newobj) (om-make-point 600 800)) (setf (top-margin newobj) 2) (setf (left-margin newobj) 1) (setf (right-margin newobj) 1) (setf (bottom-margin newobj) 1) (setf (orientation newobj) nil) (setf (scale newobj) nil) (setf (system-space newobj) (quote (1))) (setf (system-color newobj) (quote nil)) (setf (line-space newobj) 1) (setf (title newobj) nil) (setf (show-title? newobj) nil) (setf (show-page? newobj) nil) (setf (sheet-id newobj) nil) (setf (page-mode newobj) nil) newobj) (om-make-point 0 0) nil nil (quote :fluidsynth) 1 nil 1000 0 (om-make-point 737 415) (om-make-point 221 163) 0 1 (quote :normal) (quote t) nil nil nil)) nil nil nil nil (quote nil)))) (when (fboundp (quote set-active)) (set-active box nil)) box) (let ((box (om-load-boxcall (quote bastype) "aux 6" (quote t) (quote nil) (om-make-point 152 296) (om-make-point 62 30) (list 0 150) "(0 150)" nil))) (when (fboundp (quote set-active)) (set-active box nil)) box) (let ((box (om-load-boxcall (quote bastype) "aux 8" (quote t) (quote nil) (om-make-point 189 330) (om-make-point 51 30) (list 100) "(100)" nil))) (when (fboundp (quote set-active)) (set-active box nil)) box) (let ((box (om-load-boxcall (quote bastype) "aux 9" (quote t) (quote nil) (om-make-point 181 158) (om-make-point 41 30) 100 "100" nil))) (when (fboundp (quote set-active)) (set-active box nil)) box) (let ((box (om-load-boxcall (quote genfun) "ARITHM-SER 2" (quote arithm-ser) (quote ((om-load-inputfun (quote input-funbox) "begin" "BEGIN" 0) (om-load-inputfun (quote input-funbox) "end " "END" 10) (om-load-inputfun (quote input-funbox) "step" "STEP" 1))) (om-make-point 392 117) nil nil nil nil 1))) (when (fboundp (quote set-active)) (set-active box nil)) box) (let ((box (om-load-boxcall (quote bastype) "aux 10" (quote t) (quote nil) (om-make-point 408 60) (om-make-point 59 30) 3.9999 "3.9999" nil))) (when (fboundp (quote set-active)) (set-active box nil)) box) (let ((box (om-load-boxcall (quote bastype) "aux 11" (quote t) (quote nil) (om-make-point 463 82) (om-make-point 45 30) 0.01 "0.01" nil))) (when (fboundp (quote set-active)) (set-active box nil)) box) (let ((box (om-load-editor-box1 "CHORD-SEQ 2" (quote chord-seq) (quote ((om-load-inputfun (quote input-funbox) "object" "self" nil) (om-load-inputfun (quote input-funbox) "pitches (mc): list or list of lists" "lmidic" (list 6000)) (om-load-inputfun (quote input-funbox) "onsets (ms): list" "lonset" (list 0 1000)) (om-load-inputfun (quote input-funbox) "durations (ms): list or list of lists" "ldur" (list 1000)) (om-load-inputfun (quote input-funbox) "velocities (0-127): list or list of lists" "lvel" (list 100)) (om-load-inputfun (quote input-funbox) "offsets (ms): list or list of lists" "loffset" (list 0)) (om-load-inputfun (quote input-funbox) "MIDI channels (1-16): list or list of lists" "lchan" (list 1)) (om-load-inputfun (quote input-funbox) "relative chords duration (0-100)" "legato" 0))) (om-make-point 393 387) (om-make-point 130 70) (let ((newobj (when (find-class (quote chord-seq) nil) (make-instance (quote chord-seq) :lmidic (quote ((1935) (2000) (2063) (2126) (2188) (2248) (2308) (2366) (2424) (2481) (2537) (2593) (2647) (2701) (2754) (2806) (2857) (2908) (2958) (3007) (3056) (3103) (3151 3151) (3197) (3243) (3289) (3333) (3377) (3421) (3464) (3506) (3548) (3590) (3631) (3671 3671) (3711) (3750) (3789 3789) (3827) (3865 3865) (3902) (3939) (3976) (4012 4012) (4048) (4083 4083) (4118) (4152) (4186 4186) (4220 4220) (4253 4253) (4286 4286) (4318) (4350) (4382) (4413) (4444) (4475 4475) (4505) (4536) (4565) (4595 4595 4595) (4624) (4652) (4681) (4709) (4737 4737) (4764) (4792) (4819 4819) (4845 4845) (4872 4872) (4898 4898) (4924) (4949 4949) (4975 4975) (5000) (5025) (5050) (5074) (5098) (5122) (5146) (5169) (5192) (5215) (5238) (5261 5261) (5283) (5305) (5327) (5349) (5370 5370) (5392) (5413) (5434) (5455) (5475) (5495 5495) (5516) (5536 5536) (5556) (5575) (5595) (5614 5614) (5633 5633) (5652) (5671 5671) (5690) (5708) (5726 5726) (5745) (5763) (5781 5781) (5798 5798) (5816) (5833) (5851 5851) (5868) (5885 5885) (5902 5902) (5918) (5935 5935) (5951 5951) (5968 5968) (5984 5984) (6000 6000) (6016 6016) (6032) (6047) (6063 6063) (6078) (6094 6094) (6109) (6124 6124) (6139 6139) (6154) (6169 6169) (6183 6183) (6198 6198) (6212 6212) (6226 6226) (6241 6241) (6255 6255) (6269) (6283) (6296 6296) (6310 6310) (6324 6324) (6337 6337) (6350 6350) (6364 6364) (6377) (6390 6390) (6403 6403) (6416 6416) (6429 6429) (6441 6441) (6454 6454) (6466 6466) (6479 6479) (6491 6491) (6503 6503) (6516 6516) (6528 6528) (6540 6540 6540 6540 6540 6540 6540 6540) (6552 6552 6552 6552 6552 6552 6552 6552) (6564 6564 6564 6564 6564 6564 6564 6564) (6575 6575 6575 6575 6575 6575 6575 6575) (6587 6587 6587 6587 6587 6587 6587 6587) (6600 6598 6600 6598 6600 6598 6599 6598) (6613 6607 6613 6607 6613 6608 6613 6608) (6630 6613 6630 6614 6629 6615 6628 6615) (6655 6611 6654 6613 6653 6614 6651 6615) (6698 6591 6696 6593 6694 6595 6692 6597) (6772 6536 6770 6538 6767 6541 6765 6544) (6884 6435 6882 6437 6880 6439 6878 6442) (7011 6307 7011 6308 7010 6309 7009 6310) (7127 6183 7127 6184 7127 6184 7127 6184) (7224 6076 7224 6076 7224 6076 7224 6076) (7306 5984 7306 5984 7306 5984 7306 5984) (7377 5902 7377 5902) (7440 5828) (7498 5759) (7551 5696) (7600 5636) (7646 5580) (7689 5527) (7729 5476) (7768 5427) (7805 5380 7805 5380) (7840 5335 7840 5335) (7873 5291 7873 5291) (7905 5249) (7936 5208) (7966 5169) (7995 5130) (8022 5093) (8049 5057) (8075 5021) (8100 4986) (8124 4953) (8148 4920 8148 4920) (8171 4887 8171 4887) (8193 4856 8193 4856) (8215 4825 8215 4825) (8236 4794) (8257 4765) (8277 4735) (8296 4707) (8315 4679 8315 4679) (8334 4651 8334 4651) (8352 4624 8352 4624) (8370 4597 8370 4597) (8388 4571) (8405 4545 8405 4545) (8422 4520 8422 4520) (8438 4495 8438 4495) (8454 4470 8454 4470 8454 4470 8454 4470) (8470 4444 8469 4447 8470 4445 8469 4447) (8492 4404 8478 4439 8492 4406 8479 4437) (8547 4285 8449 4522 8546 4287 8450 4520) (8613 4132 8389 4675 8613 4132 8389 4675) (8659 4029 8348 4786) (8694 3951 8317 4872) (8724 3885 8291 4944) (8750 3828 8269 5009) (8773 3777 8250 5067 8773 3777 8250 5067) (8795 3731 8233 5121) (8815 3688 8217 5171 8815 3688 8217 5171) (8832 3652 8207 5210 8834 3645 8200 5224) (8817 3703 8278 5060 8874 3548 8127 5405) (8808 3738 8333 4945 8899 3488 8086 5509) (8785 3809 8419 4752 8903 3487 8107 5478) (8829 3702 8347 4940 8949 3368 7996 5736) (8704 4050 8651 4189 8739 3956 8584 4365) (8850 3663 8356 4945 8999 3243 7889 5996) (8975 3320 8006 5764 8814 3773 8481 4650) (7760 6292 8446 4752 9028 3177 7847 6115) (8324 5063 9074 3051 7697 6435 8327 5056) (8593 4401 8969 3365 8127 5540 8994 3294) (8167 5465 9046 3149 7875 6109 8676 4192) (7500 6863 7879 6116 8694 4155 8888 3616) (9166 2804 7405 7052 7630 6636 8193 5433) (7563 6783 8030 5821 8952 3453 8319 5147) (7490 6938 7839 6251 8648 4315 9052 3167) (7239 7396 7126 7577 6793 8061 5784 9023) (2529 7011 7775 6418 8529 4654 9230 2635) (5630 9152 2886 7638 6712 8210 5467 9219) (5812 9079 3119 8006 5955 8985 3403 8373) (9349 2275 6572 8425 4962 9349 2275 6572) (4491 9278 2513 7055 7792 6453 8584 4559) (9202 2762 7516 7019 7867 6310 8755 4098) (9115 3043 7980 6076 8988 3428 8493 4825) (3743 8853 3839 8940 3581 8689 4306 9268) (7787 6532 8586 4601 9415 2088 6262 8872) (5625 9352 2304 6738 8352 5231 9480 1874) (2650 7420 7293 7521 7103 7840 6452 8721) (5484 9460 1950 5997 9170 2906 7875 6392) (9574 1562 5047) (1494 4881 9595 1494 4880 9594 1494 4881) (1495 4895 9621 1405 4649 9578 1558 5063) (1556 5072 9648 1311 4397 9509 1801 5699) (3955 9253 2676 7585 7089 7987 6222 9097) (2686 7622 7032 8098 5976 9331 2423 7123) (3564 8923 3737 9105 3170 8422 5169 9714) (7039 8128 5934 9409 2167 6620 8727 4334) (5497 9679 1216 4178 9511 1820 5821 9512) (9795 787 2844 7977 6325 9112 3172 8490) (8952 3686 9146 3069 8360 5389 9765 900) (692 2537 7460 7466 7454 7477 7433 7518) (7336 7719 6955 8366 5400 9812 729 2671) (5089 9897 404 1536 5148 9891 426 1615) (8835 4085 9593 1550 5200 9909 358 1369) (6768 8705 4486 9845 608 2274 6993 8370) (7694 7080 8249 5764 9742 1002 3596 9189))) :lonset (quote (0 150 300 450 600 750 900 1050 1200 1350 1500 1650 1800 1950 2100 2250 2400 2550 2700 2850 3000 3150 3300 3450 3600 3750 3900 4050 4200 4350 4500 4650 4800 4950 5100 5250 5400 5550 5700 5850 6000 6150 6300 6450 6600 6750 6900 7050 7200 7350 7500 7650 7800 7950 8100 8250 8400 8550 8700 8850 9000 9150 9300 9450 9600 9750 9900 10050 10200 10350 10500 10650 10800 10950 11100 11250 11400 11550 11700 11850 12000 12150 12300 12450 12600 12750 12900 13050 13200 13350 13500 13650 13800 13950 14100 14250 14400 14550 14700 14850 15000 15150 15300 15450 15600 15750 15900 16050 16200 16350 16500 16650 16800 16950 17100 17250 17400 17550 17700 17850 18000 18150 18300 18450 18600 18750 18900 19050 19200 19350 19500 19650 19800 19950 20100 20250 20400 20550 20700 20850 21000 21150 21300 21450 21600 21750 21900 22050 22200 22350 22500 22650 22800 22950 23100 23250 23400 23550 23700 23850 24000 24150 24300 24450 24600 24750 24900 25050 25200 25350 25500 25650 25800 25950 26100 26250 26400 26550 26700 26850 27000 27150 27300 27450 27600 27750 27900 28050 28200 28350 28500 28650 28800 28950 29100 29250 29400 29550 29700 29850 30000 30150 30300 30450 30600 30750 30900 31050 31200 31350 31500 31650 31800 31950 32100 32250 32400 32550 32700 32850 33000 33150 33300 33450 33600 33750 33900 34050 34200 34350 34500 34650 34800 34950 35100 35250 35400 35550 35700 35850 36000 36150 36300 36450 36600 36750 36900 37050 37200 37350 37500 37650 37800 37950 38100 38250 38400 38550 38700 38850 39000 39150 39300 39450 39600 39750 39900 40050 40200 40350 40500 40650 40800 40950 41100 41250 41350)) :ldur (quote ((100) (100) (100) (100) (100) (100) (100) (100) (100) (100) (100) (100) (100) (100) (100) (100) (100) (100) (100) (100) (100) (100) (100 100) (100) (100) (100) (100) (100) (100) (100) (100) (100) (100) (100) (100 100) (100) (100) (100 100) (100) (100 100) (100) (100) (100) (100 100) (100) (100 100) (100) (100) (100 100) (100 100) (100 100) (100 100) (100) (100) (100) (100) (100) (100 100) (100) (100) (100) (100 100 100) (100) (100) (100) (100) (100 100) (100) (100) (100 100) (100 100) (100 100) (100 100) (100) (100 100) (100 100) (100) (100) (100) (100) (100) (100) (100) (100) (100) (100) (100) (100 100) (100) (100) (100) (100) (100 100) (100) (100) (100) (100) (100) (100 100) (100) (100 100) (100) (100) (100) (100 100) (100 100) (100) (100 100) (100) (100) (100 100) (100) (100) (100 100) (100 100) (100) (100) (100 100) (100) (100 100) (100 100) (100) (100 100) (100 100) (100 100) (100 100) (100 100) (100 100) (100) (100) (100 100) (100) (100 100) (100) (100 100) (100 100) (100) (100 100) (100 100) (100 100) (100 100) (100 100) (100 100) (100 100) (100) (100) (100 100) (100 100) (100 100) (100 100) (100 100) (100 100) (100) (100 100) (100 100) (100 100) (100 100) (100 100) (100 100) (100 100) (100 100) (100 100) (100 100) (100 100) (100 100) (100 100 100 100 100 100 100 100) (100 100 100 100 100 100 100 100) (100 100 100 100 100 100 100 100) (100 100 100 100 100 100 100 100) (100 100 100 100 100 100 100 100) (100 100 100 100 100 100 100 100) (100 100 100 100 100 100 100 100) (100 100 100 100 100 100 100 100) (100 100 100 100 100 100 100 100) (100 100 100 100 100 100 100 100) (100 100 100 100 100 100 100 100) (100 100 100 100 100 100 100 100) (100 100 100 100 100 100 100 100) (100 100 100 100 100 100 100 100) (100 100 100 100 100 100 100 100) (100 100 100 100 100 100 100 100) (100 100 100 100) (100 100) (100 100) (100 100) (100 100) (100 100) (100 100) (100 100) (100 100) (100 100 100 100) (100 100 100 100) (100 100 100 100) (100 100) (100 100) (100 100) (100 100) (100 100) (100 100) (100 100) (100 100) (100 100) (100 100 100 100) (100 100 100 100) (100 100 100 100) (100 100 100 100) (100 100) (100 100) (100 100) (100 100) (100 100 100 100) (100 100 100 100) (100 100 100 100) (100 100 100 100) (100 100) (100 100 100 100) (100 100 100 100) (100 100 100 100) (100 100 100 100 100 100 100 100) (100 100 100 100 100 100 100 100) (100 100 100 100 100 100 100 100) (100 100 100 100 100 100 100 100) (100 100 100 100 100 100 100 100) (100 100 100 100) (100 100 100 100) (100 100 100 100) (100 100 100 100) (100 100 100 100 100 100 100 100) (100 100 100 100) (100 100 100 100 100 100 100 100) (100 100 100 100 100 100 100 100) (100 100 100 100 100 100 100 100) (100 100 100 100 100 100 100 100) (100 100 100 100 100 100 100 100) (100 100 100 100 100 100 100 100) (100 100 100 100 100 100 100 100) (100 100 100 100 100 100 100 100) (100 100 100 100 100 100 100 100) (100 100 100 100 100 100 100 100) (100 100 100 100 100 100 100 100) (100 100 100 100 100 100 100 100) (100 100 100 100 100 100 100 100) (100 100 100 100 100 100 100 100) (100 100 100 100 100 100 100 100) (100 100 100 100 100 100 100 100) (100 100 100 100 100 100 100 100) (100 100 100 100 100 100 100 100) (100 100 100 100 100 100 100 100) (100 100 100 100 100 100 100 100) (100 100 100 100 100 100 100 100) (100 100 100 100 100 100 100 100) (100 100 100 100 100 100 100 100) (100 100 100 100 100 100 100 100) (100 100 100 100 100 100 100 100) (100 100 100 100 100 100 100 100) (100 100 100 100 100 100 100 100) (100 100 100 100 100 100 100 100) (100 100 100 100 100 100 100 100) (100 100 100 100 100 100 100 100) (100 100 100) (100 100 100 100 100 100 100 100) (100 100 100 100 100 100 100 100) (100 100 100 100 100 100 100 100) (100 100 100 100 100 100 100 100) (100 100 100 100 100 100 100 100) (100 100 100 100 100 100 100 100) (100 100 100 100 100 100 100 100) (100 100 100 100 100 100 100 100) (100 100 100 100 100 100 100 100) (100 100 100 100 100 100 100 100) (100 100 100 100 100 100 100 100) (100 100 100 100 100 100 100 100) (100 100 100 100 100 100 100 100) (100 100 100 100 100 100 100 100) (100 100 100 100 100 100 100 100) (100 100 100 100 100 100 100 100))) :lvel (quote ((100) (100) (100) (100) (100) (100) (100) (100) (100) (100) (100) (100) (100) (100) (100) (100) (100) (100) (100) (100) (100) (100) (100 100) (100) (100) (100) (100) (100) (100) (100) (100) (100) (100) (100) (100 100) (100) (100) (100 100) (100) (100 100) (100) (100) (100) (100 100) (100) (100 100) (100) (100) (100 100) (100 100) (100 100) (100 100) (100) (100) (100) (100) (100) (100 100) (100) (100) (100) (100 100 100) (100) (100) (100) (100) (100 100) (100) (100) (100 100) (100 100) (100 100) (100 100) (100) (100 100) (100 100) (100) (100) (100) (100) (100) (100) (100) (100) (100) (100) (100) (100 100) (100) (100) (100) (100) (100 100) (100) (100) (100) (100) (100) (100 100) (100) (100 100) (100) (100) (100) (100 100) (100 100) (100) (100 100) (100) (100) (100 100) (100) (100) (100 100) (100 100) (100) (100) (100 100) (100) (100 100) (100 100) (100) (100 100) (100 100) (100 100) (100 100) (100 100) (100 100) (100) (100) (100 100) (100) (100 100) (100) (100 100) (100 100) (100) (100 100) (100 100) (100 100) (100 100) (100 100) (100 100) (100 100) (100) (100) (100 100) (100 100) (100 100) (100 100) (100 100) (100 100) (100) (100 100) (100 100) (100 100) (100 100) (100 100) (100 100) (100 100) (100 100) (100 100) (100 100) (100 100) (100 100) (100 100 100 100 100 100 100 100) (100 100 100 100 100 100 100 100) (100 100 100 100 100 100 100 100) (100 100 100 100 100 100 100 100) (100 100 100 100 100 100 100 100) (100 100 100 100 100 100 100 100) (100 100 100 100 100 100 100 100) (100 100 100 100 100 100 100 100) (100 100 100 100 100 100 100 100) (100 100 100 100 100 100 100 100) (100 100 100 100 100 100 100 100) (100 100 100 100 100 100 100 100) (100 100 100 100 100 100 100 100) (100 100 100 100 100 100 100 100) (100 100 100 100 100 100 100 100) (100 100 100 100 100 100 100 100) (100 100 100 100) (100 100) (100 100) (100 100) (100 100) (100 100) (100 100) (100 100) (100 100) (100 100 100 100) (100 100 100 100) (100 100 100 100) (100 100) (100 100) (100 100) (100 100) (100 100) (100 100) (100 100) (100 100) (100 100) (100 100 100 100) (100 100 100 100) (100 100 100 100) (100 100 100 100) (100 100) (100 100) (100 100) (100 100) (100 100 100 100) (100 100 100 100) (100 100 100 100) (100 100 100 100) (100 100) (100 100 100 100) (100 100 100 100) (100 100 100 100) (100 100 100 100 100 100 100 100) (100 100 100 100 100 100 100 100) (100 100 100 100 100 100 100 100) (100 100 100 100 100 100 100 100) (100 100 100 100 100 100 100 100) (100 100 100 100) (100 100 100 100) (100 100 100 100) (100 100 100 100) (100 100 100 100 100 100 100 100) (100 100 100 100) (100 100 100 100 100 100 100 100) (100 100 100 100 100 100 100 100) (100 100 100 100 100 100 100 100) (100 100 100 100 100 100 100 100) (100 100 100 100 100 100 100 100) (100 100 100 100 100 100 100 100) (100 100 100 100 100 100 100 100) (100 100 100 100 100 100 100 100) (100 100 100 100 100 100 100 100) (100 100 100 100 100 100 100 100) (100 100 100 100 100 100 100 100) (100 100 100 100 100 100 100 100) (100 100 100 100 100 100 100 100) (100 100 100 100 100 100 100 100) (100 100 100 100 100 100 100 100) (100 100 100 100 100 100 100 100) (100 100 100 100 100 100 100 100) (100 100 100 100 100 100 100 100) (100 100 100 100 100 100 100 100) (100 100 100 100 100 100 100 100) (100 100 100 100 100 100 100 100) (100 100 100 100 100 100 100 100) (100 100 100 100 100 100 100 100) (100 100 100 100 100 100 100 100) (100 100 100 100 100 100 100 100) (100 100 100 100 100 100 100 100) (100 100 100 100 100 100 100 100) (100 100 100 100 100 100 100 100) (100 100 100 100 100 100 100 100) (100 100 100 100 100 100 100 100) (100 100 100) (100 100 100 100 100 100 100 100) (100 100 100 100 100 100 100 100) (100 100 100 100 100 100 100 100) (100 100 100 100 100 100 100 100) (100 100 100 100 100 100 100 100) (100 100 100 100 100 100 100 100) (100 100 100 100 100 100 100 100) (100 100 100 100 100 100 100 100) (100 100 100 100 100 100 100 100) (100 100 100 100 100 100 100 100) (100 100 100 100 100 100 100 100) (100 100 100 100 100 100 100 100) (100 100 100 100 100 100 100 100) (100 100 100 100 100 100 100 100) (100 100 100 100 100 100 100 100) (100 100 100 100 100 100 100 100))) :loffset (quote ((0) (0) (0) (0) (0) (0) (0) (0) (0) (0) (0) (0) (0) (0) (0) (0) (0) (0) (0) (0) (0) (0) (0 0) (0) (0) (0) (0) (0) (0) (0) (0) (0) (0) (0) (0 0) (0) (0) (0 0) (0) (0 0) (0) (0) (0) (0 0) (0) (0 0) (0) (0) (0 0) (0 0) (0 0) (0 0) (0) (0) (0) (0) (0) (0 0) (0) (0) (0) (0 0 0) (0) (0) (0) (0) (0 0) (0) (0) (0 0) (0 0) (0 0) (0 0) (0) (0 0) (0 0) (0) (0) (0) (0) (0) (0) (0) (0) (0) (0) (0) (0 0) (0) (0) (0) (0) (0 0) (0) (0) (0) (0) (0) (0 0) (0) (0 0) (0) (0) (0) (0 0) (0 0) (0) (0 0) (0) (0) (0 0) (0) (0) (0 0) (0 0) (0) (0) (0 0) (0) (0 0) (0 0) (0) (0 0) (0 0) (0 0) (0 0) (0 0) (0 0) (0) (0) (0 0) (0) (0 0) (0) (0 0) (0 0) (0) (0 0) (0 0) (0 0) (0 0) (0 0) (0 0) (0 0) (0) (0) (0 0) (0 0) (0 0) (0 0) (0 0) (0 0) (0) (0 0) (0 0) (0 0) (0 0) (0 0) (0 0) (0 0) (0 0) (0 0) (0 0) (0 0) (0 0) (0 0 0 0 0 0 0 0) (0 0 0 0 0 0 0 0) (0 0 0 0 0 0 0 0) (0 0 0 0 0 0 0 0) (0 0 0 0 0 0 0 0) (0 0 0 0 0 0 0 0) (0 0 0 0 0 0 0 0) (0 0 0 0 0 0 0 0) (0 0 0 0 0 0 0 0) (0 0 0 0 0 0 0 0) (0 0 0 0 0 0 0 0) (0 0 0 0 0 0 0 0) (0 0 0 0 0 0 0 0) (0 0 0 0 0 0 0 0) (0 0 0 0 0 0 0 0) (0 0 0 0 0 0 0 0) (0 0 0 0) (0 0) (0 0) (0 0) (0 0) (0 0) (0 0) (0 0) (0 0) (0 0 0 0) (0 0 0 0) (0 0 0 0) (0 0) (0 0) (0 0) (0 0) (0 0) (0 0) (0 0) (0 0) (0 0) (0 0 0 0) (0 0 0 0) (0 0 0 0) (0 0 0 0) (0 0) (0 0) (0 0) (0 0) (0 0 0 0) (0 0 0 0) (0 0 0 0) (0 0 0 0) (0 0) (0 0 0 0) (0 0 0 0) (0 0 0 0) (0 0 0 0 0 0 0 0) (0 0 0 0 0 0 0 0) (0 0 0 0 0 0 0 0) (0 0 0 0 0 0 0 0) (0 0 0 0 0 0 0 0) (0 0 0 0) (0 0 0 0) (0 0 0 0) (0 0 0 0) (0 0 0 0 0 0 0 0) (0 0 0 0) (0 0 0 0 0 0 0 0) (0 0 0 0 0 0 0 0) (0 0 0 0 0 0 0 0) (0 0 0 0 0 0 0 0) (0 0 0 0 0 0 0 0) (0 0 0 0 0 0 0 0) (0 0 0 0 0 0 0 0) (0 0 0 0 0 0 0 0) (0 0 0 0 0 0 0 0) (0 0 0 0 0 0 0 0) (0 0 0 0 0 0 0 0) (0 0 0 0 0 0 0 0) (0 0 0 0 0 0 0 0) (0 0 0 0 0 0 0 0) (0 0 0 0 0 0 0 0) (0 0 0 0 0 0 0 0) (0 0 0 0 0 0 0 0) (0 0 0 0 0 0 0 0) (0 0 0 0 0 0 0 0) (0 0 0 0 0 0 0 0) (0 0 0 0 0 0 0 0) (0 0 0 0 0 0 0 0) (0 0 0 0 0 0 0 0) (0 0 0 0 0 0 0 0) (0 0 0 0 0 0 0 0) (0 0 0 0 0 0 0 0) (0 0 0 0 0 0 0 0) (0 0 0 0 0 0 0 0) (0 0 0 0 0 0 0 0) (0 0 0 0 0 0 0 0) (0 0 0) (0 0 0 0 0 0 0 0) (0 0 0 0 0 0 0 0) (0 0 0 0 0 0 0 0) (0 0 0 0 0 0 0 0) (0 0 0 0 0 0 0 0) (0 0 0 0 0 0 0 0) (0 0 0 0 0 0 0 0) (0 0 0 0 0 0 0 0) (0 0 0 0 0 0 0 0) (0 0 0 0 0 0 0 0) (0 0 0 0 0 0 0 0) (0 0 0 0 0 0 0 0) (0 0 0 0 0 0 0 0) (0 0 0 0 0 0 0 0) (0 0 0 0 0 0 0 0) (0 0 0 0 0 0 0 0))) :lchan (quote ((1) (1) (1) (1) (1) (1) (1) (1) (1) (1) (1) (1) (1) (1) (1) (1) (1) (1) (1) (1) (1) (1) (1 1) (1) (1) (1) (1) (1) (1) (1) (1) (1) (1) (1) (1 1) (1) (1) (1 1) (1) (1 1) (1) (1) (1) (1 1) (1) (1 1) (1) (1) (1 1) (1 1) (1 1) (1 1) (1) (1) (1) (1) (1) (1 1) (1) (1) (1) (1 1 1) (1) (1) (1) (1) (1 1) (1) (1) (1 1) (1 1) (1 1) (1 1) (1) (1 1) (1 1) (1) (1) (1) (1) (1) (1) (1) (1) (1) (1) (1) (1 1) (1) (1) (1) (1) (1 1) (1) (1) (1) (1) (1) (1 1) (1) (1 1) (1) (1) (1) (1 1) (1 1) (1) (1 1) (1) (1) (1 1) (1) (1) (1 1) (1 1) (1) (1) (1 1) (1) (1 1) (1 1) (1) (1 1) (1 1) (1 1) (1 1) (1 1) (1 1) (1) (1) (1 1) (1) (1 1) (1) (1 1) (1 1) (1) (1 1) (1 1) (1 1) (1 1) (1 1) (1 1) (1 1) (1) (1) (1 1) (1 1) (1 1) (1 1) (1 1) (1 1) (1) (1 1) (1 1) (1 1) (1 1) (1 1) (1 1) (1 1) (1 1) (1 1) (1 1) (1 1) (1 1) (1 1 1 1 1 1 1 1) (1 1 1 1 1 1 1 1) (1 1 1 1 1 1 1 1) (1 1 1 1 1 1 1 1) (1 1 1 1 1 1 1 1) (1 1 1 1 1 1 1 1) (1 1 1 1 1 1 1 1) (1 1 1 1 1 1 1 1) (1 1 1 1 1 1 1 1) (1 1 1 1 1 1 1 1) (1 1 1 1 1 1 1 1) (1 1 1 1 1 1 1 1) (1 1 1 1 1 1 1 1) (1 1 1 1 1 1 1 1) (1 1 1 1 1 1 1 1) (1 1 1 1 1 1 1 1) (1 1 1 1) (1 1) (1 1) (1 1) (1 1) (1 1) (1 1) (1 1) (1 1) (1 1 1 1) (1 1 1 1) (1 1 1 1) (1 1) (1 1) (1 1) (1 1) (1 1) (1 1) (1 1) (1 1) (1 1) (1 1 1 1) (1 1 1 1) (1 1 1 1) (1 1 1 1) (1 1) (1 1) (1 1) (1 1) (1 1 1 1) (1 1 1 1) (1 1 1 1) (1 1 1 1) (1 1) (1 1 1 1) (1 1 1 1) (1 1 1 1) (1 1 1 1 1 1 1 1) (1 1 1 1 1 1 1 1) (1 1 1 1 1 1 1 1) (1 1 1 1 1 1 1 1) (1 1 1 1 1 1 1 1) (1 1 1 1) (1 1 1 1) (1 1 1 1) (1 1 1 1) (1 1 1 1 1 1 1 1) (1 1 1 1) (1 1 1 1 1 1 1 1) (1 1 1 1 1 1 1 1) (1 1 1 1 1 1 1 1) (1 1 1 1 1 1 1 1) (1 1 1 1 1 1 1 1) (1 1 1 1 1 1 1 1) (1 1 1 1 1 1 1 1) (1 1 1 1 1 1 1 1) (1 1 1 1 1 1 1 1) (1 1 1 1 1 1 1 1) (1 1 1 1 1 1 1 1) (1 1 1 1 1 1 1 1) (1 1 1 1 1 1 1 1) (1 1 1 1 1 1 1 1) (1 1 1 1 1 1 1 1) (1 1 1 1 1 1 1 1) (1 1 1 1 1 1 1 1) (1 1 1 1 1 1 1 1) (1 1 1 1 1 1 1 1) (1 1 1 1 1 1 1 1) (1 1 1 1 1 1 1 1) (1 1 1 1 1 1 1 1) (1 1 1 1 1 1 1 1) (1 1 1 1 1 1 1 1) (1 1 1 1 1 1 1 1) (1 1 1 1 1 1 1 1) (1 1 1 1 1 1 1 1) (1 1 1 1 1 1 1 1) (1 1 1 1 1 1 1 1) (1 1 1 1 1 1 1 1) (1 1 1) (1 1 1 1 1 1 1 1) (1 1 1 1 1 1 1 1) (1 1 1 1 1 1 1 1) (1 1 1 1 1 1 1 1) (1 1 1 1 1 1 1 1) (1 1 1 1 1 1 1 1) (1 1 1 1 1 1 1 1) (1 1 1 1 1 1 1 1) (1 1 1 1 1 1 1 1) (1 1 1 1 1 1 1 1) (1 1 1 1 1 1 1 1) (1 1 1 1 1 1 1 1) (1 1 1 1 1 1 1 1) (1 1 1 1 1 1 1 1) (1 1 1 1 1 1 1 1) (1 1 1 1 1 1 1 1))) :legato 0)))) (load-port-info newobj (quote ((0) (0) (0) (0) (0) (0) (0) (0) (0) (0) (0) (0) (0) (0) (0) (0) (0) (0) (0) (0) (0) (0) (0 0) (0) (0) (0) (0) (0) (0) (0) (0) (0) (0) (0) (0 0) (0) (0) (0 0) (0) (0 0) (0) (0) (0) (0 0) (0) (0 0) (0) (0) (0 0) (0 0) (0 0) (0 0) (0) (0) (0) (0) (0) (0 0) (0) (0) (0) (0 0 0) (0) (0) (0) (0) (0 0) (0) (0) (0 0) (0 0) (0 0) (0 0) (0) (0 0) (0 0) (0) (0) (0) (0) (0) (0) (0) (0) (0) (0) (0) (0 0) (0) (0) (0) (0) (0 0) (0) (0) (0) (0) (0) (0 0) (0) (0 0) (0) (0) (0) (0 0) (0 0) (0) (0 0) (0) (0) (0 0) (0) (0) (0 0) (0 0) (0) (0) (0 0) (0) (0 0) (0 0) (0) (0 0) (0 0) (0 0) (0 0) (0 0) (0 0) (0) (0) (0 0) (0) (0 0) (0) (0 0) (0 0) (0) (0 0) (0 0) (0 0) (0 0) (0 0) (0 0) (0 0) (0) (0) (0 0) (0 0) (0 0) (0 0) (0 0) (0 0) (0) (0 0) (0 0) (0 0) (0 0) (0 0) (0 0) (0 0) (0 0) (0 0) (0 0) (0 0) (0 0) (0 0 0 0 0 0 0 0) (0 0 0 0 0 0 0 0) (0 0 0 0 0 0 0 0) (0 0 0 0 0 0 0 0) (0 0 0 0 0 0 0 0) (0 0 0 0 0 0 0 0) (0 0 0 0 0 0 0 0) (0 0 0 0 0 0 0 0) (0 0 0 0 0 0 0 0) (0 0 0 0 0 0 0 0) (0 0 0 0 0 0 0 0) (0 0 0 0 0 0 0 0) (0 0 0 0 0 0 0 0) (0 0 0 0 0 0 0 0) (0 0 0 0 0 0 0 0) (0 0 0 0 0 0 0 0) (0 0 0 0) (0 0) (0 0) (0 0) (0 0) (0 0) (0 0) (0 0) (0 0) (0 0 0 0) (0 0 0 0) (0 0 0 0) (0 0) (0 0) (0 0) (0 0) (0 0) (0 0) (0 0) (0 0) (0 0) (0 0 0 0) (0 0 0 0) (0 0 0 0) (0 0 0 0) (0 0) (0 0) (0 0) (0 0) (0 0 0 0) (0 0 0 0) (0 0 0 0) (0 0 0 0) (0 0) (0 0 0 0) (0 0 0 0) (0 0 0 0) (0 0 0 0 0 0 0 0) (0 0 0 0 0 0 0 0) (0 0 0 0 0 0 0 0) (0 0 0 0 0 0 0 0) (0 0 0 0 0 0 0 0) (0 0 0 0) (0 0 0 0) (0 0 0 0) (0 0 0 0) (0 0 0 0 0 0 0 0) (0 0 0 0) (0 0 0 0 0 0 0 0) (0 0 0 0 0 0 0 0) (0 0 0 0 0 0 0 0) (0 0 0 0 0 0 0 0) (0 0 0 0 0 0 0 0) (0 0 0 0 0 0 0 0) (0 0 0 0 0 0 0 0) (0 0 0 0 0 0 0 0) (0 0 0 0 0 0 0 0) (0 0 0 0 0 0 0 0) (0 0 0 0 0 0 0 0) (0 0 0 0 0 0 0 0) (0 0 0 0 0 0 0 0) (0 0 0 0 0 0 0 0) (0 0 0 0 0 0 0 0) (0 0 0 0 0 0 0 0) (0 0 0 0 0 0 0 0) (0 0 0 0 0 0 0 0) (0 0 0 0 0 0 0 0) (0 0 0 0 0 0 0 0) (0 0 0 0 0 0 0 0) (0 0 0 0 0 0 0 0) (0 0 0 0 0 0 0 0) (0 0 0 0 0 0 0 0) (0 0 0 0 0 0 0 0) (0 0 0 0 0 0 0 0) (0 0 0 0 0 0 0 0) (0 0 0 0 0 0 0 0) (0 0 0 0 0 0 0 0) (0 0 0 0 0 0 0 0) (0 0 0) (0 0 0 0 0 0 0 0) (0 0 0 0 0 0 0 0) (0 0 0 0 0 0 0 0) (0 0 0 0 0 0 0 0) (0 0 0 0 0 0 0 0) (0 0 0 0 0 0 0 0) (0 0 0 0 0 0 0 0) (0 0 0 0 0 0 0 0) (0 0 0 0 0 0 0 0) (0 0 0 0 0 0 0 0) (0 0 0 0 0 0 0 0) (0 0 0 0 0 0 0 0) (0 0 0 0 0 0 0 0) (0 0 0 0 0 0 0 0) (0 0 0 0 0 0 0 0) (0 0 0 0 0 0 0 0)))) (init-mus-color newobj (quote nil)) (set-extra-pairs newobj (quote nil)) (set-patch-pairs newobj (quote nil)) (set-name newobj nil) (set-tonalite newobj nil) newobj) nil nil (pairlis (quote (approx fontsize staff cmnpref deltapict outport inport player zoom notechancolor? grillestep mode winsize winpos score-mode obj-mode cursor-mode show-stems scale onset measure)) (list 16 36 (quote ggff) (let ((newobj (make-instance (quote edition-values)))) (setf (paper-size newobj) (om-make-point 600 800)) (setf (top-margin newobj) 2) (setf (left-margin newobj) 1) (setf (right-margin newobj) 1) (setf (bottom-margin newobj) 1) (setf (orientation newobj) nil) (setf (scale newobj) nil) (setf (system-space newobj) (quote (1))) (setf (system-color newobj) (quote nil)) (setf (line-space newobj) 1) (setf (title newobj) nil) (setf (show-title? newobj) nil) (setf (show-page? newobj) nil) (setf (sheet-id newobj) nil) (setf (page-mode newobj) nil) newobj) (om-make-point 0 0) nil nil (quote :fluidsynth) 143/100 nil 1000 0 (om-make-point 583 562) (om-make-point 188 59) 0 1 (quote :normal) (quote t) nil nil nil)) nil nil nil t (quote nil)))) (when (fboundp (quote set-active)) (set-active box nil)) box) (let ((box (om-load-boxcall (quote bastype) "aux 12" (quote t) (quote nil) (om-make-point 439 306) (om-make-point 62 30) (list 0 150) "(0 150)" nil))) (when (fboundp (quote set-active)) (set-active box nil)) box) (let ((box (om-load-boxcall (quote bastype) "aux 13" (quote t) (quote nil) (om-make-point 480 340) (om-make-point 51 30) (list 100) "(100)" nil))) (when (fboundp (quote set-active)) (set-active box nil)) box) (let ((box (om-load-boxcall (quote bastype) "aux 14" (quote t) (quote nil) (om-make-point 350 167) (om-make-point 38 30) 0.5 "0.5" nil))) (when (fboundp (quote set-active)) (set-active box nil)) box) (let ((box (om-load-boxcall (quote bastype) "aux 15" (quote t) (quote nil) (om-make-point 517 186) (om-make-point 55 30) 10000 "10000" nil))) (when (fboundp (quote set-active)) (set-active box nil)) box) (let ((box (om-load-boxcall (quote bastype) "aux 16" (quote t) (quote nil) (om-make-point 468 168) (om-make-point 41 30) 100 "100" nil))) (when (fboundp (quote set-active)) (set-active box nil)) box) (let ((box (om-load-boxwithed1 (quote box-with-win) "population-equation-8-voices" (quote omloop) (quote ((om-load-inputfun (quote input-funbox) "" "x-value" nil) (om-load-inputfun (quote input-funbox) "" "list-of-r-value-less-than-4" nil) (om-load-inputfun (quote input-funbox) "" "initializing-value" nil) (om-load-inputfun (quote input-funbox) "" "multiplication for pitches" nil))) (om-make-point 337 224) nil nil nil (list (let ((box (om-load-boxcall (quote lispfun) "FUNCALL 7" (quote funcall) (quote ((om-load-inputfun (quote input-funbox) "FUNCTION" "FUNCTION" nil) (om-load-inputfun (quote input-funbox) "add-input" "add-input" nil))) (om-make-point 464 457) nil nil nil nil 1))) (when (fboundp (quote set-active)) (set-active box nil)) box) (let ((box (om-load-boxcall (quote lispfun) "FUNCALL 6" (quote funcall) (quote ((om-load-inputfun (quote input-funbox) "FUNCTION" "FUNCTION" nil) (om-load-inputfun (quote input-funbox) "add-input" "add-input" nil))) (om-make-point 314 388) nil nil nil nil 1))) (when (fboundp (quote set-active)) (set-active box nil)) box) (let ((box (om-load-boxcall (quote lispfun) "FUNCALL 5" (quote funcall) (quote ((om-load-inputfun (quote input-funbox) "FUNCTION" "FUNCTION" nil) (om-load-inputfun (quote input-funbox) "add-input" "add-input" nil))) (om-make-point 375 421) nil nil nil nil 1))) (when (fboundp (quote set-active)) (set-active box nil)) box) (let ((box (om-load-boxcall (quote lispfun) "FUNCALL 4" (quote funcall) (quote ((om-load-inputfun (quote input-funbox) "FUNCTION" "FUNCTION" nil) (om-load-inputfun (quote input-funbox) "add-input" "add-input" nil))) (om-make-point 420 448) nil nil nil nil 1))) (when (fboundp (quote set-active)) (set-active box nil)) box) (let ((box (om-load-boxcomment "comment" (om-make-point 134 173) (quote "how many times the initial recursion will take place (100 at least, but more recommended though it'll slow down things considerably)$") "" (om-make-point 286 112) nil (om-make-color 0 0 0) (om-make-font "Verdana" 12 :family "Verdana" :style (quote (:plain)) :mode (quote nil))))) (when (fboundp (quote set-active)) (set-active box nil)) box) (let ((box (om-load-boxcall (quote genfun) "OM*" (quote om*) (quote ((om-load-inputfun (quote input-funbox) "number or list" "SELF" 0) (om-load-inputfun (quote input-funbox) "number or list" "NUM" 0))) (om-make-point 364 628) nil nil nil nil 1))) (when (fboundp (quote set-active)) (set-active box nil)) box) (let ((box (om-load-boxin "multiplication for pitches" 3 (om-make-point 487 41) "" "multiplication for pitches" nil nil))) (when (fboundp (quote set-active)) (set-active box nil)) box) (let ((box (om-load-boxin "initializing-value" 2 (om-make-point 324 43) "" "initializing-value" nil (om-make-point 98 59)))) (when (fboundp (quote set-active)) (set-active box nil)) box) (let ((box (om-load-boxwithed1 (quote box-with-win) "initializer" (quote omloop) (quote ((om-load-inputfun (quote input-funbox) "" "input" nil) (om-load-inputfun (quote input-funbox) "" "input 2" nil) (om-load-inputfun (quote input-funbox) "" "input 3" nil))) (om-make-point 70 122) nil nil nil (list (let ((box (om-load-boxin "input 3" 2 (om-make-point 274 41) "" nil nil nil))) (when (fboundp (quote set-active)) (set-active box nil)) box) (let ((box (om-load-boxin "input 2" 1 (om-make-point 224 41) "" nil nil nil))) (when (fboundp (quote set-active)) (set-active box nil)) box) (let ((box (om-load-boxcall (quote genfun) "inlist" (quote listloop) (quote ((om-load-inputfun (quote input-funbox) "list to iterate" "LIST" nil))) (om-make-point 237 191) nil nil nil nil 1))) (when (fboundp (quote set-active)) (set-active box nil)) box) (let ((box (om-load-boxcall (quote genfun) "CREATE-LIST" (quote create-list) (quote ((om-load-inputfun (quote input-funbox) "number of elements" "COUNT" 1000) (om-load-inputfun (quote input-funbox) "initial element" "ELEM" nil))) (om-make-point 231 116) nil nil nil nil 1))) (when (fboundp (quote set-active)) (set-active box nil)) box) (let ((box (om-load-boxcall (quote genfun) "accum" (quote accumulator) (quote ((om-load-inputfun (quote input-funbox) "items to collect" "DATA" nil) (om-load-inputfun (quote input-funbox) "initial value" "INIT" nil) (om-load-inputfun (quote input-funbox) "accumulation function" "FUN" nil))) (om-make-point 289 267) nil nil nil nil 3))) (when (fboundp (quote set-active)) (set-active box nil)) box) (let ((box (om-load-boxin "input" 0 (om-make-point 177 46) "" nil nil (om-make-point 36 59)))) (when (fboundp (quote set-active)) (set-active box nil)) box) (let ((box (om-load-boxcall (quote abstraction) "mypatch" (om-load-patch-abs1 "mypatch" (quote ((let ((box (om-load-boxout "output" 0 (om-make-point 217 257) (quote ((om-load-inputfun (quote input-funbox) "" "out" nil))) nil nil))) (when (fboundp (quote set-active)) (set-active box nil)) box) (let ((box (om-load-boxin "input 2" 1 (om-make-point 184 50) "" nil nil nil))) (when (fboundp (quote set-active)) (set-active box nil)) box) (let ((box (om-load-boxin "input" 0 (om-make-point 50 50) "" nil nil nil))) (when (fboundp (quote set-active)) (set-active box nil)) box) (let ((box (om-load-boxcall (quote genfun) "OM*" (quote om*) (quote ((om-load-inputfun (quote input-funbox) "number or list" "SELF" 0) (om-load-inputfun (quote input-funbox) "number or list" "NUM" 0))) (om-make-point 112 174) nil nil nil nil 1))) (when (fboundp (quote set-active)) (set-active box nil)) box) (let ((box (om-load-boxcall (quote genfun) "OM-" (quote om-) (quote ((om-load-inputfun (quote input-funbox) "number or list" "FIRST-ARG" 0) (om-load-inputfun (quote input-funbox) "number or list" "SECOND-ARG" 0))) (om-make-point 183 192) nil nil nil nil 1))) (when (fboundp (quote set-active)) (set-active box nil)) box) (let ((box (om-load-boxcall (quote bastype) "aux 3" (quote t) (quote nil) (om-make-point 144 162) (om-make-point 38 30) 1.0 "1.0" nil))) (when (fboundp (quote set-active)) (set-active box nil)) box) (let ((box (om-load-boxcall (quote genfun) "OM* 2" (quote om*) (quote ((om-load-inputfun (quote input-funbox) "number or list" "SELF" 0) (om-load-inputfun (quote input-funbox) "number or list" "NUM" 0))) (om-make-point 133 234) nil nil nil nil 1))) (when (fboundp (quote set-active)) (set-active box nil)) box))) (quote ((6 0 0 0 nil 0) (2 0 3 0 nil 0) (1 0 3 1 nil 0) (5 0 4 0 nil 0) (2 0 4 1 nil 0) (3 0 6 0 nil 0) (4 0 6 1 nil 0))) 7.06 nil "" (om-make-point 200 200) (om-make-point 500 400)) (quote ((om-load-inputfun (quote input-funbox) "" "input" nil) (om-load-inputfun (quote input-funbox) "" "input 2" nil))) (om-make-point 355 379/2) nil (list nil) "l" nil))) (when (fboundp (quote set-active)) (set-active box nil)) box) (let ((box (om-load-seqbox "finally" (quote finaldo) (quote ((om-load-inputfun (quote input-funbox) "value to return" "VAL" nil))) (om-make-point 315 420) nil nil nil 0))) (when (fboundp (quote set-active)) (set-active box nil)) box) (let ((box (om-load-seqbox "eachTime" (quote loopdo) (quote ((om-load-inputfun (quote input-funbox) "operations to do" "OP" nil))) (om-make-point 160 389) nil nil nil 0))) (when (fboundp (quote set-active)) (set-active box nil)) box)) (quote ((3 0 2 0 nil 0) (1 0 3 0 nil 0) (0 0 3 1 nil 0) (2 0 4 0 nil 0) (5 0 4 1 nil 0) (6 0 4 2 nil 0) (4 1 7 0 nil 0) (4 0 8 0 nil 0))) 1 "initializer" nil))) (when (fboundp (quote set-active)) (set-active box nil)) box) (let ((box (om-load-boxcall (quote bastype) "aux" (quote t) (quote nil) (om-make-point 304 571) (om-make-point 27 30) 2 "2" nil))) (when (fboundp (quote set-active)) (set-active box nil)) box) (let ((box (om-load-boxcall (quote genfun) "inlist" (quote listloop) (quote ((om-load-inputfun (quote input-funbox) "list to iterate" "LIST" nil))) (om-make-point 164 118) nil nil nil nil 1))) (when (fboundp (quote set-active)) (set-active box nil)) box) (let ((box (om-load-boxcall (quote genfun) "REMOVE-DUP" (quote remove-dup) (quote ((om-load-inputfun (quote input-funbox) "list" "LIST" (list 1 2 3 4)) (om-load-inputfun (quote input-funbox) "equality test (function or function name)" "TEST" (quote eq)) (om-load-inputfun (quote input-funbox) "an integer" "DEPTH" 1))) (om-make-point 260 636) nil nil nil nil 1))) (when (fboundp (quote set-active)) (set-active box nil)) box) (let ((box (om-load-boxcall (quote genfun) "X-APPEND" (quote x-append) (quote ((om-load-inputfun (quote input-funbox) "first element" "L1?" nil) (om-load-inputfun (quote input-funbox) "second element" "L2?" nil) (om-load-inputfun (quote input-funbox) "additional elements" "LST?" nil) (om-load-inputfun (quote input-funbox) "additional elements" "LST?" nil) (om-load-inputfun (quote input-funbox) "additional elements" "LST?" nil) (om-load-inputfun (quote input-funbox) "additional elements" "LST?" nil) (om-load-inputfun (quote input-funbox) "additional elements" "LST?" nil) (om-load-inputfun (quote input-funbox) "additional elements" "LST?" nil))) (om-make-point 97 501) (om-make-point 419 59) nil nil nil 1))) (when (fboundp (quote set-active)) (set-active box nil)) box) (let ((box (om-load-boxcall (quote genfun) "collect" (quote listing) (quote ((om-load-inputfun (quote input-funbox) "anything" "DATA" nil))) (om-make-point 206 560) nil nil nil nil 3))) (when (fboundp (quote set-active)) (set-active box nil)) box) (let ((box (om-load-boxcall (quote lispfun) "FUNCALL 3" (quote funcall) (quote ((om-load-inputfun (quote input-funbox) "FUNCTION" "FUNCTION" nil) (om-load-inputfun (quote input-funbox) "add-input" "add-input" nil))) (om-make-point 265 356) nil nil nil nil 1))) (when (fboundp (quote set-active)) (set-active box nil)) box) (let ((box (om-load-boxcall (quote lispfun) "FUNCALL 2" (quote funcall) (quote ((om-load-inputfun (quote input-funbox) "FUNCTION" "FUNCTION" nil) (om-load-inputfun (quote input-funbox) "add-input" "add-input" nil))) (om-make-point 212 326) nil nil nil nil 1))) (when (fboundp (quote set-active)) (set-active box nil)) box) (let ((box (om-load-boxcall (quote abstraction) "logistic-equation" (om-load-patch-abs1 "logistic-equation" (quote ((let ((box (om-load-boxout "output" 0 (om-make-point 217 257) (quote ((om-load-inputfun (quote input-funbox) "" "out" nil))) nil nil))) (when (fboundp (quote set-active)) (set-active box nil)) box) (let ((box (om-load-boxin "R-value" 1 (om-make-point 184 50) "" "R-value" nil nil))) (when (fboundp (quote set-active)) (set-active box nil)) box) (let ((box (om-load-boxin "X-value" 0 (om-make-point 50 50) "" "X-value" nil nil))) (when (fboundp (quote set-active)) (set-active box nil)) box) (let ((box (om-load-boxcall (quote genfun) "OM*" (quote om*) (quote ((om-load-inputfun (quote input-funbox) "number or list" "SELF" 0) (om-load-inputfun (quote input-funbox) "number or list" "NUM" 0))) (om-make-point 112 174) nil nil nil nil 1))) (when (fboundp (quote set-active)) (set-active box nil)) box) (let ((box (om-load-boxcall (quote genfun) "OM-" (quote om-) (quote ((om-load-inputfun (quote input-funbox) "number or list" "FIRST-ARG" 0) (om-load-inputfun (quote input-funbox) "number or list" "SECOND-ARG" 0))) (om-make-point 183 192) nil nil nil nil 1))) (when (fboundp (quote set-active)) (set-active box nil)) box) (let ((box (om-load-boxcall (quote bastype) "aux 3" (quote t) (quote nil) (om-make-point 144 162) (om-make-point 38 30) 1.0 "1.0" nil))) (when (fboundp (quote set-active)) (set-active box nil)) box) (let ((box (om-load-boxcall (quote genfun) "OM* 2" (quote om*) (quote ((om-load-inputfun (quote input-funbox) "number or list" "SELF" 0) (om-load-inputfun (quote input-funbox) "number or list" "NUM" 0))) (om-make-point 133 234) nil nil nil nil 1))) (when (fboundp (quote set-active)) (set-active box nil)) box))) (quote ((6 0 0 0 nil 0) (2 0 3 0 nil 0) (1 0 3 1 nil 0) (5 0 4 0 nil 0) (2 0 4 1 nil 0) (3 0 6 0 nil 0) (4 0 6 1 nil 0))) 7.06 nil "" (om-make-point 200 200) (om-make-point 500 400)) (quote ((om-load-inputfun (quote input-funbox) "" "input" nil) (om-load-inputfun (quote input-funbox) "" "input 2" nil))) (om-make-point 98 433/2) nil (list 0.5) nil "logistic-equation"))) (when (fboundp (quote set-active)) (set-active box nil)) box) (let ((box (om-load-boxcall (quote lispfun) "FUNCALL" (quote funcall) (quote ((om-load-inputfun (quote input-funbox) "FUNCTION" "FUNCTION" nil) (om-load-inputfun (quote input-funbox) "add-input" "add-input" nil))) (om-make-point 159 296) nil nil nil nil 1))) (when (fboundp (quote set-active)) (set-active box nil)) box) (let ((box (om-load-boxcall (quote abstraction) "logistic-equation" (om-load-patch-abs1 "logistic-equation" (quote ((let ((box (om-load-boxout "output" 0 (om-make-point 217 257) (quote ((om-load-inputfun (quote input-funbox) "" "out" nil))) nil nil))) (when (fboundp (quote set-active)) (set-active box nil)) box) (let ((box (om-load-boxin "R-value" 1 (om-make-point 184 50) "" "R-value" nil nil))) (when (fboundp (quote set-active)) (set-active box nil)) box) (let ((box (om-load-boxin "X-value" 0 (om-make-point 50 50) "" "X-value" nil nil))) (when (fboundp (quote set-active)) (set-active box nil)) box) (let ((box (om-load-boxcall (quote genfun) "OM*" (quote om*) (quote ((om-load-inputfun (quote input-funbox) "number or list" "SELF" 0) (om-load-inputfun (quote input-funbox) "number or list" "NUM" 0))) (om-make-point 112 174) nil nil nil nil 1))) (when (fboundp (quote set-active)) (set-active box nil)) box) (let ((box (om-load-boxcall (quote genfun) "OM-" (quote om-) (quote ((om-load-inputfun (quote input-funbox) "number or list" "FIRST-ARG" 0) (om-load-inputfun (quote input-funbox) "number or list" "SECOND-ARG" 0))) (om-make-point 183 192) nil nil nil nil 1))) (when (fboundp (quote set-active)) (set-active box nil)) box) (let ((box (om-load-boxcall (quote bastype) "aux 3" (quote t) (quote nil) (om-make-point 144 162) (om-make-point 38 30) 1.0 "1.0" nil))) (when (fboundp (quote set-active)) (set-active box nil)) box) (let ((box (om-load-boxcall (quote genfun) "OM* 2" (quote om*) (quote ((om-load-inputfun (quote input-funbox) "number or list" "SELF" 0) (om-load-inputfun (quote input-funbox) "number or list" "NUM" 0))) (om-make-point 133 234) nil nil nil nil 1))) (when (fboundp (quote set-active)) (set-active box nil)) box))) (quote ((6 0 0 0 nil 0) (2 0 3 0 nil 0) (1 0 3 1 nil 0) (5 0 4 0 nil 0) (2 0 4 1 nil 0) (3 0 6 0 nil 0) (4 0 6 1 nil 0))) 7.06 nil "" (om-make-point 200 200) (om-make-point 500 400)) (quote ((om-load-inputfun (quote input-funbox) "" "input" nil) (om-load-inputfun (quote input-funbox) "" "input 2" nil))) (om-make-point 4 433/2) nil (list nil) "l" "logistic-equation"))) (when (fboundp (quote set-active)) (set-active box nil)) box) (let ((box (om-load-boxin "list-of-r-value-less-than-4" 1 (om-make-point 132 39) "" "list-of-r-value-less-than-4" nil nil))) (when (fboundp (quote set-active)) (set-active box nil)) box) (let ((box (om-load-boxin "x-value" 0 (om-make-point 59 40) "" "x-value" nil nil))) (when (fboundp (quote set-active)) (set-active box nil)) box) (let ((box (om-load-seqbox "finally" (quote finaldo) (quote ((om-load-inputfun (quote input-funbox) "value to return" "VAL" nil))) (om-make-point 353 662) nil nil nil 0))) (when (fboundp (quote set-active)) (set-active box nil)) box) (let ((box (om-load-seqbox "eachTime" (quote loopdo) (quote ((om-load-inputfun (quote input-funbox) "operations to do" "OP" nil))) (om-make-point 166 664) nil nil nil 0))) (when (fboundp (quote set-active)) (set-active box nil)) box)) (quote ((18 0 0 0 ((om-make-point 52 563/2) (om-make-point 51 749/2) (om-make-point 78 933/2) (om-make-point 479 457)) 0) (3 0 0 1 nil 0) (18 0 1 0 ((om-make-point 52 563/2) (om-make-point 51 669/2) (om-make-point 79 801/2) (om-make-point 329 388)) 0) (14 0 1 1 nil 0) (18 0 2 0 ((om-make-point 52 563/2) (om-make-point 51 703/2) (om-make-point 78 843/2) (om-make-point 390 421)) 0) (1 0 2 1 nil 0) (18 0 3 0 ((om-make-point 52 563/2) (om-make-point 51 729/2) (om-make-point 77 891/2) (om-make-point 435 448)) 0) (2 0 3 1 nil 0) (11 0 5 0 nil 0) (6 0 5 1 ((om-make-point 557 98) (om-make-point 601 365) (om-make-point 570 565) (om-make-point 378 628)) 0) (20 0 8 0 nil 0) (7 0 8 1 nil 0) (10 0 8 2 nil 0) (19 0 10 0 nil 0) (13 1 11 0 nil 0) (9 0 11 2 nil 0) (16 0 12 0 nil 0) (17 0 12 1 nil 0) (15 0 12 2 nil 0) (14 0 12 3 nil 0) (1 0 12 4 nil 0) (2 0 12 5 nil 0) (3 0 12 6 nil 0) (0 0 12 7 nil 0) (12 0 13 0 nil 0) (18 0 14 0 ((om-make-point 52 563/2) (om-make-point 51 711/2) (om-make-point 80 741/2) (om-make-point 280 356)) 0) (15 0 14 1 nil 0) (18 0 15 0 ((om-make-point 52 563/2) (om-make-point 51 661/2) (om-make-point 81 677/2) (om-make-point 227 326)) 0) (17 0 15 1 nil 0) (8 0 16 0 nil 0) (10 0 16 1 nil 0) (18 0 17 0 ((om-make-point 52 563/2) (om-make-point 51 591/2) (om-make-point 83 613/2) (om-make-point 174 296)) 0) (16 0 17 1 nil 0) (10 0 18 1 ((om-make-point 186 175) (om-make-point 186 189) (om-make-point 63 207) (om-make-point 70 433/2)) 0) (5 0 21 0 nil 0) (13 0 22 0 nil 0))) 1 "population-equation-8-voices" nil))) (when (fboundp (quote set-active)) (set-active box nil)) box))) (quote ((2 0 1 0 nil 0) (3 0 1 1 nil 0) (11 0 1 2 nil 0) (7 0 1 3 nil 0) (4 0 3 0 nil 0) (5 0 3 1 nil 0) (6 0 3 2 nil 0) (1 0 8 1 nil 0) (9 0 8 2 nil 0) (10 0 8 3 nil 0) (0 0 12 0 nil 0) (13 0 12 1 nil 0) (14 0 12 2 nil 0) (21 0 15 1 nil 0) (16 0 15 2 nil 0) (17 0 15 3 nil 0) (18 0 21 0 nil 0) (12 0 21 1 nil 0) (20 0 21 2 nil 0) (19 0 21 3 nil 0))) nil 7.06))